<svg xmlns="http://www.w3.org/2000/svg" width="110.401" height="82.273" viewBox="0 0 110.401 82.273"><defs><style>.a{mix-blend-mode:multiply;isolation:isolate;}.b{fill:#ebebeb;}.c{fill:#f0f0f0;}.d{fill:#f5f5f5;}.e{fill:#fafafa;}.f{fill:#b1b1b1;}.g{fill:#f2b151;}.h{fill:#354358;}.i{fill:#ededed;}.j{fill:#e05954;}.k,.n{fill:#fff;}.l{fill:#263238;}.m{fill:#407bff;}.n{opacity:0.8;}.o{opacity:0.3;}.p{opacity:0.1;}.q{fill:#ff8b7b;}.r{opacity:0.2;}.s{opacity:0.6;}.t{fill:#ff5652;}</style></defs><g transform="translate(0 -54.953)"><g class="a" transform="translate(0 54.953)"><rect class="b" width="110.401" height="0.055" transform="translate(0 72.301)"/><rect class="b" width="7.313" height="0.055" transform="translate(92.026 75.855)"/><rect class="b" width="1.919" height="0.055" transform="translate(71.215 76.454)"/><rect class="b" width="4.238" height="0.055" transform="translate(87.567 73.804)"/><rect class="b" width="9.537" height="0.055" transform="translate(11.583 74.175)"/><rect class="b" width="1.398" height="0.055" transform="translate(23.086 74.175)"/><rect class="b" width="20.684" height="0.055" transform="translate(29.029 75.108)"/><path class="b" d="M82.1,117.406H39.467a1.262,1.262,0,0,1-1.26-1.26V56.213a1.262,1.262,0,0,1,1.26-1.26H82.1a1.262,1.262,0,0,1,1.26,1.26v59.933A1.262,1.262,0,0,1,82.1,117.406Zm-42.637-62.4a1.206,1.206,0,0,0-1.205,1.2v59.933a1.206,1.206,0,0,0,1.205,1.205H82.1a1.206,1.206,0,0,0,1.2-1.205V56.213a1.206,1.206,0,0,0-1.2-1.2Z" transform="translate(-29.771 -54.953)"/><path class="b" d="M298.4,117.406H255.765a1.262,1.262,0,0,1-1.26-1.26V56.213a1.262,1.262,0,0,1,1.26-1.26H298.4a1.262,1.262,0,0,1,1.261,1.26v59.933A1.262,1.262,0,0,1,298.4,117.406Zm-42.636-62.4a1.206,1.206,0,0,0-1.2,1.2v59.933a1.206,1.206,0,0,0,1.2,1.205H298.4a1.207,1.207,0,0,0,1.205-1.205V56.213a1.207,1.207,0,0,0-1.205-1.2Z" transform="translate(-198.31 -54.953)"/><g transform="translate(4.858 7.408)"><circle class="c" cx="9.731" cy="9.731" r="9.731" transform="translate(40.671 23.452) rotate(-9.217)"/><path class="b" d="M235.232,253.267c1.84-1.472,7.286-1.546,9.862.662s6.109,5.814,7.36,6.256,5.422-1.178,8.783-1.546,4.686,3.091,5.937,5,2.576,1.987,3.165,4.49a15.005,15.005,0,0,0,3.385,6.4c1.693,2.061,6.624,4.85,7.139,6.418H226.547l-.589-21.285C227.43,258.2,233.392,254.739,235.232,253.267Z" transform="translate(-180.924 -216.063)"/><path class="d" d="M32.88,189.788c1.141-1.153,4.83-1.913,6.944-6.477s9.057-14.058,11.7-15.373,5.58-7.075,6.638-7.885,2.42,1.4,2.8,2.723c.955,3.37,5.512,12.954,8.236,14.794s2.906,5.814,3.663,8.1,5.4,3.606,6.457,6.55,12.8,16.8,12.8,16.8H22C25.493,206.475,28.484,194.229,32.88,189.788Z" transform="translate(-22 -144.119)"/><path class="c" d="M142.331,171.8c0,1.133-.344,6.379-1.521,7.655s-.14-1.57-2.131,0-2.874,4.808-6.211,5.937-3.042-1.717-1.423-3.337,3.539-4.465,5.057-5.3S142.331,168.312,142.331,171.8Z" transform="translate(-106.055 -152.697)"/><path class="c" d="M86.063,276.544c1.588-2.2-5.545.344-7.7-.442s-.491-1.864-3.631.883-8.587,5.4-5.643,6.33S83.119,280.616,86.063,276.544Z" transform="translate(-58.031 -233.991)"/><path class="c" d="M307.957,268.164c-1.22-1.456-2.613-4.2-4.416-4.674s-3.018-.773-2.65.331S309.856,270.43,307.957,268.164Z" transform="translate(-239.26 -224.519)"/><path class="c" d="M387.578,296.568c-.312-1.022-1.276-.994-2.122-2.613s-2.1-4.379-4.158-4.49-5.336.7-2.576,2.76S388.67,300.137,387.578,296.568Z" transform="translate(-299.132 -245.084)"/><path class="e" d="M252.515,93.127H210.563c-5.3,0,9.568-1.1,17.738-2.944s8.832-2.429,11.555-.442,10.819-2.429,14.72.221S259.507,93.127,252.515,93.127Z" transform="translate(-168.059 -88.502)"/><path class="e" d="M73.907,130.442c5.234,0,15.22-.427,11.215-2.189s-6.969,1.762-8.718.267a5.96,5.96,0,0,0-6.929-.267c-2.35,1.442-1.652-.8-4.486,0-3.966,1.122-16.7,2.189-5.868,2.189Z" transform="translate(-47.6 -118.715)"/><path class="e" d="M289.894,219.083c4,0,11.621-.326,8.563-1.672s-5.321,1.346-6.657.2a4.551,4.551,0,0,0-5.29-.2c-1.794,1.1-1.262-.612-3.425,0-3.028.857-12.75,1.672-4.48,1.672Z" transform="translate(-219.407 -188.368)"/></g></g><g class="a" transform="translate(12.389 132.225)"><ellipse class="f" cx="42.811" cy="2.5" rx="42.811" ry="2.5" transform="translate(0 0)"/></g><g transform="translate(70.747 58.061)"><path class="g" d="M350.637,650.937l-1.865-21.606a1.278,1.278,0,0,0-2.006-.938l-17.778,12.419a1.278,1.278,0,0,0,.191,2.206l19.644,9.187A1.278,1.278,0,0,0,350.637,650.937Z" transform="translate(-328.441 -628.161)"/><g transform="translate(10.289 5.477)"><path class="h" d="M346.12,644.3l2.788-7.916,2.915,1.383-4.265,7.205Zm-1.06.8,2.548,1.192-1.177,2.516-2.548-1.191Z" transform="translate(-343.884 -636.382)"/></g></g><g transform="translate(43.593 64.346)"><rect class="g" width="15.453" height="15.453" rx="2.705" transform="translate(0 15.173) rotate(-79.086)"/><path class="h" d="M302.3,646.668l-1.666-2.462a3.91,3.91,0,0,0-6.476,4.382L298,654.267l1.585-1.073-3.843-5.68a2,2,0,1,1,3.306-2.237l1.666,2.462-1.7,1.15,4.669,1.531.316-4.9Z" transform="translate(-289.621 -639.228)"/></g><g transform="translate(46.112 71.242)"><path class="i" d="M323.557,647.945l-18.878.188-13.216,13.482.188,18.878,13.482,13.216,18.878-.188,13.216-13.482-.188-18.878Z" transform="translate(-291.464 -647.945)"/><path class="j" d="M336.3,662.554l-12.593-12.344-17.634.176-12.344,12.593.176,17.634L306.5,692.956l17.634-.176,12.344-12.593Z" transform="translate(-292.219 -648.701)"/><g transform="translate(6.53 17.468)"><path class="k" d="M308.279,677.437l0,.181-1.984.02V677.5a1.321,1.321,0,0,0-1.423-1.425c-.939.009-1.45.484-1.443,1.12.021,2.105,5.052.813,5.09,4.63.023,2.378-1.482,3.316-3.633,3.338-1.908.019-3.6-1.055-3.621-3.19,0-.121.013-.258.012-.333l2.014-.021c0,.031-.013.167-.013.243a1.54,1.54,0,0,0,1.683,1.635c1.166-.012,1.569-.637,1.563-1.243-.025-2.468-5.054-.949-5.093-4.9-.019-1.969,1.607-2.925,3.44-2.943S308.258,675.3,308.279,677.437Z" transform="translate(-301.266 -674.247)"/><path class="k" d="M320.4,676.238l-2.575.026.087,8.663-1.939.019-.087-8.663-2.575.025-.017-1.726,7.089-.071Z" transform="translate(-305.281 -674.281)"/><path class="k" d="M333.465,679.5c.037,3.665-1.582,5.393-4.263,5.42s-4.334-1.668-4.37-5.334,1.582-5.393,4.262-5.42S333.429,675.834,333.465,679.5Zm-6.637-.312.007.758c.021,2.075.806,3.324,2.351,3.309s2.3-1.28,2.284-3.356l-.007-.757c-.021-2.075-.806-3.324-2.351-3.309S326.807,677.112,326.828,679.187Z" transform="translate(-309.132 -674.166)"/><path class="k" d="M341.853,680.676l.04,4.029-1.939.019-.1-10.39,3.711-.037a2.95,2.95,0,0,1,3.288,3.088,3.065,3.065,0,0,1-3.224,3.274Zm-.047-4.635.029,2.923,1.576-.015a1.361,1.361,0,0,0,1.438-1.544,1.314,1.314,0,0,0-1.468-1.379Z" transform="translate(-314.145 -674.209)"/></g></g><g transform="translate(9.983 100.286)"><g transform="translate(0 0)"><g transform="translate(30.68 14.121)"><path class="l" d="M213.382,344.065c2.766,0,5.009-4.443,5.009-9.923s-2.243-9.923-5.009-9.923h-6.427v19.846Z" transform="translate(-201.922 -324.219)"/><ellipse class="l" cx="5.009" cy="9.923" rx="5.009" ry="9.923" transform="translate(0 0)"/></g><g transform="translate(67.414 14.121)"><path class="l" d="M379.749,344.065c2.766,0,5.009-4.443,5.009-9.923s-2.243-9.923-5.009-9.923h-6.427v19.846Z" transform="translate(-368.289 -324.219)"/><ellipse class="l" cx="5.009" cy="9.923" rx="5.009" ry="9.923" transform="translate(0 0)"/></g><path class="m" d="M54.514,327.164l-3.431-.844a4.1,4.1,0,0,1-2.7-2.167l0,0a4.1,4.1,0,0,0-.951-1.248l-.843-.75a4.1,4.1,0,0,1-1.357-3.457l.465-4.853a4.1,4.1,0,0,1,2.92-3.543l2.452-.726,8.85-.63Z" transform="translate(-45.211 -298.195)"/><g transform="translate(5.326 14.121)"><path class="l" d="M98.552,344.065c2.766,0,5.009-4.443,5.009-9.923s-2.243-9.923-5.009-9.923H92.125v19.846Z" transform="translate(-87.092 -324.219)"/><ellipse class="l" cx="5.009" cy="9.923" rx="5.009" ry="9.923" transform="translate(0 0)"/><ellipse class="m" cx="3.514" cy="7.844" rx="3.514" ry="7.844" transform="translate(1.495 2.079)"/></g><path class="m" d="M127.045,289.235,135.7,269.9s-12.945-9.637-29.355-9.637c-26.617,0-25.7,3.588-34.611,11.378l3.888,2.743c6.918,0,7.494,10.966,8.6,14.05a1.2,1.2,0,0,0,1.131.8h41.7" transform="translate(-65.874 -260.265)"/><g transform="translate(42.06 14.121)"><path class="l" d="M264.918,344.065c2.767,0,5.009-4.443,5.009-9.923s-2.243-9.923-5.009-9.923h-6.427v19.846Z" transform="translate(-253.458 -324.219)"/><ellipse class="l" cx="5.009" cy="9.923" rx="5.009" ry="9.923" transform="translate(0 0)"/><ellipse class="m" cx="3.514" cy="7.844" rx="3.514" ry="7.844" transform="translate(1.495 2.079)"/></g><path class="m" d="M249.018,321.646c-.8-3.622-4.608-13.241-9.178-13.241l-4.949-4.5h27.94c1.935,0,10.525,1.187,15.393,4.484,3.933,2.664,4.411,6.705,4.983,12.612a2.16,2.16,0,0,1-2.271,2.243c-11.2.005-24.745.044-29.677.059A2.233,2.233,0,0,1,249.018,321.646Z" transform="translate(-193.009 -294.272)"/><path class="n" d="M251.362,273.522H233.147a2.576,2.576,0,0,1-2.139-1.123,26.746,26.746,0,0,0-8.244-7.488C241.179,264.911,251.362,273.522,251.362,273.522Z" transform="translate(-183.56 -263.885)"/><path class="n" d="M129.667,265.816a23.008,23.008,0,0,1,6.131,6.539.777.777,0,0,1-.671,1.167H105.284c-3.165,0-2.115-7.887,14.426-8.478,1.558-.135,5.194-.139,7.2-.13A4.73,4.73,0,0,1,129.667,265.816Z" transform="translate(-90.913 -263.885)"/><path class="l" d="M310.923,371.964l9.566.722a.593.593,0,0,1,.549.591v.653a.593.593,0,0,1-.593.593h-9.566a.593.593,0,0,1-.593-.593v-1.375A.593.593,0,0,1,310.923,371.964Z" transform="translate(-251.756 -347.299)"/><path class="l" d="M439.921,372.56l-2.635.529a.593.593,0,0,0-.476.582v.717a.593.593,0,0,0,.593.593h2.783a.593.593,0,0,0,.589-.663l-.149-1.246A.593.593,0,0,0,439.921,372.56Z" transform="translate(-350.344 -347.756)"/><path class="n" d="M301.686,319.291l-13.358-.649s-.136,2.367,4.813,2.877A13.028,13.028,0,0,0,301.686,319.291Z" transform="translate(-234.647 -305.752)"/><path class="o" d="M46.708,327.023a4.08,4.08,0,0,1,.275-1.136l.9-.026s.043,3.472-1.268,3.255a.752.752,0,0,1-.109-.026Z" transform="translate(-46.223 -311.377)"/><path class="n" d="M415.948,320.624a15.061,15.061,0,0,1,1.314.793,9.451,9.451,0,0,1,1.755,1.517,4.873,4.873,0,0,1-.567.129c-2.965.509-5.121-2.227-5.121-2.227Z" transform="translate(-332.048 -307.297)"/><path class="l" d="M360.877,338.479h9.453a1.618,1.618,0,0,1,.925.3l1.652,1.158a1.659,1.659,0,0,1,.695,1.128l.421,3.129a1.408,1.408,0,0,1-1.41,1.625H362.5a1.659,1.659,0,0,1-1.456-.906l-1.889-3.681a1.494,1.494,0,0,1,.12-1.605l.472-.606A1.416,1.416,0,0,1,360.877,338.479Z" transform="translate(-289.7 -321.209)"/><path class="p" d="M140.007,373.049h18.486a.44.44,0,0,1,.438.479l-.1,1.076a.44.44,0,0,1-.438.4H139.911a.44.44,0,0,1-.438-.479l.1-1.076A.44.44,0,0,1,140.007,373.049Z" transform="translate(-118.658 -348.146)"/><path class="m" d="M160.767,264.153l1.108-.215-2.265,9.937h-1.059Z" transform="translate(-133.526 -263.127)"/><path class="l" d="M173.094,313.988h-3.785l-.1.4a.566.566,0,0,0,.563.747h2.29a1.017,1.017,0,0,0,.932-.747Z" transform="translate(-141.814 -302.126)"/><path class="l" d="M114.109,313.988h-3.785l-.1.4a.567.567,0,0,0,.563.747h2.29a1.017,1.017,0,0,0,.932-.747Z" transform="translate(-95.854 -302.126)"/><path class="p" d="M160.038,320.427a.126.126,0,0,1-.126-.124l-.278-13.01a.126.126,0,0,1,.123-.129h0a.126.126,0,0,1,.126.124l.278,13.01a.126.126,0,0,1-.124.129Z" transform="translate(-134.369 -296.809)"/></g></g><g transform="translate(31.226 85.148)"><g transform="translate(0 0)"><path class="q" d="M189.471,399.434l-1.3-.02-.376-3.025,1.3.02Z" transform="translate(-177.552 -351.194)"/><path class="q" d="M155.222,397.79l-1.192-.665.891-2.807,1.192.665Z" transform="translate(-151.246 -349.579)"/><path class="l" d="M144.093,405.043l1.383.785a.114.114,0,0,1,.053.132l-.348,1.135a.192.192,0,0,1-.28.107c-.441-.26-.751-.47-1.311-.788-.345-.2-1.4-.75-1.881-1.02s-.271-.776-.052-.708a5.17,5.17,0,0,0,2.213.321A.318.318,0,0,1,144.093,405.043Z" transform="translate(-141.423 -357.655)"/><path class="l" d="M178.2,409.406l1.424.022a.114.114,0,0,1,.11.091l.239,1.163a.19.19,0,0,1-.191.229c-.514-.017-1.255-.058-1.9-.068-.755-.012-1.408.019-2.293.005-.535-.008-.675-.552-.45-.6a7.863,7.863,0,0,0,2.747-.748A.6.6,0,0,1,178.2,409.406Z" transform="translate(-167.615 -361.337)"/><path class="q" d="M158.649,229.617a27.689,27.689,0,0,1-2.33,1.714c-.408.263-.82.523-1.26.76a8.357,8.357,0,0,1-1.44.647,3.868,3.868,0,0,1-.456.115c-.084.015-.181.026-.273.035a2.115,2.115,0,0,1-.317,0,1.738,1.738,0,0,1-1.178-.608,2.479,2.479,0,0,1-.481-.916,4.529,4.529,0,0,1-.153-.832,9.352,9.352,0,0,1,.284-2.986l.97.134a12.9,12.9,0,0,0,.252,2.615,2.907,2.907,0,0,0,.176.532.788.788,0,0,0,.2.3c.025.019.037.016.039.009s0-.011.012-.014a2.054,2.054,0,0,0,.327-.1,7.817,7.817,0,0,0,1.083-.577c.371-.231.745-.479,1.114-.739.737-.517,1.48-1.073,2.189-1.621Z" transform="translate(-148.679 -219.63)"/><g transform="translate(4.688 7.502)"><path class="m" d="M168.334,227.563c-.6,1.339-2.884,2.726-4.153,3.307-.375.172-.328.675-.55.456a12.274,12.274,0,0,1-.978-2.162c0-.368.323-.148.59-.393.953-.878,2.949-2.824,4.191-3.039C169.065,225.451,168.889,226.313,168.334,227.563Z" transform="translate(-162.652 -225.679)"/></g><path class="l" d="M160.273,240.265c-.126-.186-.648.3-.814.5s.29.941.428,1.329-.133.793.287.853a1.6,1.6,0,0,0,.972-.212C161.431,242.36,160.575,240.71,160.273,240.265Z" transform="translate(-155.449 -229.51)"/><path class="r" d="M176.84,235.257a6.839,6.839,0,0,0,2.55-2.429c.025-.059.053-.117.075-.174l.023-.219A3.614,3.614,0,0,0,176.84,235.257Z" transform="translate(-169.02 -223.441)"/><path class="q" d="M152.282,223.567l.842-1.248-1.375-.56s-.777.879-.227,1.654Z" transform="translate(-149.139 -215.123)"/><path class="q" d="M154.974,218.061l-1.264-.042-.464.826,1.375.56Z" transform="translate(-150.635 -212.209)"/><path class="r" d="M187.792,396.392l.194,1.559,1.305.021-.194-1.559Z" transform="translate(-177.554 -351.197)"/><path class="r" d="M157.636,394.985l-1.192-.665-.459,1.447,1.192.665Z" transform="translate(-152.77 -349.582)"/><g transform="translate(8.391 7.344)"><path class="m" d="M187.792,225.653c-1.4,4.954-1.121,10.212-1.248,11.276-1.02-.074-4.862-.36-6.956-.517-.667-7.453.914-11.236.914-11.236s.447-.087,1.056-.149c.191-.02.4-.037.611-.048.118-.007.238-.011.36-.013a25.869,25.869,0,0,1,2.958.22c.185.023.374.051.557.081s.336.06.492.091C187.244,225.5,187.792,225.653,187.792,225.653Z" transform="translate(-179.423 -224.964)"/></g><path class="l" d="M191.865,224.968a.788.788,0,0,0,.377,1.506,3.277,3.277,0,0,0,2.58-1.286Z" transform="translate(-180.37 -217.623)"/><path class="r" d="M210.453,237.709a5.89,5.89,0,0,0,.518,3.206c.068-.7.159-1.431.28-2.179Z" transform="translate(-195.178 -227.551)"/><path class="q" d="M195.525,210.786c-.257.938-.573,2.667.045,3.352a3.055,3.055,0,0,1-2.327.766c-1.133-.044-.959-.6-.63-.986,1.08-.174,1.111-.964.981-1.716Z" transform="translate(-181.118 -206.572)"/><path class="r" d="M199.075,213.4l-1.142.837a3.06,3.06,0,0,1,.052.532,1.313,1.313,0,0,0,1.074-.853A1.431,1.431,0,0,0,199.075,213.4Z" transform="translate(-185.455 -208.61)"/><path class="l" d="M191.185,200.653a2.971,2.971,0,0,1-.566-2C190.92,197.524,192.731,198.905,191.185,200.653Z" transform="translate(-179.723 -196.798)"/><path class="q" d="M194.351,197.187c-.175,1.282-.212,2.042-.912,2.655a1.719,1.719,0,0,1-2.811-1.1c-.191-1.178.128-3.077,1.427-3.5A1.765,1.765,0,0,1,194.351,197.187Z" transform="translate(-179.724 -194.397)"/><path class="l" d="M191.429,210.112c0,.2-.18.242-.325.331a.883.883,0,0,0-.251.268s-.186-.062-.11-.4S191.429,209.928,191.429,210.112Z" transform="translate(-179.838 -205.966)"/><path class="l" d="M194.33,210.095c0,.337.373.29.658.384a1.191,1.191,0,0,1,.592.409.481.481,0,0,0-.081-.515C195.14,209.9,194.33,209.911,194.33,210.095Z" transform="translate(-182.648 -205.941)"/><path class="l" d="M193.279,193.334c-.8.238-3.059.487-2.783-.666.384-1.611,1.4-.77,1.557-.542.647-.468,3.5-.059,2.934.866.618.1.98.77.533,1.1s-.986,1.695-1.284,1.655a4.011,4.011,0,0,1-1.046-.3l.6-.812S193.046,193.933,193.279,193.334Z" transform="translate(-179.642 -191.703)"/><path class="l" d="M209.552,197.141a1.21,1.21,0,0,1,1.213.174C210.738,196.759,209.976,196.681,209.552,197.141Z" transform="translate(-194.509 -195.707)"/><path class="q" d="M205.276,207.777a1.231,1.231,0,0,1-.8.485c-.427.061-.585-.334-.419-.708.149-.337.55-.774.957-.663A.552.552,0,0,1,205.276,207.777Z" transform="translate(-190.173 -203.523)"/><g transform="translate(7.105 18.793)"><path class="m" d="M176.442,304.468l2.208.034s-1.276-8.723-1.077-12.781a31.827,31.827,0,0,1,.189-4.813c.412-2.332.61-3.262,1.143-6.21.38-2.1.718-3.544.718-3.544l-4.573-.34s-1.494,10.512-1.449,14.492C173.646,295.445,176.442,304.468,176.442,304.468Z" transform="translate(-173.6 -276.814)"/><path class="s" d="M176.442,304.468l2.208.034s-1.276-8.723-1.077-12.781a31.827,31.827,0,0,1,.189-4.813c.412-2.332.61-3.262,1.143-6.21.38-2.1.718-3.544.718-3.544l-4.573-.34s-1.494,10.512-1.449,14.492C173.646,295.445,176.442,304.468,176.442,304.468Z" transform="translate(-173.6 -276.814)"/></g><path class="r" d="M177.767,322.528a15.653,15.653,0,0,0-.192,2.928c-.38,1.074-.712,2.091-.942,3-.4,1.584-1.045,3.985-1.669,6.294a39.876,39.876,0,0,1-1.358-7.82Z" transform="translate(-166.5 -293.642)"/><g transform="translate(2.925 18.976)"><path class="m" d="M162.767,277.645s-3.286,8.3-4.531,11.914c-1.364,3.956-3.566,14.636-3.566,14.636l2.078,1.178s3.237-8.8,4.578-12.658c1.527-4.389,5.734-11.325,5.93-14.736Z" transform="translate(-154.67 -277.645)"/><path class="s" d="M162.767,277.645s-3.286,8.3-4.531,11.914c-1.364,3.956-3.566,14.636-3.566,14.636l2.078,1.178s3.237-8.8,4.578-12.658c1.527-4.389,5.734-11.325,5.93-14.736Z" transform="translate(-154.67 -277.645)"/></g><path class="m" d="M153.428,394.128l2.447,1.388.415-.731-2.708-1.6Z" transform="translate(-150.777 -348.698)"/><path class="m" d="M184.169,399.094l2.631.041.013-.85-2.941-.091Z" transform="translate(-174.5 -352.6)"/><path class="l" d="M199.011,204.608c-.008.1-.07.186-.138.181s-.118-.094-.11-.2.07-.186.138-.181S199.018,204.5,199.011,204.608Z" transform="translate(-186.101 -201.604)"/><path class="l" d="M192.693,204.209c-.008.1-.07.186-.138.181s-.118-.094-.11-.2.07-.186.138-.181S192.7,204.1,192.693,204.209Z" transform="translate(-181.178 -201.293)"/><path class="t" d="M193.012,205.276a3.771,3.771,0,0,1-.568.86.606.606,0,0,0,.494.131Z" transform="translate(-181.178 -202.279)"/><path class="l" d="M193.9,211.6a.866.866,0,0,0,.618-.3.031.031,0,0,0-.049-.037.836.836,0,0,1-.7.274.031.031,0,1,0,0,.062A1.021,1.021,0,0,0,193.9,211.6Z" transform="translate(-182.18 -206.931)"/><path class="l" d="M199.134,202.336a.062.062,0,0,0,.048-.1.614.614,0,0,0-.483-.292.062.062,0,0,0,0,.124h0a.49.49,0,0,1,.38.235A.061.061,0,0,0,199.134,202.336Z" transform="translate(-186.005 -199.687)"/><path class="l" d="M191.042,201.647a.061.061,0,0,0,.055-.021.49.49,0,0,1,.409-.18.062.062,0,0,0,.017-.122.613.613,0,0,0-.519.221.062.062,0,0,0,.006.087A.06.06,0,0,0,191.042,201.647Z" transform="translate(-180.044 -199.198)"/><g transform="translate(1.986 46.834)"><path class="m" d="M150.612,404.827a1.534,1.534,0,0,0,.32.128.03.03,0,0,0,.032-.01.031.031,0,0,0,0-.034c-.027-.049-.265-.482-.427-.488a.1.1,0,0,0-.089.05.186.186,0,0,0-.025.174A.4.4,0,0,0,150.612,404.827Zm.264.046c-.215-.071-.359-.162-.391-.249a.126.126,0,0,1,.019-.118c.013-.02.026-.022.035-.022C150.622,404.487,150.776,404.7,150.876,404.872Z" transform="translate(-150.415 -404.287)"/><path class="m" d="M152.286,404.476a.03.03,0,0,0,.017,0,.031.031,0,0,0,.026-.018.931.931,0,0,0,.094-.54.168.168,0,0,0-.095-.1h0a.1.1,0,0,0-.126.022c-.1.113-.009.49.072.62A.031.031,0,0,0,152.286,404.476Zm.032-.59a.11.11,0,0,1,.048.059.742.742,0,0,1-.068.431c-.066-.155-.1-.425-.048-.491.005-.006.017-.02.055,0h0Z" transform="translate(-151.776 -403.811)"/><path class="m" d="M186,409.18a.031.031,0,0,0,.021-.024.031.031,0,0,0-.016-.032c-.059-.032-.579-.305-.739-.22a.1.1,0,0,0-.052.081h0a.173.173,0,0,0,.056.151c.141.129.516.083.726.045Zm-.693-.226a1.28,1.28,0,0,1,.587.182.837.837,0,0,1-.582-.045.113.113,0,0,1-.036-.1.037.037,0,0,1,.02-.033Z" transform="translate(-177.532 -407.766)"/><path class="m" d="M187.151,408.118l.008,0a.031.031,0,0,0,.013-.028.882.882,0,0,0-.195-.505.225.225,0,0,0-.17-.056h0c-.085.007-.11.05-.116.085-.026.147.281.434.437.507A.031.031,0,0,0,187.151,408.118Zm-.37-.525a.138.138,0,0,1,.032-.006h0a.164.164,0,0,1,.125.041.724.724,0,0,1,.166.4c-.159-.1-.368-.324-.352-.412C186.752,407.615,186.755,407.6,186.78,407.592Zm.029-.037h0Z" transform="translate(-178.68 -406.704)"/></g><g transform="translate(14.798 7.919)"><path class="q" d="M212.6,231.651c.288.534.536,1.061.791,1.6s.479,1.084.7,1.635.429,1.117.616,1.7l.135.438.12.45c.04.15.071.309.106.463l.026.119.026.158c.019.11.019.194.028.293a6.1,6.1,0,0,1-.042,1c-.035.313-.081.616-.133.915-.109.6-.24,1.176-.388,1.75a35.264,35.264,0,0,1-1.051,3.375l-.944-.26c.2-1.132.387-2.276.555-3.4.081-.565.156-1.128.206-1.683.027-.277.046-.551.055-.817a5.309,5.309,0,0,0-.019-.741c-.009-.046-.012-.107-.023-.14l-.013-.056-.027-.093c-.039-.127-.071-.251-.114-.38l-.131-.384-.143-.388c-.2-.518-.418-1.034-.641-1.554s-.469-1.033-.714-1.546-.5-1.032-.74-1.531Z" transform="translate(-210.312 -230.749)"/><path class="m" d="M210.4,227.682c.934.293,2.174,4.173,2.663,5.826a.833.833,0,0,1,.156.793l-1.907.841c-.448-.212-.714-.683-.549-.91a35.266,35.266,0,0,1-2.159-4.415C208.048,228.152,208.96,227.23,210.4,227.682Z" transform="translate(-208.44 -227.568)"/><path class="l" d="M219.219,256.981c-.193.115.4.719.587.9s.821-.286,1.218-.4.783.181.869-.234a1.6,1.6,0,0,0-.152-.983C221.381,255.953,219.682,256.707,219.219,256.981Z" transform="translate(-216.809 -249.868)"/><path class="q" d="M216.26,290.851l-1.018.847,1.267.915s.834-.882.46-1.409Z" transform="translate(-213.74 -276.878)"/><path class="q" d="M212.609,295.872l1.254.611.595-.881-1.267-.915Z" transform="translate(-211.688 -279.867)"/></g></g></g></g></svg>