<svg xmlns="http://www.w3.org/2000/svg" width="110.881" height="20.44" viewBox="0 0 110.881 20.44"><defs><style>.a{fill:#2b2579;}.b{fill:#fbb03b;}</style></defs><g transform="translate(-370.912 -565.782)"><g transform="translate(370.912 565.782)"><g transform="translate(0 0)"><path class="a" d="M442.166,450.335l-3.057-4.536a.832.832,0,0,0-1.155-.225l-4.536,3.057a.832.832,0,0,0-.225,1.155l3.057,4.536a.832.832,0,0,0,1.155.225l4.536-3.057A.832.832,0,0,0,442.166,450.335Zm-3.553,2.065-1.021-2.026.93.181.263-1.347a.922.922,0,0,0-1.809-.352l-.605,3.108-.867-.169.605-3.107a1.805,1.805,0,1,1,3.543.69l-.262,1.347.93.181Z" transform="translate(-429.266 -445.432)"/><path class="b" d="M432.274,475.741l-.807.544a1.287,1.287,0,0,1-1.786-.348l-2.668-3.959-.285-.2a.4.4,0,0,0-.632.287l-.657,6.767a.4.4,0,0,0,.565.4l6.189-2.814A.4.4,0,0,0,432.274,475.741Zm-4.618-2.308.85,2.484-.453.206-1.32-2.276Zm.732,3.9-.361-.793.8-.365.361.793Z" transform="translate(-423.074 -466.792)"/><path class="a" d="M419.863,502.954l-3.96,1.8a.846.846,0,0,1-.851-.083.847.847,0,0,1-.354-.779l.128-1.318a4.3,4.3,0,1,0,5.037.379Zm.5,3.947h-6.554v-1.349h6.554Z" transform="translate(-412.786 -491.902)"/></g><g transform="translate(6.384 0.032)"><path class="a" d="M453.285,455.478l.065-.035a4.166,4.166,0,0,1,.5-.226c.16-.058.319-.114.478-.166l.476-.144c.634-.185,1.273-.322,1.912-.457s1.282-.247,1.927-.343,1.292-.183,1.941-.25c.324-.035.65-.059.975-.089l.977-.067.987-.044.974-.017.981.018.98.044.673.046V453.3a7.685,7.685,0,0,0-.335-2.248l-.487-.021c-.6-.021-1.2-.039-1.812-.022-.61-.017-1.212,0-1.812.022s-1.186.051-1.754.088-1.117.082-1.634.138c-.258.029-.509.062-.748.1-.119.022-.236.046-.345.076a1.642,1.642,0,0,0-.157.05l-.062.03c-.023.016-.051.031-.07.046a2.533,2.533,0,0,0-.435.451c-.127.161-.242.32-.346.472-.208.305-.377.581-.513.81-.271.458-.417.726-.417.726l.09-.2c.06-.13.148-.32.27-.558s.273-.525.464-.846c.1-.16.2-.33.324-.5a2.641,2.641,0,0,1,.454-.51c.025-.021.047-.034.071-.052s.061-.033.092-.05a1.81,1.81,0,0,1,.177-.065c.118-.038.239-.064.361-.091.245-.051.5-.091.759-.128.522-.073,1.073-.128,1.644-.174s1.161-.086,1.762-.111,1.216-.046,1.823-.032c.608-.014,1.225.008,1.824.032.127.005.252.014.378.02-.028-.079-.057-.158-.087-.236h-.02c-.694-.026-1.387-.05-2.094-.028-.708-.021-1.4,0-2.094.028s-1.372.058-2.028.106-1.291.1-1.881.18c-.147.022-.292.044-.43.073a2.549,2.549,0,0,0-.383.1c-.027.009-.044.02-.067.03l-.007.005-.021.016-.042.032a.824.824,0,0,0-.136.126l-.06.061-.062.075c-.041.051-.083.1-.121.15-.309.414-.566.826-.789,1.19s-.41.692-.563.96l-.477.848s.123-.333.369-.9c.123-.284.275-.629.467-1.017a11.937,11.937,0,0,1,.709-1.281c.037-.058.08-.114.12-.171l.062-.087.078-.091a1.32,1.32,0,0,1,.16-.167l.04-.035.02-.018.01-.009,0,0c.009-.007-.013.009.021-.016a1.377,1.377,0,0,1,.121-.067,2.524,2.524,0,0,1,.449-.15c.149-.039.3-.07.451-.1.608-.117,1.248-.2,1.911-.266s1.349-.126,2.047-.159c.349-.018.7-.033,1.056-.043l.534-.01c.173,0,.376,0,.53,0h.055l.069,0,.137,0h.27l.535.01c.265.008.528.02.791.032a7.692,7.692,0,0,0-6.914-4.32h-5.024a21.312,21.312,0,0,0-3.5.245l2.946,4.372a1.287,1.287,0,0,1-.348,1.786l-3.345,2.254a.852.852,0,0,1-.279,1.35l-1.778.808a4.746,4.746,0,0,1-1.145,7.746c.828,1.151,2.847,1.847,7.451,1.847h5.024a7.692,7.692,0,0,0,7.66-7l-.087-.01c-.165-.018-.354-.025-.55-.037l-.619-.035c-.214-.012-.436-.011-.662-.018l-.684-.014-.684.014c-.227.007-.452.005-.666.018l-.616.035c-.2.011-.381.019-.552.037-.043,0-.085.007-.125.013a.3.3,0,0,1-.12,0l-.226-.03c-.143-.019-.266-.037-.366-.045-.2-.021-.327-.037-.327-.037s.1-.05.3-.132l.165-.066c.059-.021.124-.04.193-.063l.22-.07a.3.3,0,0,1,.121-.017c.042,0,.084-.006.128-.01.174-.019.363-.026.563-.038l.63-.036c.219-.013.44-.012.668-.018l.693-.015.694.015c.229.006.454.005.672.018l.627.035c.2.012.386.019.565.038l.069,0c0-.077.006-.154.006-.233v-.165c-.039-.006-.078-.01-.119-.013-.165-.018-.354-.026-.55-.037l-.619-.035c-.214-.013-.436-.011-.662-.018l-.684-.014-.684.014c-.227.007-.452.006-.666.018l-.616.035c-.2.012-.381.019-.552.037-.043,0-.085.007-.125.013a.3.3,0,0,1-.12.005l-.226-.03c-.143-.019-.266-.037-.366-.045-.2-.022-.327-.038-.327-.038s.1-.05.3-.132l.165-.066c.059-.021.124-.041.193-.063l.22-.071a.321.321,0,0,1,.121-.017c.042,0,.084-.006.128-.009.174-.019.363-.026.563-.038l.63-.035c.219-.013.44-.012.668-.018l.693-.014.694.014c.229.007.454.006.672.018l.627.036c.2.012.386.019.565.039l.075.005v-.4c-.039-.007-.078-.01-.119-.013-.165-.018-.354-.026-.55-.037l-.619-.035c-.214-.013-.436-.012-.662-.018l-.684-.015-.684.015c-.227.006-.452.005-.666.018l-.616.035c-.2.012-.381.019-.552.038-.043,0-.085.007-.125.013a.3.3,0,0,1-.12.005l-.226-.03c-.143-.019-.266-.037-.366-.045-.2-.021-.327-.038-.327-.038s.1-.05.3-.132l.165-.066c.059-.021.124-.041.193-.063l.22-.071a.316.316,0,0,1,.121-.017c.042,0,.084-.006.128-.01.174-.018.363-.026.563-.038l.63-.035c.219-.013.44-.012.668-.019l.693-.014.694.014c.229.007.454.006.672.019l.627.036c.2.012.386.019.565.038l.075.005v-.4c-.039-.006-.078-.01-.119-.013-.165-.018-.354-.025-.55-.037l-.619-.035c-.214-.013-.436-.012-.662-.018l-.684-.014-.684.014c-.227.007-.452.006-.666.018l-.616.035c-.2.011-.381.019-.552.037-.043,0-.085.007-.125.013a.3.3,0,0,1-.12,0l-.226-.03c-.143-.019-.266-.037-.366-.045-.2-.022-.327-.038-.327-.038s.1-.05.3-.132l.165-.066c.059-.021.124-.04.193-.063l.22-.07a.312.312,0,0,1,.121-.017c.042,0,.084-.006.128-.01.174-.019.363-.026.563-.038l.63-.036c.219-.013.44-.012.668-.018l.693-.015.694.015c.229.006.454.005.672.018l.627.035c.2.012.386.02.565.039l.075.005v-1.2l-.727-.043-.954-.033-.954-.008-.96.009-.947.033-.954.056c-.318.027-.636.047-.953.078-.635.062-1.269.13-1.9.21s-1.264.176-1.892.282-1.251.236-1.865.379l-.456.115c-.149.041-.3.086-.443.131a3.562,3.562,0,0,0-.39.152l-.043.019h0l-.02.014a.515.515,0,0,0-.044.031.069.069,0,0,1-.012.013.426.426,0,0,0-.047.048.719.719,0,0,0-.055.069,3.173,3.173,0,0,0-.376.769c-.1.287-.2.587-.273.891a17.786,17.786,0,0,0-.37,1.863l-.037.25-.234-.006a.342.342,0,0,0-.187.04.44.44,0,0,0-.157.166,1.226,1.226,0,0,0-.067.126l-.056.145-.047.154-.038.161c-.021.109-.044.219-.058.332s-.03.226-.041.34c-.024.228-.036.459-.05.691l-.015.35-.007.347c0,.232.006.462.027.692.013.114.027.227.05.339.012.056.028.109.042.165a1.347,1.347,0,0,0,.064.155.582.582,0,0,0,.214.25.7.7,0,0,0,.327.1.715.715,0,0,1-.349-.059.647.647,0,0,1-.267-.247,1.373,1.373,0,0,1-.089-.16c-.022-.056-.046-.112-.065-.17a3.494,3.494,0,0,1-.093-.348c-.045-.235-.076-.47-.1-.706l-.029-.355-.02-.352c-.011-.236-.016-.473-.012-.712,0-.119.005-.239.014-.36s.019-.241.033-.364l.027-.184.04-.186c.018-.063.035-.126.055-.189a1.674,1.674,0,0,1,.082-.19.943.943,0,0,1,.3-.36.761.761,0,0,1,.224-.111c.053-.589.129-1.168.239-1.752a9.536,9.536,0,0,1,.234-.975,3.882,3.882,0,0,1,.432-.982,1.475,1.475,0,0,1,.09-.124,1.158,1.158,0,0,1,.117-.13l.076-.069c.025-.022.035-.027.053-.041l.024-.018.012-.009.031-.021Zm.934,3.266c.014-.263.045-.636.1-1.086a4.475,4.475,0,0,1,.152-.736l.038-.1a1,1,0,0,1,.057-.113l.016-.028c-.018.02.026-.031.022-.026l0,0,0,0,.009-.009a.245.245,0,0,1,.051-.044.9.9,0,0,1,.084-.052l.058-.025a2.463,2.463,0,0,1,.439-.123,12.1,12.1,0,0,1,1.783-.169c.3-.011.606-.022.905-.028a7.359,7.359,0,0,1,.885.027,4.3,4.3,0,0,1,.433.067c.072.015.147.034.223.056.043.014.078.026.127.046l.074.034a.416.416,0,0,1,.05.028l.055.038.026.02c.071.069.021.021.037.036l0,0,0,0,.015.019.029.038a.543.543,0,0,1,.041.063l.042.075c.012.024.028.053.035.073l.019.054.036.106a3.191,3.191,0,0,1,.076.379,5.125,5.125,0,0,1,.042.637c0,.188-.007.351-.019.485a3.95,3.95,0,0,1-.054.421l-.075.006s-.056-.144-.14-.395l-.149-.448c-.056-.171-.119-.363-.194-.561-.038-.1-.078-.2-.123-.289l-.034-.062-.017-.031c-.005-.009-.007-.005-.009-.008a.014.014,0,0,1,0-.006s.005,0-.011-.016h0l-.011,0c-.012,0-.041-.007-.061-.013-.051-.01-.106-.019-.167-.027-.121-.013-.249-.034-.383-.046-.533-.063-1.121-.151-1.708-.178-.294-.015-.588-.023-.877-.024s-.572.005-.838.028a2.173,2.173,0,0,0-.363.059l-.036.01,0,0c0-.009-.015.005-.028.016l-.006,0v0c-.012.02-.026.033-.039.058l-.038.074a4.226,4.226,0,0,0-.22.659c-.113.428-.183.794-.236,1.049l-.077.4-.075-.008Zm-1.2-4.724c-.007.009-.025.012-.026.019l-.012.007a.061.061,0,0,1-.009.013c-.01,0-.013.028-.022.041s-.011.043-.018.066c-.017.1-.031.235-.043.348s-.022.219-.024.315a.581.581,0,0,0,.026.214.212.212,0,0,0,.119.107c.052.021.1.039.131.048l.049.015v.03h-.051a1.1,1.1,0,0,1-.144-.011.328.328,0,0,1-.2-.1.53.53,0,0,1-.107-.272,2.341,2.341,0,0,1-.025-.34,3.654,3.654,0,0,1,.007-.38.458.458,0,0,1,.194-.362,1.035,1.035,0,0,1,.407-.126,4.12,4.12,0,0,1,.418-.033c.138-.005.274-.007.4-.007h.193l.186.015a1.441,1.441,0,0,1,.335.066.928.928,0,0,1,.139.063l.064.031c.019.013.036.028.053.042a.638.638,0,0,1,.092.079l.066.08a.657.657,0,0,1,.066.13.252.252,0,0,1,.015.049l-.03.007a.2.2,0,0,0-.028-.043.866.866,0,0,0-.092-.1.758.758,0,0,0-.169-.1c-.017-.008-.033-.017-.051-.024l-.061-.014a.991.991,0,0,0-.125-.03,1.835,1.835,0,0,0-.3-.011l-.164.007c-.059.008-.126.01-.191.016-.132.007-.26.026-.394.032s-.266.02-.388.041A.839.839,0,0,0,453.019,454.02Z" transform="translate(-446.963 -445.603)"/></g></g><path class="a" d="M5.3-7.429A2.673,2.673,0,0,1,8.018-4.693,2.655,2.655,0,0,1,5.3-1.938a2.632,2.632,0,0,1-2.66-2.755A2.584,2.584,0,0,1,5.3-7.429ZM8.17-13.281v5.187A3.878,3.878,0,0,0,5.092-9.6C2.356-9.6.323-7.923.323-4.693A4.6,4.6,0,0,0,5.149.209a3.409,3.409,0,0,0,3.021-1.5L8.322,0h2.166V-13.281ZM12.5-9.367V0H14.82V-4.94a2.161,2.161,0,0,1,2.337-2.375,2.316,2.316,0,0,1,1.672.608l1.045-2.014a3.554,3.554,0,0,0-2.413-.893,2.761,2.761,0,0,0-2.641,1.33l-.171-1.083ZM23.066-9.4V0H20.748V-9.4Zm-2.527-2.6a1.368,1.368,0,0,1,2.736,0A1.368,1.368,0,0,1,20.539-12.008Zm11.8,2.622L31.046-6.251,29.621-2.337,28.177-6.289l-1.292-3.1H24.358L28.367.038h2.508l3.99-9.424ZM45.277-3.857c.361-3.857-1.6-5.8-4.731-5.8a4.687,4.687,0,0,0-4.978,4.9c0,3,1.919,5,5.149,5a5.754,5.754,0,0,0,4.028-1.52L43.263-2.736a3.866,3.866,0,0,1-2.508.874c-1.634,0-2.641-.836-2.793-1.995ZM38-5.776A2.523,2.523,0,0,1,40.622-7.6a2.145,2.145,0,0,1,2.432,1.824Zm9.614-5.985v2.413H45.866v2h1.748v4.047c0,2.337,1.33,3.5,3.363,3.42a5.178,5.178,0,0,0,1.919-.4L52.25-2.261a2.648,2.648,0,0,1-1.121.285,1.163,1.163,0,0,1-1.216-1.33V-7.353h2.6v-2H49.932v-2.66Zm15.922,7.9c.361-3.857-1.6-5.8-4.731-5.8a4.687,4.687,0,0,0-4.978,4.9c0,3,1.919,5,5.149,5A5.754,5.754,0,0,0,63-1.273L61.522-2.736a3.866,3.866,0,0,1-2.508.874c-1.634,0-2.641-.836-2.793-1.995ZM56.259-5.776A2.523,2.523,0,0,1,58.881-7.6a2.145,2.145,0,0,1,2.432,1.824ZM72.732-8.4a5.03,5.03,0,0,0-3.648-1.235c-1.71,0-3.952.76-3.952,2.926,0,2.128,2.109,2.774,3.876,2.907,1.33.076,1.862.342,1.862.988,0,.684-.817,1.14-1.691,1.121A5.14,5.14,0,0,1,65.949-3l-1.14,1.653A5.481,5.481,0,0,0,69.141.323c2.679,0,4.028-1.425,4.028-3.078,0-2.489-2.242-2.888-4.009-3-1.2-.076-1.748-.418-1.748-1.026,0-.589.608-.931,1.71-.931a3.159,3.159,0,0,1,2.318.836ZM75.6-11.761v2.413H73.853v2H75.6v4.047c0,2.337,1.33,3.5,3.363,3.42a5.178,5.178,0,0,0,1.919-.4l-.646-1.976a2.648,2.648,0,0,1-1.121.285A1.163,1.163,0,0,1,77.9-3.306V-7.353h2.6v-2H77.919v-2.66Z" transform="translate(400.911 581.233)"/></g></svg>