<svg xmlns="http://www.w3.org/2000/svg" width="142.147" height="161.568" viewBox="0 0 142.147 161.568"><defs><style>.a{fill:#2b2579;}.b{fill:#fbb03b;}.c{fill:#ccc;}</style></defs><g transform="translate(-412.786 -445.432)"><path class="a" d="M481.852,471.683,465.486,447.4a4.454,4.454,0,0,0-6.183-1.2l-24.286,16.366a4.454,4.454,0,0,0-1.2,6.183l16.367,24.286a4.454,4.454,0,0,0,6.183,1.2l24.286-16.366A4.454,4.454,0,0,0,481.852,471.683Zm-19.023,11.054-5.465-10.847,4.979.97,1.406-7.213a4.935,4.935,0,0,0-9.687-1.887L450.821,480.4l-4.642-.9,3.241-16.637a9.664,9.664,0,1,1,18.971,3.7l-1.4,7.212,4.98.971Z"/><path class="b" d="M462.044,493.339l-4.322,2.912a6.891,6.891,0,0,1-9.562-1.863l-14.283-21.2-1.528-1.091a2.146,2.146,0,0,0-3.383,1.538l-3.519,36.227a2.145,2.145,0,0,0,3.023,2.161L461.6,496.962A2.139,2.139,0,0,0,462.044,493.339Zm-24.722-12.354,4.551,13.3-2.426,1.1L432.38,483.2Zm3.921,20.867-1.93-4.244,4.3-1.954,1.93,4.245Z"/><path class="a" d="M450.677,504.6l-21.2,9.639a4.532,4.532,0,0,1-4.557-.442,4.535,4.535,0,0,1-1.9-4.169l.686-7.056a23,23,0,1,0,26.967,2.028Zm2.658,21.134H418.247v-7.221h35.088Z"/><path class="a" d="M480.812,498.472l.349-.187a22.309,22.309,0,0,1,2.676-1.21c.855-.308,1.706-.609,2.558-.887l2.547-.773c3.393-.992,6.815-1.724,10.239-2.447,3.428-.681,6.863-1.32,10.315-1.838,3.448-.559,6.915-.981,10.389-1.339,1.736-.185,3.479-.317,5.219-.478l5.231-.359,5.282-.234,5.216-.09,5.253.094,5.245.233,3.6.247v-2.419a41.137,41.137,0,0,0-1.792-12.036c-.868-.038-1.73-.078-2.607-.113-3.209-.113-6.433-.211-9.7-.12-3.267-.089-6.491.008-9.7.12-3.2.128-6.349.272-9.392.47s-5.981.438-8.75.739c-1.384.157-2.726.332-4,.562-.636.117-1.261.245-1.846.408a8.788,8.788,0,0,0-.839.267l-.334.159c-.125.083-.274.167-.376.248a13.563,13.563,0,0,0-2.327,2.412c-.679.862-1.295,1.713-1.853,2.529-1.115,1.633-2.019,3.11-2.747,4.336-1.45,2.454-2.234,3.887-2.234,3.887l.481-1.07c.321-.7.792-1.715,1.447-2.987s1.463-2.81,2.484-4.53c.513-.858,1.072-1.767,1.737-2.684a14.148,14.148,0,0,1,2.428-2.728c.133-.111.253-.183.381-.277.188-.113.325-.177.495-.266a9.726,9.726,0,0,1,.947-.346c.634-.2,1.279-.345,1.935-.487,1.312-.273,2.67-.487,4.066-.685,2.794-.392,5.746-.686,8.8-.931s6.217-.461,9.435-.592,6.508-.247,9.762-.173c3.254-.073,6.556.043,9.763.174.682.028,1.349.073,2.025.107-.148-.425-.306-.846-.468-1.265l-.109-.005c-3.717-.141-7.423-.266-11.211-.149-3.788-.113-7.493.009-11.211.151-3.7.17-7.344.309-10.86.567s-6.912.519-10.07.964c-.786.117-1.563.235-2.3.39a13.629,13.629,0,0,0-2.05.549c-.147.05-.237.109-.357.158l-.038.029-.114.085-.223.172a4.413,4.413,0,0,0-.728.672l-.322.329-.332.4c-.217.271-.445.524-.649.8-1.654,2.214-3.03,4.42-4.226,6.373s-2.2,3.7-3.014,5.141l-2.551,4.539s.656-1.782,1.976-4.828c.661-1.521,1.472-3.368,2.5-5.445a63.879,63.879,0,0,1,3.8-6.858c.2-.308.427-.608.642-.917l.332-.464.415-.488a7.051,7.051,0,0,1,.858-.894l.212-.186.106-.094.054-.048.026-.023c.048-.035-.07.046.114-.085a7.262,7.262,0,0,1,.646-.357,13.507,13.507,0,0,1,2.406-.8c.8-.209,1.6-.373,2.415-.536,3.256-.625,6.68-1.073,10.232-1.422s7.22-.675,10.958-.85c1.87-.1,3.754-.175,5.654-.228l2.861-.056c.928-.013,2.012.011,2.84.021l.292,0,.369-.009.734-.012h1.446l2.862.055c1.421.04,2.827.106,4.233.17A41.18,41.18,0,0,0,513.751,445.6h-26.9a114.118,114.118,0,0,0-18.759,1.312l15.775,23.408a6.888,6.888,0,0,1-1.862,9.561L464.1,491.952a4.564,4.564,0,0,1-1.491,7.225l-9.517,4.327a25.408,25.408,0,0,1-6.131,41.47c4.433,6.164,15.24,9.888,39.891,9.888h26.9A41.179,41.179,0,0,0,554.76,517.37c-.154-.019-.306-.038-.464-.052-.886-.095-1.9-.136-2.945-.2l-3.313-.189c-1.148-.066-2.337-.061-3.544-.095s-2.434-.051-3.661-.077c-1.227.026-2.454.05-3.663.077s-2.42.029-3.564.1l-3.3.189c-1.049.061-2.04.1-2.953.2-.229.021-.453.036-.67.072a1.607,1.607,0,0,1-.643.026l-1.211-.161c-.768-.1-1.423-.2-1.959-.24-1.086-.115-1.752-.2-1.752-.2s.556-.27,1.606-.707c.268-.106.561-.225.883-.353s.662-.216,1.031-.338l1.18-.376a1.637,1.637,0,0,1,.65-.093c.224,0,.452-.031.686-.052.931-.1,1.946-.141,3.017-.2s2.2-.124,3.372-.191,2.358-.062,3.577-.1,2.469-.053,3.712-.078c1.245.025,2.489.052,3.715.078s2.432.029,3.6.1l3.359.189c1.069.065,2.069.1,3.027.206.126.012.248.018.371.026.013-.414.032-.827.032-1.245V512.8c-.207-.034-.42-.051-.637-.07-.886-.1-1.9-.138-2.945-.2l-3.313-.189c-1.148-.068-2.337-.061-3.544-.1s-2.434-.05-3.661-.077c-1.227.027-2.454.052-3.663.077s-2.42.03-3.564.1l-3.3.189c-1.049.063-2.04.1-2.953.2-.229.023-.453.037-.67.072a1.606,1.606,0,0,1-.643.027c-.426-.057-.831-.111-1.211-.159-.768-.1-1.423-.2-1.959-.243-1.086-.116-1.752-.2-1.752-.2s.556-.268,1.606-.7c.268-.107.561-.226.883-.354s.662-.217,1.031-.337l1.18-.378a1.712,1.712,0,0,1,.65-.092c.224,0,.452-.03.686-.05.931-.1,1.946-.141,3.017-.206s2.2-.125,3.372-.19,2.358-.063,3.577-.1l3.712-.077,3.715.077c1.224.037,2.432.03,3.6.1l3.359.191c1.069.064,2.069.1,3.027.206.137.013.269.019.4.028v-2.127c-.207-.035-.42-.052-.637-.071-.886-.1-1.9-.137-2.945-.2l-3.313-.188c-1.148-.068-2.337-.062-3.544-.1l-3.661-.078-3.663.078c-1.213.034-2.42.029-3.564.1l-3.3.188c-1.049.063-2.04.1-2.953.2-.229.023-.453.036-.67.071a1.605,1.605,0,0,1-.643.027c-.426-.057-.831-.111-1.211-.159-.768-.1-1.423-.2-1.959-.243-1.086-.115-1.752-.2-1.752-.2s.556-.268,1.606-.705c.268-.107.561-.226.883-.354s.662-.217,1.031-.337l1.18-.378a1.693,1.693,0,0,1,.65-.092c.224,0,.452-.03.686-.051.931-.1,1.946-.14,3.017-.2s2.2-.125,3.372-.189,2.358-.064,3.577-.1l3.712-.077,3.715.077c1.224.036,2.432.03,3.6.1s2.291.129,3.359.191,2.069.1,3.027.2c.137.013.269.019.4.029v-2.128c-.207-.034-.42-.052-.637-.072-.886-.1-1.9-.136-2.945-.2l-3.313-.188c-1.148-.067-2.337-.062-3.544-.1l-3.661-.076-3.663.076c-1.213.037-2.42.03-3.564.1l-3.3.189c-1.049.061-2.04.1-2.953.2-.229.022-.453.036-.67.072a1.624,1.624,0,0,1-.643.026l-1.211-.16c-.768-.1-1.423-.2-1.959-.24-1.086-.116-1.752-.2-1.752-.2s.556-.269,1.606-.707c.268-.106.561-.225.883-.353s.662-.216,1.031-.338.764-.244,1.18-.377a1.673,1.673,0,0,1,.65-.091c.224-.005.452-.032.686-.051.931-.1,1.946-.141,3.017-.206l3.372-.191c1.171-.068,2.358-.062,3.577-.1s2.469-.053,3.712-.078c1.245.025,2.489.052,3.715.078s2.432.029,3.6.1,2.291.129,3.359.189,2.069.105,3.027.208c.137.013.269.018.4.028v-6.417l-3.89-.231-5.105-.179-5.1-.043-5.141.047-5.069.178-5.1.3c-1.7.142-3.4.254-5.1.419-3.4.334-6.792.7-10.179,1.123-3.392.411-6.765.941-10.128,1.51-3.354.6-6.7,1.265-9.985,2.03l-2.442.617c-.8.222-1.591.461-2.371.7a19,19,0,0,0-2.087.812l-.231.1-.02.008-.109.074a2.8,2.8,0,0,0-.236.168.362.362,0,0,1-.064.071,2.263,2.263,0,0,0-.249.255,3.838,3.838,0,0,0-.3.37,17,17,0,0,0-2.012,4.118c-.55,1.539-1.044,3.14-1.462,4.771a95.189,95.189,0,0,0-1.982,9.972l-.2,1.341-1.252-.033a1.833,1.833,0,0,0-1,.215,2.359,2.359,0,0,0-.842.887,6.575,6.575,0,0,0-.36.675l-.3.774-.249.824-.2.861c-.114.586-.236,1.174-.312,1.78-.092.6-.161,1.209-.22,1.822-.126,1.221-.194,2.459-.269,3.7l-.08,1.873-.035,1.856c0,1.24.03,2.476.142,3.7.069.609.143,1.217.266,1.814.063.3.151.586.226.883a7.184,7.184,0,0,0,.341.832,3.115,3.115,0,0,0,1.146,1.34,3.752,3.752,0,0,0,1.749.529,3.827,3.827,0,0,1-1.869-.314,3.458,3.458,0,0,1-1.432-1.32,7.412,7.412,0,0,1-.476-.858c-.117-.3-.247-.6-.349-.908a18.648,18.648,0,0,1-.5-1.861c-.243-1.256-.4-2.518-.528-3.782l-.156-1.9-.108-1.887c-.06-1.265-.088-2.535-.064-3.814.01-.639.028-1.279.073-1.926.027-.644.1-1.293.177-1.947l.147-.985.212-1c.094-.336.189-.672.3-1.011a8.945,8.945,0,0,1,.437-1.02,5.047,5.047,0,0,1,1.589-1.928,4.08,4.08,0,0,1,1.2-.595c.284-3.151.688-6.252,1.279-9.379a51.086,51.086,0,0,1,1.251-5.221,20.787,20.787,0,0,1,2.315-5.257,7.918,7.918,0,0,1,.482-.663,6.232,6.232,0,0,1,.626-.7l.408-.372c.136-.118.186-.144.284-.221l.129-.1.065-.048c.071-.047-.113.07.168-.111Zm5,17.485c.076-1.406.239-3.4.56-5.813a23.986,23.986,0,0,1,.812-3.938l.2-.556a5.363,5.363,0,0,1,.306-.6l.088-.152c-.1.105.139-.164.12-.14l.011-.011.023-.024.047-.048a1.315,1.315,0,0,1,.272-.234,4.767,4.767,0,0,1,.45-.278l.313-.136a13.2,13.2,0,0,1,2.351-.658,64.79,64.79,0,0,1,9.545-.907c1.621-.06,3.242-.118,4.846-.148a39.409,39.409,0,0,1,4.741.144,23.017,23.017,0,0,1,2.32.361c.385.081.786.182,1.2.3.232.077.42.138.678.245l.4.182a2.209,2.209,0,0,1,.265.15c.1.065.2.133.293.2l.14.108c.38.368.11.11.2.2l.01.013.019.025.078.1.154.2a2.941,2.941,0,0,1,.217.337l.227.4c.066.128.15.286.19.39l.1.29c.066.191.13.378.194.568a17,17,0,0,1,.408,2.028,27.45,27.45,0,0,1,.223,3.41c0,1.005-.04,1.877-.1,2.6a21.118,21.118,0,0,1-.287,2.254l-.4.033s-.3-.773-.75-2.113c-.222-.664-.49-1.471-.8-2.4s-.638-1.944-1.04-3c-.206-.527-.416-1.054-.657-1.549l-.183-.334-.09-.168c-.027-.046-.035-.027-.048-.044a.077.077,0,0,1-.022-.033c-.014-.02.029-.005-.058-.086l-.007-.006a.58.58,0,0,1-.06-.012c-.066-.017-.221-.037-.324-.067-.274-.052-.569-.1-.894-.145-.647-.072-1.331-.182-2.048-.246-2.852-.336-6-.809-9.145-.952-1.574-.078-3.149-.123-4.694-.127s-3.061.028-4.485.15a11.615,11.615,0,0,0-1.942.317l-.191.055s-.006,0-.019-.018c.006-.048-.081.029-.149.086l-.03.025-.006.01c-.063.109-.142.176-.21.31l-.2.4a22.633,22.633,0,0,0-1.178,3.527c-.605,2.29-.977,4.253-1.264,5.618-.261,1.372-.411,2.157-.411,2.157l-.4-.043S485.745,517.359,485.811,515.957Zm-6.424-25.293c-.035.048-.131.065-.141.1a.229.229,0,0,1-.064.037.333.333,0,0,1-.049.071c-.051.024-.068.15-.117.222-.034.1-.061.232-.094.354-.091.536-.164,1.259-.23,1.861-.054.649-.119,1.175-.127,1.686a3.117,3.117,0,0,0,.138,1.145,1.134,1.134,0,0,0,.635.572c.28.111.53.207.7.255l.265.079v.162l-.271,0a5.88,5.88,0,0,1-.769-.059,1.756,1.756,0,0,1-1.088-.544,2.838,2.838,0,0,1-.573-1.456,12.527,12.527,0,0,1-.134-1.82,19.582,19.582,0,0,1,.04-2.037,2.452,2.452,0,0,1,1.04-1.94,5.549,5.549,0,0,1,2.178-.675,22.146,22.146,0,0,1,2.239-.174c.738-.027,1.466-.04,2.167-.039h1.033l1,.082a7.707,7.707,0,0,1,1.8.355,4.991,4.991,0,0,1,.746.336l.342.168c.1.07.193.151.284.222a3.422,3.422,0,0,1,.494.425c.129.155.249.3.354.429a3.511,3.511,0,0,1,.355.7,1.345,1.345,0,0,1,.079.264l-.159.036a1.054,1.054,0,0,0-.148-.228,4.6,4.6,0,0,0-.49-.518,4.049,4.049,0,0,0-.907-.543c-.09-.041-.176-.09-.272-.128s-.213-.048-.325-.075a5.34,5.34,0,0,0-.67-.16,9.808,9.808,0,0,0-1.6-.059l-.879.038c-.315.044-.675.054-1.021.084-.709.039-1.393.137-2.107.169-.706.048-1.425.108-2.077.22A4.492,4.492,0,0,0,479.387,490.664Z"/><path class="a" d="M8.688-12.176a4.381,4.381,0,0,1,4.453,4.484A4.352,4.352,0,0,1,8.688-3.176a4.314,4.314,0,0,1-4.36-4.515A4.235,4.235,0,0,1,8.688-12.176Zm4.7-9.591v8.5c-.9-1.588-3.425-2.46-5.045-2.46-4.484,0-7.816,2.74-7.816,8.034C.529-2.647,3.924.343,8.439.343a5.587,5.587,0,0,0,4.951-2.46L13.64,0h3.55V-21.767Zm7.1,6.415V0h3.8V-8.1a3.542,3.542,0,0,1,3.83-3.893,3.8,3.8,0,0,1,2.74,1l1.713-3.3a5.825,5.825,0,0,0-3.955-1.464,4.525,4.525,0,0,0-4.329,2.18l-.28-1.775ZM37.8-15.415V0h-3.8V-15.415Zm-4.142-4.266a2.242,2.242,0,0,1,4.484,0A2.242,2.242,0,0,1,33.663-19.681ZM53-15.384l-2.118,5.138L48.549-3.83l-2.367-6.477-2.118-5.076H39.923L46.493.062H50.6l6.54-15.446ZM74.209-6.322c.592-6.322-2.616-9.5-7.754-9.5-4.983,0-8.159,3.363-8.159,8.034C58.3-2.865,61.441.4,66.735.4a9.43,9.43,0,0,0,6.6-2.491l-2.429-2.4A6.336,6.336,0,0,1,66.8-3.052c-2.678,0-4.329-1.37-4.578-3.27ZM62.282-9.467a4.136,4.136,0,0,1,4.3-2.99c2.18,0,3.737,1,3.986,2.99Zm15.757-9.809v3.955H75.174v3.27h2.865v6.633c0,3.83,2.18,5.73,5.512,5.605A8.487,8.487,0,0,0,86.7-.467L85.637-3.706a4.341,4.341,0,0,1-1.837.467,1.906,1.906,0,0,1-1.993-2.18v-6.633h4.266v-3.27H81.838v-4.36Zm26.1,12.955c.592-6.322-2.616-9.5-7.754-9.5-4.983,0-8.159,3.363-8.159,8.034,0,4.92,3.145,8.19,8.439,8.19a9.43,9.43,0,0,0,6.6-2.491l-2.429-2.4a6.336,6.336,0,0,1-4.111,1.432c-2.678,0-4.329-1.37-4.578-3.27ZM92.208-9.467a4.136,4.136,0,0,1,4.3-2.99c2.18,0,3.737,1,3.986,2.99Zm27-4.3a8.245,8.245,0,0,0-5.979-2.024c-2.8,0-6.477,1.246-6.477,4.8,0,3.488,3.457,4.547,6.353,4.765,2.18.125,3.052.561,3.052,1.619,0,1.121-1.339,1.868-2.772,1.837A8.424,8.424,0,0,1,108.09-4.92l-1.868,2.709a8.983,8.983,0,0,0,7.1,2.74c4.391,0,6.6-2.336,6.6-5.045,0-4.079-3.675-4.733-6.571-4.92-1.962-.125-2.865-.685-2.865-1.682,0-.965,1-1.526,2.8-1.526a5.177,5.177,0,0,1,3.8,1.37Zm4.7-5.512v3.955h-2.865v3.27h2.865v6.633c0,3.83,2.18,5.73,5.512,5.605a8.487,8.487,0,0,0,3.145-.654l-1.059-3.239a4.341,4.341,0,0,1-1.837.467,1.906,1.906,0,0,1-1.993-2.18v-6.633h4.266v-3.27h-4.235v-4.36Z" transform="translate(418.307 591.074)"/><path class="c" d="M2.5-3.51A1.263,1.263,0,0,1,3.788-2.217,1.254,1.254,0,0,1,2.5-.916a1.244,1.244,0,0,1-1.257-1.3A1.221,1.221,0,0,1,2.5-3.51ZM3.86-6.275v2.451a1.832,1.832,0,0,0-1.454-.709A2.119,2.119,0,0,0,.153-2.217,2.172,2.172,0,0,0,2.433.1,1.611,1.611,0,0,0,3.86-.61L3.932,0H4.955V-6.275ZM5.907-4.426V0H7V-2.334a1.021,1.021,0,0,1,1.1-1.122,1.094,1.094,0,0,1,.79.287L9.39-4.12a1.679,1.679,0,0,0-1.14-.422A1.3,1.3,0,0,0,7-3.914l-.081-.512ZM10.9-4.444V0H9.8V-4.444ZM9.7-5.673a.646.646,0,0,1,1.293,0A.646.646,0,0,1,9.7-5.673Zm5.575,1.239-.61,1.481L14-1.1l-.682-1.867L12.7-4.435H11.509L13.4.018h1.185l1.885-4.453ZM18.1-4.444V0H17V-4.444ZM16.9-5.673a.646.646,0,0,1,1.293,0A.646.646,0,0,1,16.9-5.673ZM23.439,0V-2.325A1.926,1.926,0,0,0,21.563-4.5a2,2,0,0,0-1.454.664l-.072-.6h-.978V0h1.086V-2.262A1.164,1.164,0,0,1,21.276-3.5a1.056,1.056,0,0,1,1.068,1.185V0Zm3.977-4.318A1.763,1.763,0,0,0,26.4-4.569a2.158,2.158,0,0,0-2.244,2.244A2.07,2.07,0,0,0,26.4-.1c.548,0,1.122.278,1.122.889s-.494.952-1.122.952A1.044,1.044,0,0,1,25.243.79H24.157A2.033,2.033,0,0,0,26.4,2.765,1.994,1.994,0,0,0,28.619.79,1.489,1.489,0,0,0,27.7-.673a1.756,1.756,0,0,0,.934-1.652,1.886,1.886,0,0,0-.467-1.311l.494-.628-.808-.61ZM26.4-3.573A1.161,1.161,0,0,1,27.55-2.325,1.145,1.145,0,0,1,26.4-1.1a1.142,1.142,0,0,1-1.158-1.23A1.157,1.157,0,0,1,26.4-3.573Zm5.2-1.984v1.14h-.826v.943H31.6v1.912A1.43,1.43,0,0,0,33.188.054a2.446,2.446,0,0,0,.907-.189l-.305-.934a1.251,1.251,0,0,1-.53.135.55.55,0,0,1-.575-.628V-3.474h1.23v-.943H32.694V-5.673Zm7.523,3.734c.171-1.822-.754-2.738-2.235-2.738a2.215,2.215,0,0,0-2.352,2.316A2.231,2.231,0,0,0,36.967.117,2.718,2.718,0,0,0,38.87-.6l-.7-.691a1.826,1.826,0,0,1-1.185.413,1.178,1.178,0,0,1-1.32-.943Zm-3.438-.907a1.192,1.192,0,0,1,1.239-.862,1.014,1.014,0,0,1,1.149.862Zm7.783-1.239a2.377,2.377,0,0,0-1.724-.584c-.808,0-1.867.359-1.867,1.382,0,1.005,1,1.311,1.831,1.373.628.036.88.162.88.467,0,.323-.386.539-.8.53a2.428,2.428,0,0,1-1.526-.619l-.539.781a2.59,2.59,0,0,0,2.047.79c1.266,0,1.9-.673,1.9-1.454,0-1.176-1.059-1.365-1.894-1.418-.566-.036-.826-.2-.826-.485s.287-.44.808-.44a1.492,1.492,0,0,1,1.1.395Zm1.356-1.589v1.14H44v.943h.826v1.912A1.43,1.43,0,0,0,46.411.054a2.446,2.446,0,0,0,.907-.189l-.305-.934a1.251,1.251,0,0,1-.53.135.55.55,0,0,1-.575-.628V-3.474h1.23v-.943H45.917V-5.673ZM53.808,0V-2.37a1.007,1.007,0,0,1,.961-1.1c.592,0,.835.494.835,1.077V0h1.1V-2.388c0-1.329-.619-2.1-1.876-2.1a1.6,1.6,0,0,0-1.481.808,1.326,1.326,0,0,0-1.311-.826,1.282,1.282,0,0,0-1.167.61l-.081-.539H49.769V0h1.1V-2.37a1.01,1.01,0,0,1,.943-1.113c.6,0,.907.53.907,1.113V0Zm7.478-3.815a1.625,1.625,0,0,0-1.409-.718A2.155,2.155,0,0,0,57.57-2.217,2.141,2.141,0,0,0,59.85.135a1.682,1.682,0,0,0,1.436-.781L61.34,0h1.032V-4.426h-1.05Zm-1.311.26a1.343,1.343,0,0,1,0,2.684,1.268,1.268,0,0,1-1.311-1.347A1.26,1.26,0,0,1,59.975-3.555Zm5.467.045a1.263,1.263,0,0,1,1.284,1.293,1.254,1.254,0,0,1-1.284,1.3,1.244,1.244,0,0,1-1.257-1.3A1.221,1.221,0,0,1,65.442-3.51ZM66.8-6.275v2.451a1.832,1.832,0,0,0-1.454-.709A2.119,2.119,0,0,0,63.09-2.217,2.172,2.172,0,0,0,65.371.1,1.611,1.611,0,0,0,66.8-.61L66.87,0h1.023V-6.275Zm6.535,4.453C73.5-3.645,72.579-4.56,71.1-4.56a2.215,2.215,0,0,0-2.352,2.316A2.231,2.231,0,0,0,71.179.117a2.718,2.718,0,0,0,1.9-.718l-.7-.691A1.826,1.826,0,0,1,71.2-.88a1.178,1.178,0,0,1-1.32-.943ZM69.9-2.729a1.192,1.192,0,0,1,1.239-.862,1.014,1.014,0,0,1,1.149.862Zm10.485.907c.171-1.822-.754-2.738-2.235-2.738a2.215,2.215,0,0,0-2.352,2.316A2.231,2.231,0,0,0,78.226.117a2.718,2.718,0,0,0,1.9-.718l-.7-.691a1.826,1.826,0,0,1-1.185.413,1.178,1.178,0,0,1-1.32-.943Zm-3.438-.907a1.192,1.192,0,0,1,1.239-.862,1.014,1.014,0,0,1,1.149.862ZM84.7-3.815a1.625,1.625,0,0,0-1.409-.718,2.155,2.155,0,0,0-2.307,2.316A2.141,2.141,0,0,0,83.262.135,1.682,1.682,0,0,0,84.7-.646L84.752,0h1.032V-4.426h-1.05Zm-1.311.26a1.343,1.343,0,0,1,0,2.684,1.268,1.268,0,0,1-1.311-1.347A1.26,1.26,0,0,1,83.387-3.555Zm6.823-.413a2.377,2.377,0,0,0-1.724-.584c-.808,0-1.867.359-1.867,1.382,0,1.005,1,1.311,1.831,1.373.628.036.88.162.88.467,0,.323-.386.539-.8.53a2.428,2.428,0,0,1-1.526-.619l-.539.781a2.59,2.59,0,0,0,2.047.79c1.266,0,1.9-.673,1.9-1.454,0-1.176-1.059-1.365-1.894-1.418-.566-.036-.826-.2-.826-.485s.287-.44.808-.44a1.492,1.492,0,0,1,1.1.395Zm4.156-.458-.808,1.939L93.1-1.266l-.422-1.248-.673-1.912H90.731L92.5-.072l-.826,1.921h1.2l2.7-6.275Z" transform="translate(437.561 604.234)"/></g></svg>