<svg xmlns="http://www.w3.org/2000/svg" width="127.159" height="94.761" viewBox="0 0 127.159 94.761"><defs><style>.a{mix-blend-mode:multiply;}.a,.m,.r,.t,.u,.x{isolation:isolate;}.b{fill:#ebebeb;}.c{fill:#e0e0e0;}.d{fill:#e6e6e6;}.e{fill:#f0f0f0;}.f{fill:#e9e9e9;}.g{fill:#f4f4f4;}.aa,.h,.k,.n,.p,.q,.u,.w{fill:#fff;}.i{fill:#cbcbcb;}.j{fill:#2e353a;}.k,.m{opacity:0.2;}.l{fill:#407bff;}.n,.o,.r{opacity:0.4;}.p{font-size:5px;font-family:Cabin-Regular, Cabin;}.q{opacity:0.7;}.aa,.s,.t{opacity:0.5;}.u{opacity:0.6;}.v{fill:#b97964;}.w{opacity:0.8;}.x{opacity:0.1;}.ab,.y{fill:none;}.y{stroke:#2e353a;stroke-miterlimit:10;stroke-width:2px;}.z{fill:#a24e3f;}.ab{stroke:#fff;stroke-linecap:round;stroke-linejoin:round;}</style></defs><g transform="translate(0 -54.953)"><g class="a" transform="translate(0 54.953)"><rect class="b" width="127.159" height="0.064" transform="translate(0 83.275)"/><rect class="b" width="8.424" height="0.064" transform="translate(105.995 87.369)"/><rect class="b" width="2.211" height="0.064" transform="translate(82.025 88.059)"/><rect class="b" width="4.881" height="0.064" transform="translate(100.859 85.007)"/><rect class="b" width="10.985" height="0.064" transform="translate(13.341 85.435)"/><rect class="b" width="1.611" height="0.064" transform="translate(26.59 85.435)"/><rect class="b" width="23.823" height="0.064" transform="translate(33.436 86.508)"/><path class="b" d="M88.767,126.886H39.659a1.453,1.453,0,0,1-1.452-1.452V56.4a1.453,1.453,0,0,1,1.452-1.451H88.767A1.453,1.453,0,0,1,90.219,56.4v69.03A1.453,1.453,0,0,1,88.767,126.886ZM39.659,55.017A1.389,1.389,0,0,0,38.271,56.4v69.03a1.389,1.389,0,0,0,1.388,1.388H88.767a1.389,1.389,0,0,0,1.388-1.388V56.4a1.389,1.389,0,0,0-1.388-1.388Z" transform="translate(-28.49 -54.953)"/><path class="b" d="M305.065,126.886H255.956a1.453,1.453,0,0,1-1.451-1.452V56.4a1.453,1.453,0,0,1,1.451-1.451h49.108a1.453,1.453,0,0,1,1.452,1.451v69.03A1.453,1.453,0,0,1,305.065,126.886Zm-49.108-71.87a1.389,1.389,0,0,0-1.388,1.388v69.03a1.389,1.389,0,0,0,1.388,1.388h49.108a1.39,1.39,0,0,0,1.388-1.388V56.4a1.39,1.39,0,0,0-1.388-1.388Z" transform="translate(-189.78 -54.953)"/><g transform="translate(16.033 9.438)"><g transform="translate(79.837 38.236)"><path class="c" d="M385.746,269.216a8.389,8.389,0,0,1,.278-7.6c2.233-3.771,2.88-4.659,1.457-5.431s-2.077,3.016-2.077,3.016a7.7,7.7,0,0,1-.209-5.334c.991-2.728,1.612-7.171.259-7.647s-.258,5.543-1.433,7.594a16.2,16.2,0,0,1-1.148-4.475c-.162-2.191.091-5.689-.977-6.587s-1.753-.276-.7,4.559a45.541,45.541,0,0,1,1.042,8.765s-2.319-6.342-3.876-6.528-1.555,1.869-.222,3.651,3.9,4.973,4.323,6.615c0,0-2.546-4.773-4.836-3.31s1.993,4.346,3.9,5.387,3.235,7.572,3.235,7.572Z" transform="translate(-376.969 -242.41)"/><path class="d" d="M397.641,275.212a8.388,8.388,0,0,0-.38-7.591c-2.283-3.74-2.942-4.62-1.529-5.411s2.117,2.988,2.117,2.988a7.7,7.7,0,0,0,.138-5.337c-1.027-2.714-1.708-7.148-.361-7.643s.332,5.539,1.534,7.574a16.194,16.194,0,0,0,1.089-4.49c.133-2.193-.167-5.688.889-6.6s1.749-.3.764,4.549a45.546,45.546,0,0,0-.925,8.779s2.234-6.373,3.788-6.579,1.579,1.848.271,3.647-3.835,5.025-4.234,6.673c0,0,2.482-4.807,4.791-3.375s-1.935,4.372-3.83,5.439-3.133,7.615-3.133,7.615Z" transform="translate(-390.407 -246.838)"/><g transform="translate(0.29 25.629)"><path class="e" d="M393.832,343.187H378.11l1.272,10.091h13.177Z" transform="translate(-378.11 -343.187)"/></g></g><g transform="translate(39.165)"><rect class="f" width="28.64" height="31.692"/><rect class="g" width="26.195" height="29.247" transform="translate(1.26 1.255)"/><path class="h" d="M229.4,97,222,124.726v-15.01L225.388,97Z" transform="translate(-220.74 -95.745)"/><path class="h" d="M236.91,97,229.1,126.247H227.63L235.438,97Z" transform="translate(-224.938 -95.745)"/><path class="h" d="M308.364,128.36v15.012l-1.658,6.259H302.69Z" transform="translate(-280.909 -119.129)"/><rect class="f" width="1.017" height="31.692" transform="translate(13.811)"/><rect class="f" width="27.594" height="1.017" transform="translate(0.497 6.431)"/></g><rect class="f" width="28.64" height="31.692"/><rect class="g" width="26.195" height="29.247" transform="translate(1.26 1.255)"/><path class="h" d="M75.4,97,68,124.726v-15.01L71.388,97Z" transform="translate(-66.74 -95.745)"/><path class="h" d="M82.91,97,75.1,126.247H73.63L81.438,97Z" transform="translate(-70.938 -95.745)"/><path class="h" d="M154.364,128.36v15.012l-1.658,6.259H148.69Z" transform="translate(-126.909 -119.129)"/><rect class="f" width="1.017" height="31.692" transform="translate(13.811)"/><rect class="f" width="27.594" height="1.017" transform="translate(0.497 6.431)"/></g></g><g class="a" transform="translate(14.27 143.955)"><ellipse class="i" cx="49.31" cy="2.88" rx="49.31" ry="2.88"/></g><g transform="translate(56.346 68.957)"><g transform="translate(0 0)"><path class="j" d="M262.275,187.081H223.24a1.659,1.659,0,0,1-1.677-1.82l4.921-63.133a2,2,0,0,1,1.961-1.82h39.034a1.659,1.659,0,0,1,1.677,1.82l-4.921,63.133A2,2,0,0,1,262.275,187.081Z" transform="translate(-221.558 -117.691)"/><path class="k" d="M262.275,187.081H223.24a1.659,1.659,0,0,1-1.677-1.82l4.921-63.133a2,2,0,0,1,1.961-1.82h39.034a1.659,1.659,0,0,1,1.677,1.82l-4.921,63.133A2,2,0,0,1,262.275,187.081Z" transform="translate(-221.558 -117.691)"/><path class="l" d="M304.335,121.987H285.642a.58.58,0,0,1-.586-.636l.288-3.691a.7.7,0,0,1,.685-.636h18.692a.58.58,0,0,1,.586.636l-.288,3.691A.7.7,0,0,1,304.335,121.987Z" transform="translate(-268.906 -115.243)"/><path class="m" d="M304.335,121.987H285.642a.58.58,0,0,1-.586-.636l.288-3.691a.7.7,0,0,1,.685-.636h18.692a.58.58,0,0,1,.586.636l-.288,3.691A.7.7,0,0,1,304.335,121.987Z" transform="translate(-268.906 -115.243)"/><path class="l" d="M322.462,112.946h-2.925l.114-1.464a1.609,1.609,0,0,1,1.577-1.463h0a1.333,1.333,0,0,1,1.348,1.463Z" transform="translate(-294.619 -110.019)"/><path class="n" d="M322.462,112.946h-2.925l.114-1.464a1.609,1.609,0,0,1,1.577-1.463h0a1.333,1.333,0,0,1,1.348,1.463Z" transform="translate(-294.619 -110.019)"/><path class="h" d="M269.427,192.172H231.855l4.794-61.5h37.573Z" transform="translate(-229.236 -125.417)"/><g transform="translate(18.558 3.518)"><path class="l" d="M307.923,128.806H295.915a1.368,1.368,0,0,1-1.381-1.5l.152-1.954a1.651,1.651,0,0,1,1.615-1.5h12.008a1.368,1.368,0,0,1,1.381,1.5l-.152,1.954A1.651,1.651,0,0,1,307.923,128.806Zm-11.662-4.443a1.09,1.09,0,0,0-1.067.99l-.152,1.954a.9.9,0,0,0,.912.99h12.008a1.09,1.09,0,0,0,1.067-.99l.152-1.954a.9.9,0,0,0-.913-.99Z" transform="translate(-294.529 -123.854)"/><g class="o"><path class="h" d="M307.923,128.806H295.915a1.368,1.368,0,0,1-1.381-1.5l.152-1.954a1.651,1.651,0,0,1,1.615-1.5h12.008a1.368,1.368,0,0,1,1.381,1.5l-.152,1.954A1.651,1.651,0,0,1,307.923,128.806Zm-11.662-4.443a1.09,1.09,0,0,0-1.067.99l-.152,1.954a.9.9,0,0,0,.912.99h12.008a1.09,1.09,0,0,0,1.067-.99l.152-1.954a.9.9,0,0,0-.913-.99Z" transform="translate(-294.529 -123.854)"/></g></g><path class="l" d="M313.985,123.246H303.812a.319.319,0,0,1-.322-.35l.079-1.018a.385.385,0,0,1,.377-.35h10.173a.319.319,0,0,1,.322.35l-.079,1.018A.385.385,0,0,1,313.985,123.246Z" transform="translate(-282.652 -118.601)"/><g transform="translate(6.177 11.129)"><path class="l" d="M295.114,156.887H266.63l.242-3.109h28.484Z" transform="translate(-261.344 -153.777)"/><g transform="translate(2.739 6.633)"><path class="l" d="M277.706,180.66H258.744l.063-.8h18.962Z" transform="translate(-258.203 -179.857)"/><path class="l" d="M277,189.756H258.035l.063-.8H277.06Z" transform="translate(-257.675 -186.64)"/><path class="l" d="M276.288,198.852H257.326l.063-.8h18.962Z" transform="translate(-257.146 -193.423)"/><path class="l" d="M275.579,207.949H256.617l.063-.8h18.962Z" transform="translate(-256.617 -200.206)"/></g><g transform="translate(26.408 6.309)"><path class="l" d="M357.419,187.6h-7.736l.6-7.743h7.736Z" transform="translate(-349.682 -179.534)"/><text class="p" transform="matrix(0.997, 0.077, -0.077, 0.997, 2.595, 4.985)"><tspan x="0" y="0">?</tspan></text></g><g transform="translate(1.826 18.348)"><path class="l" d="M274.116,226.725H255.154l.063-.8h18.962Z" transform="translate(-254.613 -225.923)"/><path class="l" d="M273.407,235.821H254.445l.063-.8h18.962Z" transform="translate(-254.084 -232.705)"/><path class="l" d="M272.7,244.918H253.736l.063-.8H272.76Z" transform="translate(-253.555 -239.488)"/><path class="l" d="M271.989,254.014H253.027l.063-.8h18.962Z" transform="translate(-253.027 -246.271)"/></g><g transform="translate(25.494 18.025)"><path class="l" d="M353.828,233.665h-7.736l.6-7.743h7.736Z" transform="translate(-346.091 -225.599)"/><text class="p" transform="matrix(0.997, 0.077, -0.077, 0.997, 2.595, 4.985)"><tspan x="0" y="0">?</tspan></text></g><g transform="translate(0.913 30.063)"><path class="l" d="M270.525,272.79H251.563l.063-.8h18.962Z" transform="translate(-251.022 -271.988)"/><path class="l" d="M269.816,281.887H250.854l.063-.8h18.962Z" transform="translate(-250.493 -278.771)"/><path class="l" d="M269.107,290.983H250.145l.063-.8H269.17Z" transform="translate(-249.965 -285.554)"/><path class="l" d="M268.4,300.079H249.436l.063-.8h18.962Z" transform="translate(-249.436 -292.336)"/></g><g transform="translate(24.581 29.74)"><path class="l" d="M350.237,279.731H342.5l.6-7.743h7.736Z" transform="translate(-342.501 -271.665)"/><text class="p" transform="matrix(0.997, 0.077, -0.077, 0.997, 2.595, 4.985)"><tspan x="0" y="0">?</tspan></text></g><g transform="translate(0 41.778)"><path class="l" d="M266.934,318.856H247.972l.063-.8H267Z" transform="translate(-247.431 -318.053)"/><path class="l" d="M266.225,327.952H247.263l.063-.8h18.962Z" transform="translate(-246.903 -324.836)"/><path class="l" d="M265.516,337.048H246.554l.063-.8h18.962Z" transform="translate(-246.374 -331.619)"/><path class="l" d="M264.807,346.144H245.845l.063-.8H264.87Z" transform="translate(-245.845 -338.402)"/></g><g transform="translate(23.668 41.455)"><path class="l" d="M346.647,325.8H338.91l.6-7.743h7.736Z" transform="translate(-338.91 -317.73)"/><text class="p" transform="matrix(0.997, 0.077, -0.077, 0.997, 2.595, 4.985)"><tspan x="0" y="0">?</tspan></text></g><path class="q" d="M295.114,156.887H266.63l.242-3.109h28.484Z" transform="translate(-261.344 -153.777)"/><g transform="translate(2.739 6.633)"><path class="q" d="M277.706,180.66H258.744l.063-.8h18.962Z" transform="translate(-258.203 -179.857)"/><path class="q" d="M277,189.756H258.035l.063-.8H277.06Z" transform="translate(-257.675 -186.64)"/><path class="q" d="M276.288,198.852H257.326l.063-.8h18.962Z" transform="translate(-257.146 -193.423)"/><path class="q" d="M275.579,207.949H256.617l.063-.8h18.962Z" transform="translate(-256.617 -200.206)"/></g><path class="q" d="M357.419,187.6h-7.736l.6-7.743h7.736Z" transform="translate(-323.275 -173.225)"/><g transform="translate(1.826 18.348)"><path class="q" d="M274.116,226.725H255.154l.063-.8h18.962Z" transform="translate(-254.613 -225.923)"/><path class="q" d="M273.407,235.821H254.445l.063-.8h18.962Z" transform="translate(-254.084 -232.705)"/><path class="q" d="M272.7,244.918H253.736l.063-.8H272.76Z" transform="translate(-253.555 -239.488)"/><path class="q" d="M271.989,254.014H253.027l.063-.8h18.962Z" transform="translate(-253.027 -246.271)"/></g><path class="q" d="M353.828,233.665h-7.736l.6-7.743h7.736Z" transform="translate(-320.597 -207.575)"/><g transform="translate(0.913 30.063)"><path class="q" d="M270.525,272.79H251.563l.063-.8h18.962Z" transform="translate(-251.022 -271.988)"/><path class="q" d="M269.816,281.887H250.854l.063-.8h18.962Z" transform="translate(-250.493 -278.771)"/><path class="q" d="M269.107,290.983H250.145l.063-.8H269.17Z" transform="translate(-249.965 -285.554)"/><path class="q" d="M268.4,300.079H249.436l.063-.8h18.962Z" transform="translate(-249.436 -292.336)"/></g><path class="q" d="M350.237,279.731H342.5l.6-7.743h7.736Z" transform="translate(-317.919 -241.925)"/><g transform="translate(0 41.778)"><path class="q" d="M266.934,318.856H247.972l.063-.8H267Z" transform="translate(-247.431 -318.053)"/><path class="q" d="M266.225,327.952H247.263l.063-.8h18.962Z" transform="translate(-246.903 -324.836)"/><path class="q" d="M265.516,337.048H246.554l.063-.8h18.962Z" transform="translate(-246.374 -331.619)"/><path class="q" d="M264.807,346.144H245.845l.063-.8H264.87Z" transform="translate(-245.845 -338.402)"/></g><path class="q" d="M346.647,325.8H338.91l.6-7.743h7.736Z" transform="translate(-315.242 -276.275)"/></g></g></g><g transform="translate(22.276 96.928)"><g transform="translate(0 0)"><path class="l" d="M176.47,257v7a5.363,5.363,0,0,1-1.487,3.706l-6.538,6.838h3.7l6.791-6.683a5.363,5.363,0,0,0,1.6-3.822V257Z" transform="translate(-147.882 -247.59)"/><path class="n" d="M180.543,257v7.042a5.146,5.146,0,0,1-.132,1.172,5.317,5.317,0,0,1-1.47,2.65l-6.79,6.683h-3.7l6.536-6.839A5.351,5.351,0,0,0,176.474,264v-7Z" transform="translate(-147.886 -247.59)"/><path class="m" d="M204.069,257v7.042a5.147,5.147,0,0,1-.132,1.172L200,263.625V257Z" transform="translate(-171.412 -247.59)"/><g transform="translate(0.325 27.721)"><path class="l" d="M106.536,329l-5.476,20.87a.888.888,0,0,1-.858.662H90.413a.527.527,0,0,1-.509-.661L95.384,329H94.332L88.92,349.613a1.545,1.545,0,0,0,1.494,1.936H100.2a1.905,1.905,0,0,0,1.842-1.421L107.588,329Z" transform="translate(-88.868 -329)"/></g><g class="r" transform="translate(0.325 27.721)"><path class="h" d="M106.536,329l-5.476,20.87a.888.888,0,0,1-.858.662H90.413a.527.527,0,0,1-.509-.661L95.384,329H94.332L88.92,349.613a1.545,1.545,0,0,0,1.494,1.936H100.2a1.905,1.905,0,0,0,1.842-1.421L107.588,329Z" transform="translate(-88.868 -329)"/></g><g transform="translate(13.26 27.433)"><path class="l" d="M146.7,350.7l-5.989-22.838-.984.258,5.921,22.58Z" transform="translate(-139.732 -327.867)"/></g><g transform="translate(25.468 27.433)"><path class="l" d="M194.7,350.7l-5.989-22.838-.984.258,5.921,22.58Z" transform="translate(-187.732 -327.867)"/></g><g class="s" transform="translate(13.26 27.433)"><path class="h" d="M146.7,350.7l-5.989-22.838-.984.258,5.921,22.58Z" transform="translate(-139.732 -327.867)"/></g><g class="s" transform="translate(25.468 27.433)"><path class="h" d="M194.7,350.7l-5.989-22.838-.984.258,5.921,22.58Z" transform="translate(-187.732 -327.867)"/></g><path class="m" d="M108.158,329h1.053l-.827,3.146-.974-.3Z" transform="translate(-102.37 -301.279)"/><path class="m" d="M140.714,327.87l1.361,5.191-1.142-.346-1.2-4.588Z" transform="translate(-126.47 -300.437)"/><path class="m" d="M153.5,329h1.05l-1.724,6.587-.977-.3Z" transform="translate(-135.508 -301.279)"/><path class="m" d="M191.118,337.216l-1.147-.351-2.241-8.555.984-.28Z" transform="translate(-162.263 -300.556)"/><path class="l" d="M92.452,248.07l-4.767-25.744-.064-.389a1.673,1.673,0,0,1,.344-1.376,1.562,1.562,0,0,1,1.224-.56H99.483a2.2,2.2,0,0,1,2.049,1.761l.076.434,4.753,25.685-1,.185L100.593,222.3l-.062-.361a1.172,1.172,0,0,0-1.048-.923H89.188a.555.555,0,0,0-.443.194.667.667,0,0,0-.123.551l.072.426,4.757,25.7Z" transform="translate(-87.591 -220)"/><g class="t"><path class="h" d="M92.452,248.07l-4.767-25.744-.064-.389a1.673,1.673,0,0,1,.344-1.376,1.562,1.562,0,0,1,1.224-.56H99.483a2.2,2.2,0,0,1,2.049,1.761l.076.434,4.753,25.685-1,.185L100.593,222.3l-.062-.361a1.172,1.172,0,0,0-1.048-.923H89.188a.555.555,0,0,0-.443.194.667.667,0,0,0-.123.551l.072.426,4.757,25.7Z" transform="translate(-87.591 -220)"/></g><g transform="translate(4.852 25.517)"><path class="l" d="M2.973,0H19.136a2.973,2.973,0,0,1,2.973,2.973v0a0,0,0,0,1,0,0H0a0,0,0,0,1,0,0v0A2.973,2.973,0,0,1,2.973,0Z" transform="translate(0.815)"/><g transform="translate(0 1.486)"><rect class="l" width="23.74" height="1.486" rx="0.743"/><rect class="u" width="23.74" height="1.486" rx="0.743"/></g></g><path class="l" d="M104.775,239.427H91.848L89.92,229h12.924l1.912,10.33Z" transform="translate(-89.328 -226.711)"/></g></g><g transform="translate(29.119 79.872)"><path class="v" d="M185.255,160.488s-1.625-3.775-1.767-4.178.025-2.447-.1-2.811-2.013-.6-2.412-.556-.046,3.2.118,3.454a4.689,4.689,0,0,0,.726.692l1.436,4.333Z" transform="translate(-163.934 -152.937)"/><g transform="translate(12.2 4.595)"><path class="l" d="M163.36,181.086c1.11.175,5.648.83,6.662.154.82-.546-1.488-9.4-1.488-9.4l2.053-.836s4.876,10.735,2.271,13.188c-1.323,1.246-5.04,1.562-10.389,1.562Z" transform="translate(-162.47 -171.005)"/><path class="w" d="M163.36,181.086c1.11.175,5.648.83,6.662.154.82-.546-1.488-9.4-1.488-9.4l2.053-.836s4.876,10.735,2.271,13.188c-1.323,1.246-5.04,1.562-10.389,1.562Z" transform="translate(-162.47 -171.005)"/></g><path class="x" d="M166.015,220.389c-.788.023-1.63.033-2.515.033l.763-2.922A6.551,6.551,0,0,1,166.015,220.389Z" transform="translate(-151.038 -201.08)"/><line class="y" x2="5.383" y2="5.691" transform="translate(19.498 20.867)"/><path class="v" d="M176,244.436s4.108-.127,4.533-.17,2.206-1.06,2.587-1.1,1.4,1.568,1.526,1.95-2.882,1.4-3.179,1.357a4.691,4.691,0,0,1-.934-.364L176,246.64Z" transform="translate(-160.359 -220.217)"/><path class="v" d="M166.5,394.893l2.026-.278.281-4.816-2.023.28Z" transform="translate(-153.278 -329.56)"/><path class="j" d="M167.23,407.354l-2.289-.143a.145.145,0,0,0-.16.129v0l-.225,1.806a.361.361,0,0,0,.334.383c.8.037,1.183.014,2.191.069a18.955,18.955,0,0,0,2.69.086c.853-.083.749-.924.38-.964a5.627,5.627,0,0,1-2.578-1.229A.573.573,0,0,0,167.23,407.354Z" transform="translate(-151.826 -342.544)"/><path class="l" d="M176.147,407.847a2.5,2.5,0,0,1-.54-.107.044.044,0,0,1-.034-.038.054.054,0,0,1,.022-.048c.068-.041.67-.4.915-.287a.181.181,0,0,1,.1.142.254.254,0,0,1-.075.261A.547.547,0,0,1,176.147,407.847Zm.322-.385c-.13-.061-.48.089-.726.225.36.094.629.1.731.012a.175.175,0,0,0,.044-.167.086.086,0,0,0-.049-.07Z" transform="translate(-160.041 -342.644)"/><path class="l" d="M175.619,406.275a.028.028,0,0,1-.02,0,.054.054,0,0,1-.024-.039c0-.018-.009-.614.208-.8a.255.255,0,0,1,.207-.053.183.183,0,0,1,.164.155c.032.225-.3.633-.509.74A.031.031,0,0,1,175.619,406.275Zm.331-.794a.138.138,0,0,0-.1.037,1.051,1.051,0,0,0-.173.638,1,1,0,0,0,.386-.6c0-.028-.018-.062-.085-.075Z" transform="translate(-160.042 -341.179)"/><path class="m" d="M167.155,390.087l2.023-.278-.161,2.753-2.021.177Z" transform="translate(-153.645 -329.568)"/><path class="j" d="M130.224,287.439l-.494-3.1-11.358-.679s-1.208,6.444-.28,8.16c1.656,3.065,10.584,1.518,13.2,1.819-1.562,6.386-1.409,18.865-1.409,18.865l3.731.285s2.871-13.448,3.451-19.837C137.453,288.644,133.881,288.752,130.224,287.439Z" transform="translate(-116.917 -250.417)"/><path class="l" d="M163.578,392.338l4.484.295.384-1.92-4.926-.229Z" transform="translate(-151.053 -330.071)"/><path class="v" d="M184.881,389.126l2.039.15,1.278-4.652-2.037-.147Z" transform="translate(-166.981 -325.592)"/><path class="j" d="M184.886,400.7l-2.209-.616a.145.145,0,0,0-.183.092v0l-.6,1.719a.361.361,0,0,0,.247.444c.774.2,1.154.261,2.128.524a19.009,19.009,0,0,0,2.613.644c.852.1.924-.748.572-.864a5.624,5.624,0,0,1-2.265-1.739A.573.573,0,0,0,184.886,400.7Z" transform="translate(-164.747 -337.228)"/><path class="l" d="M194.508,403.294a2.515,2.515,0,0,1-.506-.217.044.044,0,0,1-.025-.044.053.053,0,0,1,.031-.042c.075-.026.739-.25.955-.09a.181.181,0,0,1,.07.16.255.255,0,0,1-.128.24A.547.547,0,0,1,194.508,403.294Zm.395-.309c-.115-.086-.488-.013-.757.069.333.168.594.229.713.164a.175.175,0,0,0,.078-.154.087.087,0,0,0-.034-.079Z" transform="translate(-173.764 -339.287)"/><path class="l" d="M194.011,401.389a.026.026,0,0,1-.02,0,.053.053,0,0,1-.015-.043c0-.018.12-.6.37-.741a.256.256,0,0,1,.214-.009.183.183,0,0,1,.128.185c-.016.226-.424.557-.652.618A.031.031,0,0,1,194.011,401.389Zm.489-.707a.137.137,0,0,0-.11.014c-.151.081-.256.4-.3.587.21-.1.483-.355.5-.5,0-.028,0-.065-.068-.091Z" transform="translate(-173.763 -337.596)"/><path class="m" d="M187.84,384.477l2.037.15-.731,2.659-2.013-.247Z" transform="translate(-168.661 -325.592)"/><path class="j" d="M149.084,315.777l-3.591-1.055s2.144-12.1,4.318-16.3c-.163-.053-.379-.122-.646-.2-.481-.145-1.119-.326-1.869-.534-5.219-1.447-15.8-4.161-15.8-4.161l4.832-4.509s19.247,2.935,19.646,8.006C156.169,299.465,149.084,315.777,149.084,315.777Z" transform="translate(-127.176 -254.411)"/><path class="l" d="M184.7,385.04l4.324,1.222.776-1.8-4.77-1.25Z" transform="translate(-166.845 -324.651)"/><path class="m" d="M158.367,303.717c-.481-.145-1.119-.326-1.869-.534.15-1.231.153-2.642-.44-3.362-1.177-1.434-4.206-2.276-5.931-2.581-1.442-.254-6.287-.76-6.287-.76a38.088,38.088,0,0,1,12.713,1.272C159.73,298.679,159.112,301.784,158.367,303.717Z" transform="translate(-136.378 -259.905)"/><g transform="translate(1.175 13.844)"><path class="l" d="M131.035,208.2s1.648,6.1-.277,19.249c-3.588-.076-9.618-.216-11.366-.254-.043-1.831,1.307-10.8-.272-19.458a23.624,23.624,0,0,1,3.441-.341,43.859,43.859,0,0,1,5.063.109A22.229,22.229,0,0,1,131.035,208.2Z" transform="translate(-119.12 -207.371)"/><path class="q" d="M131.035,208.2s1.648,6.1-.277,19.249c-3.588-.076-9.618-.216-11.366-.254-.043-1.831,1.307-10.8-.272-19.458a23.624,23.624,0,0,1,3.441-.341,43.859,43.859,0,0,1,5.063.109A22.229,22.229,0,0,1,131.035,208.2Z" transform="translate(-119.12 -207.371)"/></g><path class="x" d="M124.569,230.441a8.179,8.179,0,0,1-3.23-2.169c-.008-1.719-.084-3.548-.27-5.412C122.484,224.953,126.314,230.825,124.569,230.441Z" transform="translate(-119.399 -205.077)"/><g transform="translate(0 14.213)"><path class="l" d="M115.674,208.824c-3.888,1.4,2.937,11.93,5.056,13.015s12.886-1.187,12.886-1.187l-.424-2.178s-9.526.243-10.4.021-2.964-4.71-4.164-6.829A6.778,6.778,0,0,0,115.674,208.824Z" transform="translate(-114.499 -208.824)"/><path class="w" d="M115.674,208.824c-3.888,1.4,2.937,11.93,5.056,13.015s12.886-1.187,12.886-1.187l-.424-2.178s-9.526.243-10.4.021-2.964-4.71-4.164-6.829A6.778,6.778,0,0,0,115.674,208.824Z" transform="translate(-114.499 -208.824)"/></g><g transform="translate(17.93 23.668)"><path class="l" d="M185,246l.551,2.891,1.017-.348L186.187,246Z" transform="translate(-185 -246)"/><path class="q" d="M185,246l.551,2.891,1.017-.348L186.187,246Z" transform="translate(-185 -246)"/></g><g transform="translate(17.982 4.046)"><path class="l" d="M185.426,170.863l2.736-1.083-.532-.934-2.427.851Z" transform="translate(-185.204 -168.846)"/><path class="q" d="M185.426,170.863l2.736-1.083-.532-.934-2.427.851Z" transform="translate(-185.204 -168.846)"/></g><path class="x" d="M130.241,206.224s.072,1.188,2.406,2.333l1.613-1.166s.46,2.978.749,5.2a36.05,36.05,0,0,0-.326-4.927l1.234.438a5.1,5.1,0,0,0-2.838-2.218A3.657,3.657,0,0,0,130.241,206.224Z" transform="translate(-126.237 -192.327)"/><path class="v" d="M133.273,185.164c.285,1.635.539,4.626-.623,5.689l3.406.945,1.657-.836c-1.808-.473-1.732-1.821-1.389-3.08Z" transform="translate(-128.034 -176.968)"/><path class="m" d="M139.774,189.524l1.806,1.61a5.332,5.332,0,0,0-.175.9,2.24,2.24,0,0,1-1.686-1.625A2.391,2.391,0,0,1,139.774,189.524Z" transform="translate(-133.291 -180.219)"/><path class="j" d="M143.715,164.507c-.74.8-.1,1.722,2.261,2.838.562-1.239.219-3.306-.544-3.667S144.361,163.81,143.715,164.507Z" transform="translate(-136.067 -160.855)"/><path class="v" d="M130.841,165.894c.6,2.129.844,3.4,2.172,4.275a2.938,2.938,0,0,0,4.5-2.52c.041-2.035-.946-5.175-3.243-5.575a3.016,3.016,0,0,0-3.426,3.82Z" transform="translate(-126.593 -159.714)"/><path class="j" d="M144.351,175.74c.038.175.163.3.277.272s.175-.186.137-.361-.16-.3-.275-.275S144.326,175.564,144.351,175.74Z" transform="translate(-136.754 -169.667)"/><path class="j" d="M152.187,174.048c.038.175.163.3.277.272s.178-.186.14-.364-.163-.3-.277-.272S152.149,173.872,152.187,174.048Z" transform="translate(-142.594 -168.405)"/><path class="z" d="M149.73,176a6.421,6.421,0,0,0,1.165,1.32,1.038,1.038,0,0,1-.806.338Z" transform="translate(-140.77 -170.138)"/><path class="j" d="M141.306,172.607a.1.1,0,0,1-.122-.14,1.042,1.042,0,0,1,.748-.608.1.1,0,0,1,.119.082v.007a.109.109,0,0,1-.089.12h0a.831.831,0,0,0-.585.486A.109.109,0,0,1,141.306,172.607Z" transform="translate(-134.39 -167.045)"/><path class="j" d="M152.572,169.973a.11.11,0,0,1-.107-.038.839.839,0,0,0-.682-.341.106.106,0,0,1-.02-.211,1.053,1.053,0,0,1,.867.422.1.1,0,0,1-.017.146h0A.127.127,0,0,1,152.572,169.973Z" transform="translate(-142.216 -165.2)"/><path class="j" d="M127.35,168.7c1.083.127,1.2,1.241.127,3.624-1.233-.575-2.319-2.37-1.971-3.138S126.4,168.589,127.35,168.7Z" transform="translate(-122.658 -164.617)"/><path class="v" d="M128.241,180.677a2.1,2.1,0,0,0,1.244,1.017c.707.206,1.068-.425.88-1.1-.17-.605-.745-1.442-1.457-1.353A.937.937,0,0,0,128.241,180.677Z" transform="translate(-124.647 -172.549)"/><path class="j" d="M125.678,159.529s-.538-.693.516-2.077,3.6-1.808,5.558-1.426.794,2.543.094,2.9l.085-.339a5.838,5.838,0,0,1-2.414.657l.384-.36A18.04,18.04,0,0,1,125.678,159.529Z" transform="translate(-122.732 -155.14)"/><g transform="translate(7.703 8.042)"><path class="j" d="M146.272,184.627a5.5,5.5,0,0,0-.072.791c-.046.007-.092.014-.139.019-.629.084-.948-.085-1.111-.3a.818.818,0,0,1-.149-.358.794.794,0,0,1-.011-.221,2.988,2.988,0,0,0,1.267.092C146.189,184.64,146.272,184.627,146.272,184.627Z" transform="translate(-144.786 -184.56)"/><path class="h" d="M146.057,184.652l-.027.233a1.884,1.884,0,0,1-1.229-.1.794.794,0,0,1-.011-.221A2.988,2.988,0,0,0,146.057,184.652Z" transform="translate(-144.786 -184.56)"/><path class="z" d="M146.538,187.1c-.629.084-.948-.085-1.111-.3a2.034,2.034,0,0,1,.716.046A.765.765,0,0,1,146.538,187.1Z" transform="translate(-145.264 -186.222)"/></g><g transform="translate(4.004 12.879)"><path class="l" d="M131.449,203.577a14.783,14.783,0,0,0,2.811,1.7,2.543,2.543,0,0,0,.266-1.551l1.391.969a3.433,3.433,0,0,1,0,1.782l-1.657-.946-1.568,1.144s-2.317-.671-2.451-2.078Z" transform="translate(-130.241 -203.577)"/><path class="w" d="M131.449,203.577a14.783,14.783,0,0,0,2.811,1.7,2.543,2.543,0,0,0,.266-1.551l1.391.969a3.433,3.433,0,0,1,0,1.782l-1.657-.946-1.568,1.144s-2.317-.671-2.451-2.078Z" transform="translate(-130.241 -203.577)"/></g><g transform="translate(9.792 25.922)"><rect class="l" width="25.944" height="1.339" rx="0.67" transform="translate(0.084)"/><path class="aa" d="M178.94,255.229v.745c0,.165-.046.3-.209.3h-25.35c-.165,0-.381-.132-.381-.3v-.745c0-.163.216-.229.381-.229h25.35C178.895,255,178.94,255.066,178.94,255.229Z" transform="translate(-153 -254.966)"/><path class="m" d="M163.681,255.229v.745c0,.165-.056.3-.219.3H153.381c-.165,0-.381-.132-.381-.3v-.745c0-.163.216-.229.381-.229h10.081C163.625,255,163.681,255.066,163.681,255.229Z" transform="translate(-153 -254.966)"/></g></g><g transform="translate(28.768 59.014)"><g transform="translate(5.507 6.131)"><path class="l" d="M144.331,98.615a4.865,4.865,0,1,0-6.588,5.772,1.389,1.389,0,0,1,.733.706l.167.376,4.68-1.275-.047-.407a1.4,1.4,0,0,1,.278-.988A4.9,4.9,0,0,0,144.331,98.615Z" transform="translate(-134.773 -95.029)"/><path class="ab" d="M150.285,122.074a7.807,7.807,0,0,0-1.95-3.19l.69-.188.054-1.06,1.125,1.63-.091-1.983,1.111,1.808.113-1.025.985-.268a5.651,5.651,0,0,0-.274,3.844" transform="translate(-144.886 -111.623)"/><path class="j" d="M156.241,134.522a1.8,1.8,0,1,0,1.968,1.309A1.68,1.68,0,0,0,156.241,134.522Z" transform="translate(-149.958 -124.442)"/><path class="l" d="M153.437,133.924l-1.667.454a1.638,1.638,0,0,1-1.974-1.033l-.547-1.543a.236.236,0,0,1,.16-.306l4.6-1.254a.236.236,0,0,1,.293.183l.311,1.607A1.638,1.638,0,0,1,153.437,133.924Z" transform="translate(-145.557 -121.281)"/><path class="n" d="M153.437,133.924l-1.667.454a1.638,1.638,0,0,1-1.974-1.033l-.547-1.543a.236.236,0,0,1,.16-.306l4.6-1.254a.236.236,0,0,1,.293.183l.311,1.607A1.638,1.638,0,0,1,153.437,133.924Z" transform="translate(-145.557 -121.281)"/></g><path class="l" d="M117,85.5a8,8,0,0,0-1.382-.129,5.758,5.758,0,0,0-.689.038c-.113.018-.227.031-.337.06-.055.014-.112.023-.165.042l-.161.052-.183.058.109-.16a6.051,6.051,0,0,0,.73-1.476,4.614,4.614,0,0,0,.191-.8,3.736,3.736,0,0,0,.037-.4,3.184,3.184,0,0,0-.007-.4,3.092,3.092,0,0,0-.055-.4l-.048-.194-.063-.189a2.509,2.509,0,0,0-.165-.362,3.05,3.05,0,0,0-.212-.337,3.275,3.275,0,0,0-.259-.3l-.14-.143-.153-.131c-.1-.091-.214-.163-.32-.244s-.229-.144-.343-.216l-.264-.169.282-.135c.135-.065.278-.144.413-.224s.27-.167.4-.257a6.769,6.769,0,0,0,.745-.59c.116-.107.228-.218.336-.332s.208-.235.3-.358.185-.251.266-.384a3.772,3.772,0,0,0,.223-.406,3.588,3.588,0,0,0,.173-.426l.066-.22.048-.224a3,3,0,0,0,.05-.454,3.531,3.531,0,0,0-.009-.458,3.838,3.838,0,0,0-.072-.455l-.052-.225-.071-.221c-.041-.149-.111-.29-.167-.435s-.138-.281-.206-.421l-.363-.75.7.448c.123.079.263.16.4.233s.279.145.422.21a6.973,6.973,0,0,0,.875.336c.149.045.3.086.45.118a4.171,4.171,0,0,0,.455.076,3.472,3.472,0,0,0,.455.027,3.339,3.339,0,0,0,.449-.03l.22-.039.215-.056a2.727,2.727,0,0,0,.407-.169,1.536,1.536,0,0,0,.19-.11,1.209,1.209,0,0,0,.18-.126,3.26,3.26,0,0,0,.331-.295,3.385,3.385,0,0,0,.282-.349,3.2,3.2,0,0,0,.24-.386c.08-.13.133-.277.2-.414s.109-.29.165-.435l.319-.833.156.87a3.443,3.443,0,0,0,.109.419,4,4,0,0,0,.159.416,3.758,3.758,0,0,0,.446.764,3.144,3.144,0,0,0,.617.618,2.753,2.753,0,0,0,.367.234,3.387,3.387,0,0,0,.4.178,3.494,3.494,0,0,0,.424.115,3.452,3.452,0,0,0,.438.062,3.9,3.9,0,0,0,.447.009c.15,0,.3-.019.449-.033s.3-.048.448-.07l.444-.106.44-.133.434-.155.6-.216-.347.536c-.062.095-.127.208-.185.317s-.113.224-.162.338a4.091,4.091,0,0,0-.237.708,3.011,3.011,0,0,0-.084.729,2.211,2.211,0,0,0,.124.709L128,77.4l.083.159a2.24,2.24,0,0,0,.21.295,2.279,2.279,0,0,0,.255.262,2.775,2.775,0,0,0,.3.225,3.233,3.233,0,0,0,.321.193c.11.061.228.108.341.164l.356.136.366.113.263.082-.215.165a3.436,3.436,0,0,0-.4.367,3.944,3.944,0,0,0-.353.423,2.484,2.484,0,0,0-.153.228,1.924,1.924,0,0,0-.134.24,1.492,1.492,0,0,0-.111.25,1.574,1.574,0,0,0-.085.26c-.018.089-.048.176-.057.267l-.025.272c0,.091.01.182.014.273a1.181,1.181,0,0,0,.045.271,1.635,1.635,0,0,0,.071.267l.1.257a1.442,1.442,0,0,0,.131.246l.142.241.052.088h-.1a4.373,4.373,0,0,0-1.114.148,2.522,2.522,0,0,0-.525.206c-.042.021-.08.049-.121.074a.762.762,0,0,0-.114.083.89.89,0,0,0-.107.093l-.1.1.092-.109a.879.879,0,0,1,.1-.1.757.757,0,0,1,.111-.09c.039-.027.077-.058.118-.081a2.575,2.575,0,0,1,.522-.238,4.194,4.194,0,0,1,1.132-.2l-.045.089-.157-.243a1.539,1.539,0,0,1-.146-.25l-.12-.266a1.727,1.727,0,0,1-.087-.279,1.3,1.3,0,0,1-.06-.288c-.009-.1-.024-.2-.027-.294l.015-.3a2.924,2.924,0,0,1,.05-.291,1.75,1.75,0,0,1,.081-.284,1.692,1.692,0,0,1,.108-.274,2.156,2.156,0,0,1,.133-.263,2.678,2.678,0,0,1,.154-.251,4.17,4.17,0,0,1,.792-.87l.048.246-.385-.109-.379-.134c-.123-.055-.249-.1-.369-.166a3.517,3.517,0,0,1-.355-.2,3.1,3.1,0,0,1-.334-.241,2.636,2.636,0,0,1-.3-.291,2.578,2.578,0,0,1-.252-.336l-.1-.185-.085-.194a2.57,2.57,0,0,1-.166-.823,3.384,3.384,0,0,1,.073-.825,4.521,4.521,0,0,1,.241-.782c.051-.126.107-.25.167-.372a3.853,3.853,0,0,1,.2-.363l.257.32-.452.166-.462.143c-.156.042-.314.078-.472.116s-.319.061-.482.08-.325.039-.49.04a4.293,4.293,0,0,1-.5-.006,3.882,3.882,0,0,1-.495-.066,3.966,3.966,0,0,1-.486-.128,3.836,3.836,0,0,1-.463-.2,3.209,3.209,0,0,1-.429-.268,3.607,3.607,0,0,1-.717-.7,4.243,4.243,0,0,1-.51-.856,4.474,4.474,0,0,1-.181-.462,3.774,3.774,0,0,1-.131-.491l.476.037c-.058.158-.112.317-.175.474s-.131.313-.219.46a3.68,3.68,0,0,1-.269.439,3.914,3.914,0,0,1-.324.407,3.256,3.256,0,0,1-.393.35,1.607,1.607,0,0,1-.218.15,1.976,1.976,0,0,1-.23.131,3.266,3.266,0,0,1-.49.2l-.255.065c-.086.017-.172.029-.258.043a3.807,3.807,0,0,1-.518.03,3.894,3.894,0,0,1-.512-.035,4.637,4.637,0,0,1-.5-.088c-.165-.036-.327-.082-.487-.132a7.407,7.407,0,0,1-.933-.366c-.151-.07-.3-.146-.446-.226s-.287-.162-.436-.259l.333-.3c.073.153.153.3.219.457s.134.312.179.478l.076.244.056.251a4.267,4.267,0,0,1,.076.51,4.038,4.038,0,0,1,.006.518,3.434,3.434,0,0,1-.061.515l-.056.253-.076.248a4,4,0,0,1-.2.476,3.611,3.611,0,0,1-.253.446c-.092.144-.2.279-.3.412s-.22.257-.337.378-.241.236-.367.346a7.14,7.14,0,0,1-.8.6c-.14.091-.283.177-.428.26s-.291.158-.451.23l.017-.3c.12.08.243.155.36.24s.234.17.339.272l.162.146.15.159a3.518,3.518,0,0,1,.276.34,3.305,3.305,0,0,1,.226.377,2.8,2.8,0,0,1,.172.4l.065.21.047.214a3.368,3.368,0,0,1,.05.434,4.228,4.228,0,0,1-.3,1.686,6.033,6.033,0,0,1-.356.773,5.842,5.842,0,0,1-.456.717l-.074-.1.172-.048c.057-.018.116-.025.174-.037.116-.025.234-.034.35-.048a5.442,5.442,0,0,1,.7-.009A8.069,8.069,0,0,1,117,85.5Z" transform="translate(-113.118 -70.923)"/><path class="q" d="M117,85.5a8,8,0,0,0-1.382-.129,5.758,5.758,0,0,0-.689.038c-.113.018-.227.031-.337.06-.055.014-.112.023-.165.042l-.161.052-.183.058.109-.16a6.051,6.051,0,0,0,.73-1.476,4.614,4.614,0,0,0,.191-.8,3.736,3.736,0,0,0,.037-.4,3.184,3.184,0,0,0-.007-.4,3.092,3.092,0,0,0-.055-.4l-.048-.194-.063-.189a2.509,2.509,0,0,0-.165-.362,3.05,3.05,0,0,0-.212-.337,3.275,3.275,0,0,0-.259-.3l-.14-.143-.153-.131c-.1-.091-.214-.163-.32-.244s-.229-.144-.343-.216l-.264-.169.282-.135c.135-.065.278-.144.413-.224s.27-.167.4-.257a6.769,6.769,0,0,0,.745-.59c.116-.107.228-.218.336-.332s.208-.235.3-.358.185-.251.266-.384a3.772,3.772,0,0,0,.223-.406,3.588,3.588,0,0,0,.173-.426l.066-.22.048-.224a3,3,0,0,0,.05-.454,3.531,3.531,0,0,0-.009-.458,3.838,3.838,0,0,0-.072-.455l-.052-.225-.071-.221c-.041-.149-.111-.29-.167-.435s-.138-.281-.206-.421l-.363-.75.7.448c.123.079.263.16.4.233s.279.145.422.21a6.973,6.973,0,0,0,.875.336c.149.045.3.086.45.118a4.171,4.171,0,0,0,.455.076,3.472,3.472,0,0,0,.455.027,3.339,3.339,0,0,0,.449-.03l.22-.039.215-.056a2.727,2.727,0,0,0,.407-.169,1.536,1.536,0,0,0,.19-.11,1.209,1.209,0,0,0,.18-.126,3.26,3.26,0,0,0,.331-.295,3.385,3.385,0,0,0,.282-.349,3.2,3.2,0,0,0,.24-.386c.08-.13.133-.277.2-.414s.109-.29.165-.435l.319-.833.156.87a3.443,3.443,0,0,0,.109.419,4,4,0,0,0,.159.416,3.758,3.758,0,0,0,.446.764,3.144,3.144,0,0,0,.617.618,2.753,2.753,0,0,0,.367.234,3.387,3.387,0,0,0,.4.178,3.494,3.494,0,0,0,.424.115,3.452,3.452,0,0,0,.438.062,3.9,3.9,0,0,0,.447.009c.15,0,.3-.019.449-.033s.3-.048.448-.07l.444-.106.44-.133.434-.155.6-.216-.347.536c-.062.095-.127.208-.185.317s-.113.224-.162.338a4.091,4.091,0,0,0-.237.708,3.011,3.011,0,0,0-.084.729,2.211,2.211,0,0,0,.124.709L128,77.4l.083.159a2.24,2.24,0,0,0,.21.295,2.279,2.279,0,0,0,.255.262,2.775,2.775,0,0,0,.3.225,3.233,3.233,0,0,0,.321.193c.11.061.228.108.341.164l.356.136.366.113.263.082-.215.165a3.436,3.436,0,0,0-.4.367,3.944,3.944,0,0,0-.353.423,2.484,2.484,0,0,0-.153.228,1.924,1.924,0,0,0-.134.24,1.492,1.492,0,0,0-.111.25,1.574,1.574,0,0,0-.085.26c-.018.089-.048.176-.057.267l-.025.272c0,.091.01.182.014.273a1.181,1.181,0,0,0,.045.271,1.635,1.635,0,0,0,.071.267l.1.257a1.442,1.442,0,0,0,.131.246l.142.241.052.088h-.1a4.373,4.373,0,0,0-1.114.148,2.522,2.522,0,0,0-.525.206c-.042.021-.08.049-.121.074a.762.762,0,0,0-.114.083.89.89,0,0,0-.107.093l-.1.1.092-.109a.879.879,0,0,1,.1-.1.757.757,0,0,1,.111-.09c.039-.027.077-.058.118-.081a2.575,2.575,0,0,1,.522-.238,4.194,4.194,0,0,1,1.132-.2l-.045.089-.157-.243a1.539,1.539,0,0,1-.146-.25l-.12-.266a1.727,1.727,0,0,1-.087-.279,1.3,1.3,0,0,1-.06-.288c-.009-.1-.024-.2-.027-.294l.015-.3a2.924,2.924,0,0,1,.05-.291,1.75,1.75,0,0,1,.081-.284,1.692,1.692,0,0,1,.108-.274,2.156,2.156,0,0,1,.133-.263,2.678,2.678,0,0,1,.154-.251,4.17,4.17,0,0,1,.792-.87l.048.246-.385-.109-.379-.134c-.123-.055-.249-.1-.369-.166a3.517,3.517,0,0,1-.355-.2,3.1,3.1,0,0,1-.334-.241,2.636,2.636,0,0,1-.3-.291,2.578,2.578,0,0,1-.252-.336l-.1-.185-.085-.194a2.57,2.57,0,0,1-.166-.823,3.384,3.384,0,0,1,.073-.825,4.521,4.521,0,0,1,.241-.782c.051-.126.107-.25.167-.372a3.853,3.853,0,0,1,.2-.363l.257.32-.452.166-.462.143c-.156.042-.314.078-.472.116s-.319.061-.482.08-.325.039-.49.04a4.293,4.293,0,0,1-.5-.006,3.882,3.882,0,0,1-.495-.066,3.966,3.966,0,0,1-.486-.128,3.836,3.836,0,0,1-.463-.2,3.209,3.209,0,0,1-.429-.268,3.607,3.607,0,0,1-.717-.7,4.243,4.243,0,0,1-.51-.856,4.474,4.474,0,0,1-.181-.462,3.774,3.774,0,0,1-.131-.491l.476.037c-.058.158-.112.317-.175.474s-.131.313-.219.46a3.68,3.68,0,0,1-.269.439,3.914,3.914,0,0,1-.324.407,3.256,3.256,0,0,1-.393.35,1.607,1.607,0,0,1-.218.15,1.976,1.976,0,0,1-.23.131,3.266,3.266,0,0,1-.49.2l-.255.065c-.086.017-.172.029-.258.043a3.807,3.807,0,0,1-.518.03,3.894,3.894,0,0,1-.512-.035,4.637,4.637,0,0,1-.5-.088c-.165-.036-.327-.082-.487-.132a7.407,7.407,0,0,1-.933-.366c-.151-.07-.3-.146-.446-.226s-.287-.162-.436-.259l.333-.3c.073.153.153.3.219.457s.134.312.179.478l.076.244.056.251a4.267,4.267,0,0,1,.076.51,4.038,4.038,0,0,1,.006.518,3.434,3.434,0,0,1-.061.515l-.056.253-.076.248a4,4,0,0,1-.2.476,3.611,3.611,0,0,1-.253.446c-.092.144-.2.279-.3.412s-.22.257-.337.378-.241.236-.367.346a7.14,7.14,0,0,1-.8.6c-.14.091-.283.177-.428.26s-.291.158-.451.23l.017-.3c.12.08.243.155.36.24s.234.17.339.272l.162.146.15.159a3.518,3.518,0,0,1,.276.34,3.305,3.305,0,0,1,.226.377,2.8,2.8,0,0,1,.172.4l.065.21.047.214a3.368,3.368,0,0,1,.05.434,4.228,4.228,0,0,1-.3,1.686,6.033,6.033,0,0,1-.356.773,5.842,5.842,0,0,1-.456.717l-.074-.1.172-.048c.057-.018.116-.025.174-.037.116-.025.234-.034.35-.048a5.442,5.442,0,0,1,.7-.009A8.069,8.069,0,0,1,117,85.5Z" transform="translate(-113.118 -70.923)"/></g></g></svg>