<svg xmlns="http://www.w3.org/2000/svg" width="40.72" height="31.348" viewBox="0 0 40.72 31.348"><defs><style>.a{fill:#2b2579;}.b{fill:#fbb03b;}</style></defs><path class="a" d="M447.031,452.952l-4.688-6.957a1.276,1.276,0,0,0-1.771-.345l-6.957,4.688a1.276,1.276,0,0,0-.345,1.771l4.689,6.957a1.276,1.276,0,0,0,1.771.345l6.957-4.688A1.276,1.276,0,0,0,447.031,452.952Zm-5.449,3.167-1.565-3.107,1.426.278.4-2.066a1.414,1.414,0,0,0-2.775-.541l-.928,4.766-1.33-.259.928-4.766a2.768,2.768,0,1,1,5.435,1.059l-.4,2.066,1.427.278Z" transform="translate(-427.246 -445.432)"/><path class="b" d="M435.923,477.9l-1.238.834a1.974,1.974,0,0,1-2.739-.534l-4.092-6.072-.438-.312a.615.615,0,0,0-.969.441l-1.008,10.378a.615.615,0,0,0,.866.619l9.492-4.316A.613.613,0,0,0,435.923,477.9Zm-7.082-3.539,1.3,3.809-.695.316-2.024-3.49Zm1.123,5.978-.553-1.216,1.231-.56.553,1.216Z" transform="translate(-421.813 -464.174)"/><path class="a" d="M423.641,503.156l-6.073,2.761a1.3,1.3,0,0,1-1.305-.127,1.3,1.3,0,0,1-.543-1.194l.2-2.021a6.588,6.588,0,1,0,7.725.581Zm.761,6.054H414.35v-2.069H424.4Z" transform="translate(-412.786 -486.206)"/><g transform="translate(9.791 0.049)"><path class="a" d="M456.66,460.748l.1-.054a6.393,6.393,0,0,1,.767-.347c.245-.088.489-.174.733-.254l.73-.221c.972-.284,1.952-.494,2.933-.7s1.966-.378,2.955-.526,1.981-.281,2.976-.384c.5-.053,1-.091,1.5-.137l1.5-.1,1.513-.067,1.494-.026,1.5.027,1.5.067,1.032.071V457.4a11.785,11.785,0,0,0-.513-3.448l-.747-.032c-.919-.032-1.843-.06-2.779-.034-.936-.025-1.859,0-2.778.034s-1.819.078-2.69.135-1.713.125-2.507.212c-.4.045-.781.1-1.147.161-.182.034-.361.07-.529.117a2.513,2.513,0,0,0-.24.076l-.1.045c-.036.024-.078.048-.108.071a3.885,3.885,0,0,0-.667.691c-.195.247-.371.491-.531.724-.319.468-.578.891-.787,1.242-.415.7-.64,1.113-.64,1.113l.138-.306c.092-.2.227-.491.414-.856s.419-.8.712-1.3c.147-.246.307-.506.5-.769a4.049,4.049,0,0,1,.7-.781c.038-.032.072-.052.109-.079.054-.032.093-.051.142-.076a2.771,2.771,0,0,1,.271-.1c.182-.058.366-.1.554-.14.376-.078.765-.14,1.165-.2.8-.112,1.646-.2,2.522-.267s1.781-.132,2.7-.17,1.864-.071,2.8-.05c.932-.021,1.878.012,2.8.05.2.008.386.021.58.031-.042-.122-.088-.242-.134-.362h-.031c-1.065-.04-2.126-.076-3.212-.043-1.085-.032-2.146,0-3.212.043s-2.1.089-3.111.162-1.98.149-2.885.276c-.225.034-.448.067-.659.112a3.916,3.916,0,0,0-.587.157c-.042.014-.068.031-.1.045l-.011.008-.033.024-.064.049a1.265,1.265,0,0,0-.209.193l-.092.094-.1.115c-.062.078-.128.15-.186.23-.474.634-.868,1.266-1.211,1.826s-.629,1.061-.863,1.473l-.731,1.3s.188-.51.566-1.383c.189-.436.422-.965.717-1.56a18.3,18.3,0,0,1,1.088-1.965c.056-.088.122-.174.184-.263l.1-.133.119-.14a2.018,2.018,0,0,1,.246-.256l.061-.053.03-.027.016-.014.007-.007c.014-.01-.02.013.033-.024a2.107,2.107,0,0,1,.185-.1,3.871,3.871,0,0,1,.689-.23c.229-.06.459-.107.692-.154.933-.179,1.914-.307,2.931-.407s2.068-.193,3.139-.244c.536-.027,1.075-.05,1.62-.065l.82-.016c.266,0,.576,0,.814.006h.084l.106,0,.21,0h.414l.82.016c.407.012.81.03,1.213.049a11.8,11.8,0,0,0-10.6-6.625H458.39a32.688,32.688,0,0,0-5.374.376l4.519,6.706a1.973,1.973,0,0,1-.533,2.739l-5.129,3.457a1.307,1.307,0,0,1-.427,2.07l-2.726,1.24a7.279,7.279,0,0,1-1.756,11.88c1.27,1.766,4.366,2.833,11.427,2.833H466.1a11.8,11.8,0,0,0,11.748-10.74c-.044-.005-.088-.011-.133-.015-.254-.027-.543-.039-.844-.057l-.949-.054c-.329-.019-.669-.018-1.015-.027l-1.049-.022-1.049.022c-.348.01-.693.008-1.021.028l-.945.054c-.3.018-.584.029-.846.057-.066.006-.13.01-.192.021a.458.458,0,0,1-.184.007l-.347-.046c-.22-.029-.408-.056-.561-.069-.311-.033-.5-.057-.5-.057s.159-.077.46-.2l.253-.1c.091-.033.19-.062.3-.1l.338-.108a.469.469,0,0,1,.186-.027c.064,0,.13-.009.2-.015.267-.029.557-.04.864-.058l.966-.055c.336-.02.675-.018,1.025-.028l1.063-.022,1.064.022c.351.01.7.008,1.03.028l.962.054c.306.019.593.03.867.059l.106.007c0-.119.009-.237.009-.357v-.252c-.059-.01-.12-.015-.182-.02-.254-.028-.543-.04-.844-.057l-.949-.054c-.329-.019-.669-.017-1.015-.028l-1.049-.022-1.049.022c-.348.01-.693.009-1.021.028l-.945.054c-.3.018-.584.029-.846.057-.066.007-.13.011-.192.021a.46.46,0,0,1-.184.008l-.347-.046c-.22-.03-.408-.057-.561-.07-.311-.033-.5-.058-.5-.058s.159-.077.46-.2l.253-.1c.091-.033.19-.062.3-.1l.338-.108a.493.493,0,0,1,.186-.026c.064,0,.13-.009.2-.014.267-.029.557-.04.864-.059l.966-.054c.336-.019.675-.018,1.025-.028l1.063-.022,1.064.022c.351.011.7.009,1.03.028l.962.055c.306.018.593.03.867.059.039,0,.077.005.115.008v-.609c-.059-.01-.12-.015-.182-.02-.254-.027-.543-.039-.844-.057l-.949-.054c-.329-.02-.669-.018-1.015-.028l-1.049-.022-1.049.022c-.348.01-.693.008-1.021.028l-.945.054c-.3.018-.584.029-.846.058-.066.007-.13.01-.192.02a.46.46,0,0,1-.184.008l-.347-.046c-.22-.03-.408-.057-.561-.07-.311-.033-.5-.058-.5-.058s.159-.077.46-.2l.253-.1c.091-.033.19-.062.3-.1l.338-.108a.486.486,0,0,1,.186-.026c.064,0,.13-.009.2-.015.267-.028.557-.04.864-.059l.966-.054c.336-.02.675-.018,1.025-.028l1.063-.022,1.064.022c.351.01.7.009,1.03.028l.962.055c.306.018.593.029.867.059l.115.008v-.61c-.059-.01-.12-.015-.182-.021-.254-.027-.543-.039-.844-.057l-.949-.054c-.329-.019-.669-.018-1.015-.028l-1.049-.022-1.049.022c-.348.011-.693.009-1.021.028l-.945.054c-.3.017-.584.029-.846.057-.066.006-.13.01-.192.021a.467.467,0,0,1-.184.007l-.347-.046c-.22-.029-.408-.057-.561-.069-.311-.033-.5-.058-.5-.058s.159-.077.46-.2l.253-.1c.091-.033.19-.062.3-.1l.338-.108a.479.479,0,0,1,.186-.026c.064,0,.13-.009.2-.015.267-.029.557-.04.864-.059l.966-.055c.336-.019.675-.018,1.025-.027l1.063-.022,1.064.022c.351.01.7.008,1.03.028l.962.054c.306.019.593.03.867.06.039,0,.077.005.115.008v-1.838l-1.114-.066-1.462-.051-1.462-.012-1.473.014-1.452.051-1.462.087c-.487.041-.975.073-1.461.12-.973.1-1.946.2-2.916.322s-1.938.27-2.9.433-1.919.362-2.86.581l-.7.177c-.229.064-.456.132-.679.2a5.471,5.471,0,0,0-.6.233l-.066.029-.006,0-.031.021a.8.8,0,0,0-.068.048.1.1,0,0,1-.018.02.645.645,0,0,0-.071.073,1.1,1.1,0,0,0-.085.106,4.865,4.865,0,0,0-.576,1.18c-.158.441-.3.9-.419,1.367a27.284,27.284,0,0,0-.568,2.857l-.056.384-.359-.009a.525.525,0,0,0-.287.062.676.676,0,0,0-.241.254,1.893,1.893,0,0,0-.1.193l-.086.222-.071.236-.058.247c-.033.168-.068.336-.089.51s-.046.346-.063.522c-.036.35-.056.7-.077,1.059l-.023.537-.01.532c0,.355.009.709.041,1.061.02.174.041.349.076.52.018.086.043.168.065.253a2.073,2.073,0,0,0,.1.238.892.892,0,0,0,.328.384,1.076,1.076,0,0,0,.5.152,1.1,1.1,0,0,1-.535-.09.992.992,0,0,1-.41-.378,2.1,2.1,0,0,1-.136-.246c-.034-.086-.071-.172-.1-.26a5.368,5.368,0,0,1-.143-.533c-.07-.36-.116-.721-.151-1.083l-.045-.544-.031-.541c-.017-.362-.025-.726-.018-1.093,0-.183.008-.366.021-.552s.03-.37.051-.558l.042-.282.061-.285c.027-.1.054-.193.085-.29a2.557,2.557,0,0,1,.125-.292,1.446,1.446,0,0,1,.455-.552,1.168,1.168,0,0,1,.344-.17c.081-.9.2-1.791.366-2.687a14.625,14.625,0,0,1,.358-1.5,5.951,5.951,0,0,1,.663-1.506,2.276,2.276,0,0,1,.138-.19,1.78,1.78,0,0,1,.179-.2l.117-.107c.039-.034.053-.041.081-.063l.037-.028.019-.014c.02-.013-.032.02.048-.032Zm1.432,5.009c.022-.4.068-.975.16-1.665a6.867,6.867,0,0,1,.233-1.128l.058-.159a1.537,1.537,0,0,1,.088-.173l.025-.044c-.027.03.04-.047.034-.04l0,0,.007-.007.013-.014a.376.376,0,0,1,.078-.067,1.378,1.378,0,0,1,.129-.08l.09-.039a3.782,3.782,0,0,1,.674-.189,18.56,18.56,0,0,1,2.734-.26c.464-.017.929-.034,1.388-.042a11.276,11.276,0,0,1,1.358.041,6.58,6.58,0,0,1,.665.1c.11.023.225.052.343.086.066.022.12.04.194.07l.113.052a.643.643,0,0,1,.076.043c.029.019.057.038.084.058l.04.031c.109.105.032.032.057.056l0,0,.005.007.022.029.044.058a.836.836,0,0,1,.062.1l.065.116c.019.037.043.082.054.112l.029.083.056.163a4.9,4.9,0,0,1,.117.581,7.874,7.874,0,0,1,.064.977c0,.288-.011.538-.029.743a6.063,6.063,0,0,1-.082.646l-.115.009s-.086-.221-.215-.605l-.229-.687c-.086-.262-.183-.557-.3-.86-.059-.151-.119-.3-.188-.444l-.052-.1-.026-.048c-.008-.013-.01-.008-.014-.013a.022.022,0,0,1-.006-.01c0-.006.008,0-.017-.025l0,0-.017,0c-.019,0-.063-.01-.093-.019-.078-.015-.163-.029-.256-.041-.185-.021-.381-.052-.587-.07-.817-.1-1.719-.232-2.62-.273-.451-.022-.9-.035-1.345-.036s-.877.008-1.285.043a3.33,3.33,0,0,0-.556.091l-.055.016s0,0-.005-.005-.023.008-.043.025l-.009.007,0,0c-.018.031-.041.05-.06.089l-.058.114a6.481,6.481,0,0,0-.337,1.01c-.173.656-.28,1.218-.362,1.609l-.118.618-.115-.012Zm-1.84-7.245c-.01.014-.038.019-.04.03a.066.066,0,0,1-.018.011.092.092,0,0,1-.014.02c-.015.007-.019.043-.034.064s-.018.066-.027.1c-.026.154-.047.361-.066.533s-.034.337-.036.483a.891.891,0,0,0,.039.328.325.325,0,0,0,.182.164c.08.032.152.059.2.073l.076.023v.046h-.078a1.676,1.676,0,0,1-.22-.017.5.5,0,0,1-.312-.156.812.812,0,0,1-.164-.417,3.585,3.585,0,0,1-.038-.521,5.59,5.59,0,0,1,.011-.583.7.7,0,0,1,.3-.556,1.588,1.588,0,0,1,.624-.193,6.331,6.331,0,0,1,.641-.05c.211-.008.42-.011.621-.011h.3l.286.024a2.209,2.209,0,0,1,.514.1,1.417,1.417,0,0,1,.214.1l.1.048c.029.02.055.043.081.064a.98.98,0,0,1,.141.122l.1.123a1.007,1.007,0,0,1,.1.2.389.389,0,0,1,.023.076l-.046.01a.3.3,0,0,0-.042-.065,1.323,1.323,0,0,0-.14-.148,1.158,1.158,0,0,0-.26-.156c-.026-.012-.05-.026-.078-.037l-.093-.021a1.526,1.526,0,0,0-.192-.046,2.817,2.817,0,0,0-.458-.017l-.252.011c-.09.013-.193.016-.292.024-.2.011-.4.039-.6.048s-.408.031-.595.063A1.287,1.287,0,0,0,456.251,458.511Z" transform="translate(-446.963 -445.603)"/></g></svg>