<svg xmlns="http://www.w3.org/2000/svg" width="24" height="24" viewBox="0 0 24 24"><defs><style>.a{fill:none;}.b{fill:#2b2579;}</style></defs><rect class="a" width="24" height="24"/><rect class="a" width="24" height="24"/><g transform="translate(2 3)"><path class="b" d="M13.7,7.7h0a.984.984,0,0,1,0,1.4L11.8,11H21a1,1,0,0,1,1,1h0a1,1,0,0,1-1,1H11.8l1.9,1.9a.984.984,0,0,1,0,1.4h0a.984.984,0,0,1-1.4,0L8.71,12.71a1,1,0,0,1,0-1.41L12.3,7.7A.984.984,0,0,1,13.7,7.7ZM4,19h7a1,1,0,0,1,1,1h0a1,1,0,0,1-1,1H4a2.006,2.006,0,0,1-2-2V5A2.006,2.006,0,0,1,4,3h7a1,1,0,0,1,1,1h0a1,1,0,0,1-1,1H4Z" transform="translate(-2 -3)"/></g></svg>