<svg xmlns="http://www.w3.org/2000/svg" width="310.662" height="231.511" viewBox="0 0 310.662 231.511"><defs><style>.a{fill:#ebebeb;}.b{fill:#e0e0e0;}.c{fill:#f0f0f0;}.d{fill:#fafafa;}.e{fill:#f5f5f5;}.f{fill:#f2b151;}.g{fill:#354358;}.h{fill:#ededed;}.i{fill:#e05954;}.j,.l{fill:#fff;}.k{fill:#407bff;}.l{opacity:0.6;}.l,.p,.q,.r,.s{isolation:isolate;}.m{fill:#2e353a;}.n,.u{fill:none;stroke:#263238;stroke-linecap:round;stroke-linejoin:round;}.n{stroke-width:0.48px;}.o{fill:#e4897b;}.p{opacity:0.2;}.q{opacity:0.4;}.r{opacity:0.3;}.s{opacity:0.1;}.t{fill:#de5753;}.u{stroke-width:0.696px;}</style></defs><g transform="translate(0 -54.953)"><g transform="translate(0 54.953)"><rect class="a" width="310.662" height="0.155" transform="translate(0 203.45)"/><rect class="a" width="20.58" height="0.155" transform="translate(258.955 213.451)"/><rect class="a" width="5.401" height="0.155" transform="translate(200.394 215.137)"/><rect class="a" width="11.925" height="0.155" transform="translate(246.408 207.681)"/><rect class="a" width="26.837" height="0.155" transform="translate(32.594 208.725)"/><rect class="a" width="3.935" height="0.155" transform="translate(64.963 208.725)"/><rect class="a" width="58.203" height="0.155" transform="translate(81.686 211.348)"/><path class="a" d="M161.731,230.693H41.754a3.551,3.551,0,0,1-3.547-3.546V58.5a3.55,3.55,0,0,1,3.547-3.546H161.731a3.55,3.55,0,0,1,3.546,3.546V227.146A3.551,3.551,0,0,1,161.731,230.693ZM41.754,55.108A3.4,3.4,0,0,0,38.362,58.5V227.146a3.4,3.4,0,0,0,3.391,3.391H161.731a3.4,3.4,0,0,0,3.391-3.391V58.5a3.394,3.394,0,0,0-3.391-3.391Z" transform="translate(-14.468 -54.953)"/><path class="a" d="M378.027,230.693H258.051a3.55,3.55,0,0,1-3.546-3.546V58.5a3.55,3.55,0,0,1,3.546-3.546H378.027a3.55,3.55,0,0,1,3.547,3.546V227.146A3.551,3.551,0,0,1,378.027,230.693ZM258.051,55.108A3.394,3.394,0,0,0,254.66,58.5V227.146a3.4,3.4,0,0,0,3.391,3.391H378.027a3.4,3.4,0,0,0,3.392-3.391V58.5a3.4,3.4,0,0,0-3.392-3.391Z" transform="translate(-96.375 -54.953)"/><g transform="translate(66.051 51.599)"><g transform="translate(167.136)"><path class="b" d="M375.306,139.436,378.8,138h27.38l6.213,12.3v3.234Z" transform="translate(-375.306 -138)"/><rect class="b" width="2.732" height="102.089" transform="translate(21.241 10.787)"/><g transform="translate(0.165 1.638)"><path class="c" d="M412.75,154.73H382.512l-6.941-14.093h30.238Z" transform="translate(-375.571 -140.637)"/><g transform="translate(3.331 0.113)"><path class="d" d="M386.768,145.179c.713,1.448.049,2.622-1.483,2.622a5.008,5.008,0,0,1-4.065-2.622c-.713-1.448-.049-2.622,1.483-2.622A5.007,5.007,0,0,1,386.768,145.179Z" transform="translate(-380.933 -141.477)"/><ellipse class="d" cx="2.124" cy="3.424" rx="2.124" ry="3.424" transform="matrix(0.572, -0.82, 0.82, 0.572, 6.108, 3.484)"/><ellipse class="d" cx="2.124" cy="3.424" rx="2.124" ry="3.424" transform="matrix(0.572, -0.82, 0.82, 0.572, 13.178, 3.484)"/><path class="d" d="M420.907,145.179c.713,1.448.05,2.622-1.482,2.622a5.007,5.007,0,0,1-4.065-2.622c-.713-1.448-.05-2.622,1.482-2.622A5.006,5.006,0,0,1,420.907,145.179Z" transform="translate(-393.861 -141.477)"/><ellipse class="d" cx="2.124" cy="3.424" rx="2.124" ry="3.424" transform="matrix(0.572, -0.82, 0.82, 0.572, 2.22, 9.947)"/><ellipse class="d" cx="2.124" cy="3.424" rx="2.124" ry="3.424" transform="matrix(0.572, -0.82, 0.82, 0.572, 9.291, 9.947)"/><ellipse class="d" cx="2.124" cy="3.424" rx="2.124" ry="3.424" transform="matrix(0.572, -0.82, 0.82, 0.572, 16.361, 9.947)"/><ellipse class="d" cx="2.124" cy="3.424" rx="2.124" ry="3.424" transform="matrix(0.572, -0.82, 0.82, 0.572, 23.432, 9.947)"/></g></g></g><path class="b" d="M106.306,139.436,109.8,138h27.38l6.213,12.3v3.234Z" transform="translate(-106.306 -138)"/><rect class="b" width="2.732" height="102.089" transform="translate(21.241 10.787)"/><g transform="translate(0.165 1.638)"><path class="c" d="M143.75,154.73H113.512l-6.941-14.093h30.238Z" transform="translate(-106.572 -140.637)"/><g transform="translate(3.331 0.113)"><path class="d" d="M117.768,145.179c.713,1.448.049,2.622-1.483,2.622a5.008,5.008,0,0,1-4.065-2.622c-.713-1.448-.049-2.622,1.483-2.622A5.007,5.007,0,0,1,117.768,145.179Z" transform="translate(-111.933 -141.477)"/><ellipse class="d" cx="2.124" cy="3.424" rx="2.124" ry="3.424" transform="matrix(0.572, -0.82, 0.82, 0.572, 6.108, 3.484)"/><ellipse class="d" cx="2.124" cy="3.424" rx="2.124" ry="3.424" transform="matrix(0.572, -0.82, 0.82, 0.572, 13.178, 3.484)"/><path class="d" d="M151.907,145.179c.713,1.448.05,2.622-1.482,2.622a5.007,5.007,0,0,1-4.065-2.622c-.713-1.448-.05-2.622,1.482-2.622A5.006,5.006,0,0,1,151.907,145.179Z" transform="translate(-124.861 -141.477)"/><ellipse class="d" cx="2.124" cy="3.424" rx="2.124" ry="3.424" transform="matrix(0.572, -0.82, 0.82, 0.572, 2.22, 9.947)"/><ellipse class="d" cx="2.124" cy="3.424" rx="2.124" ry="3.424" transform="matrix(0.572, -0.82, 0.82, 0.572, 9.291, 9.947)"/><ellipse class="d" cx="2.124" cy="3.424" rx="2.124" ry="3.424" transform="matrix(0.572, -0.82, 0.82, 0.572, 16.361, 9.947)"/><ellipse class="d" cx="2.124" cy="3.424" rx="2.124" ry="3.424" transform="matrix(0.572, -0.82, 0.82, 0.572, 23.432, 9.947)"/></g></g><g transform="translate(26.539 51.572)"><path class="b" d="M323.4,221H196.861v14.29H180.8v14.912H165.216V264.5h-16.2v47.221H323.4Z" transform="translate(-149.019 -221.004)"/><rect class="a" width="108.525" height="12.907" transform="translate(47.842 1.384)"/><rect class="a" width="108.618" height="13.325" transform="translate(31.78 15.878)"/><rect class="a" width="108.567" height="13.121" transform="translate(16.197 30.371)"/><rect class="a" width="108.525" height="12.907" transform="translate(0 45.046)"/></g></g></g><g transform="translate(34.863 272.393)"><ellipse class="e" cx="120.468" cy="7.036" rx="120.468" ry="7.036"/></g><g transform="translate(208.032 182.269)"><path class="f" d="M368.671,669.441l-3.381-39.16a2.317,2.317,0,0,0-3.636-1.7L329.431,651.09a2.316,2.316,0,0,0,.345,4l35.6,16.651A2.317,2.317,0,0,0,368.671,669.441Z" transform="translate(-328.441 -628.161)"/><g transform="translate(18.648 9.927)"><path class="g" d="M347.938,650.729l5.053-14.347,5.284,2.507-7.73,13.059Zm-1.921,1.449,4.619,2.16L348.5,658.9l-4.617-2.159Z" transform="translate(-343.884 -636.382)"/></g></g><g transform="translate(52.743 176.395)"><rect class="f" width="42.748" height="42.748" rx="2.705" transform="translate(0 41.974) rotate(-79.086)"/><path class="g" d="M317.868,654.051l-4.609-6.812a10.816,10.816,0,0,0-17.916,12.123l10.632,15.711,4.385-2.967-10.632-15.712a5.522,5.522,0,1,1,9.147-6.189l4.609,6.812-4.7,3.181,12.916,4.235.874-13.566Z" transform="translate(-282.787 -633.468)"/></g><g transform="translate(90.885 149.972)"><path class="h" d="M349.632,647.945l-34.216.341-23.953,24.435.341,34.216L316.24,730.89l34.216-.341,23.953-24.435-.341-34.216Z" transform="translate(-291.464 -647.945)"/><path class="i" d="M370.887,672.583l-22.825-22.374-31.96.319-22.374,22.825.319,31.96,22.825,22.374,31.96-.319,22.374-22.825Z" transform="translate(-290.994 -647.476)"/><g transform="translate(11.836 31.661)"><path class="j" d="M313.977,679.9l0,.328-3.6.036,0-.246a2.394,2.394,0,0,0-2.579-2.583c-1.7.017-2.627.877-2.615,2.03.037,3.815,9.156,1.474,9.226,8.392.042,4.309-2.685,6.011-6.584,6.051-3.458.034-6.525-1.911-6.564-5.783,0-.22.023-.467.022-.6l3.65-.037c0,.056-.024.3-.023.44a2.791,2.791,0,0,0,3.05,2.963c2.113-.022,2.844-1.154,2.833-2.253-.045-4.474-9.16-1.719-9.231-8.885-.035-3.569,2.912-5.3,6.234-5.333C311.149,674.377,313.939,676.024,313.977,679.9Z" transform="translate(-301.266 -674.115)"/><path class="j" d="M326.175,677.641l-4.667.047.157,15.7-3.514.035-.157-15.7-4.667.046-.031-3.129,12.848-.128Z" transform="translate(-298.77 -674.094)"/><path class="j" d="M340.48,683.833c.066,6.644-2.868,9.775-7.727,9.823s-7.855-3.024-7.92-9.667,2.867-9.774,7.725-9.823S340.413,677.19,340.48,683.833Zm-12.03-.566.013,1.373c.037,3.76,1.461,6.025,4.261,6s4.177-2.321,4.139-6.082l-.013-1.372c-.037-3.761-1.461-6.025-4.261-6S328.412,679.505,328.45,683.267Z" transform="translate(-296.376 -674.166)"/><path class="j" d="M343.48,685.859l.072,7.3-3.514.035-.188-18.832,6.726-.068c3.9-.039,5.926,2.329,5.959,5.6a5.556,5.556,0,0,1-5.843,5.934Zm-.085-8.4.053,5.3,2.856-.028a2.466,2.466,0,0,0,2.607-2.8,2.382,2.382,0,0,0-2.66-2.5Z" transform="translate(-293.26 -674.138)"/></g></g><g transform="translate(28.646 217.148)"><path class="k" d="M185.322,357.333H73.553L63.116,316H174.885Z" transform="translate(-52.546 -316)"/><path class="k" d="M168.312,316H56.542L46.1,357.333H157.874Z" transform="translate(-46.105 -316)"/><path class="l" d="M168.312,316H56.542L46.1,357.333H157.874Z" transform="translate(-46.105 -316)"/><g transform="translate(118.126)"><path class="k" d="M375.442,357.333H263.673L253.235,316H365Z" transform="translate(-242.666 -316)"/><path class="k" d="M358.431,316H246.662l-10.438,41.333H347.994Z" transform="translate(-236.225 -316)"/><path class="l" d="M358.431,316H246.662l-10.438,41.333H347.994Z" transform="translate(-236.225 -316)"/></g></g><g transform="translate(107.246 110.481)"><g transform="translate(0 0)"><path class="m" d="M249,173.591a6.945,6.945,0,0,0-7.156-3.947c-5.592.516-10.977,7.559-16.051,6.109s-4.453-4.642-4.453-4.642-1.864,4.6,4.453,8.45,14.9-5.879,22.049-2.98Z" transform="translate(-190.966 -153.897)"/><path class="n" d="M252.71,172.45a9.108,9.108,0,0,0-7.778-5.837c-5.98-.466-9.475,7.092-14.057,5.837" transform="translate(-194.673 -152.756)"/><path class="m" d="M277.5,182.979s2.125-8.775-5.24-10.545-10.679,2.547-11.921,7.327,1.892,11.428,8.557,10.33S277.231,185.059,277.5,182.979Z" transform="translate(-205.728 -154.815)"/><path class="o" d="M290.475,189.481c6.054-2.817,14.007-8.979,13.856-11.225s-6.251-17.336-6.251-17.336a4.746,4.746,0,0,1-1.4-.667c-.6-.45-1.35-6-.45-6.3a27.2,27.2,0,0,1,4.652-.751c.75,0,.45,4.952.15,6.152,0,0,9.683,13.494,9.043,19.952s-15.645,17.69-20.9,19.277S290.475,189.481,290.475,189.481Z" transform="translate(-215.978 -147.685)"/><path class="o" d="M186.8,327.673l1.716-3.651,5.367,1.79,4.92,1.65-1.332,4.666-5.651-2.356Z" transform="translate(-177.985 -212.371)"/><path class="m" d="M183.747,321.058c.4.2-2.242,5-2.242,5s-4.525,1.588-6.61,4.217-3.082.143-1.529-3.16l3.841-8.172C178.31,316.592,179.621,319,183.747,321.058Z" transform="translate(-172.609 -210.08)"/><g transform="translate(6.307 116.194)"><path class="k" d="M183.354,333.992a.6.6,0,0,1-.109-.011c-.328-.063-.437-.235-.471-.368-.174-.687,1.366-1.993,1.676-2.247a.145.145,0,0,1,.06-.029h0c.009,0,.018,0,.029,0h0a.194.194,0,0,1,.085.026h0s0,0,0,0h0l.01.009h0l0,0c.04.041,1,1,.964,1.8a.838.838,0,0,1-.318.631.5.5,0,0,1-.569.13c-.254-.137-.349-.612-.374-1.115a2.242,2.242,0,0,1-.642,1.052A.6.6,0,0,1,183.354,333.992Zm.966-2.134c-.651.584-1.349,1.363-1.268,1.685.007.029.029.114.247.156a.313.313,0,0,0,.239-.06A3.569,3.569,0,0,0,184.32,331.858Zm.335-.043c-.066.864-.014,1.753.2,1.87.067.038.185-.047.249-.1a.555.555,0,0,0,.213-.423A2.411,2.411,0,0,0,184.655,331.814Z" transform="translate(-182.76 -331.334)"/></g><path class="p" d="M194.7,330.781l2.075-3.954,4.971,1.674-1.307,4.678Z" transform="translate(-180.976 -213.433)"/><g transform="translate(16.351 91.022)"><path class="k" d="M254.344,290.82c-2.249,9.742-12.305,42.99-27.937,41.744s-27.125-9.851-27.436-13.781.9-6.088,4.8-6.1,15.35,3.5,20.343,3.145,9.649-21.539,9.649-21.539Z" transform="translate(-198.925 -290.82)"/><path class="q" d="M254.344,290.82c-2.249,9.742-12.305,42.99-27.937,41.744s-27.125-9.851-27.436-13.781.9-6.088,4.8-6.1,15.35,3.5,20.343,3.145,9.649-21.539,9.649-21.539Z" transform="translate(-198.925 -290.82)"/></g><path class="o" d="M346.8,396.7l-3.7,1.6-2.838-4.894-2.6-4.494,4.087-2.616,2.675,5.507Z" transform="translate(-235.11 -235.954)"/><path class="m" d="M344.96,404.411c-.167-.413,4.988-2.261,4.988-2.261s4.443,1.806,7.746,1.215,2.4,1.933-.946,3.381l-8.288,3.583C346.079,411.357,346.69,408.686,344.96,404.411Z" transform="translate(-237.872 -241.956)"/><g transform="translate(112.687 158.215)"><path class="k" d="M354.58,401.418a3.573,3.573,0,0,0-.377.054h-.085a.461.461,0,0,1-.128-.071v-.045a.054.054,0,0,0-.013-.041c-.009-.009.013-.023.013-.033v0h0v0h0c0-.019.03-.039.029-.06h0a3.226,3.226,0,0,1,.492-1.988.843.843,0,0,1,.668-.262c.275.009.454.1.518.279.1.27-.141.688-.455,1.082a2.219,2.219,0,0,1,1.179-.363.587.587,0,0,1,.416.224.574.574,0,0,1,.11.618C356.684,401.318,355.3,401.418,354.58,401.418Zm1.743-1.171a3.907,3.907,0,0,0-1.7.821c.874-.007,1.913-.128,2.065-.424.014-.026.054-.1-.081-.28a.3.3,0,0,0-.219-.113A.483.483,0,0,0,356.323,400.247Zm-1.167-1.261c-.165,0-.3.191-.414.308a2.584,2.584,0,0,0-.394,1.516c.621-.6,1.169-1.4,1.085-1.633a.378.378,0,0,0-.252-.191Z" transform="translate(-353.975 -398.965)"/></g><path class="p" d="M344.485,391.936l-4.173,1.59-2.618-4.545,4.076-2.641Z" transform="translate(-235.123 -235.969)"/><g transform="translate(45.736 71.7)"><path class="k" d="M253.357,259.722s-8.672,12.91-6.9,22.527c2.094,11.353,29.448,24.132,36.9,29.781s10.95,26.978,20.231,31.07l5.053-1.811s2.571-3.556.648-9.6c-8.069-25.353-14.748-37.468-37.041-52.647,0,0,1.467-12.29.851-18.516Z" transform="translate(-246.219 -259.722)"/><path class="r" d="M253.357,259.722s-8.672,12.91-6.9,22.527c2.094,11.353,29.448,24.132,36.9,29.781s10.95,26.978,20.231,31.07l5.053-1.811s2.571-3.556.648-9.6c-8.069-25.353-14.748-37.468-37.041-52.647,0,0,1.467-12.29.851-18.516Z" transform="translate(-246.219 -259.722)"/><g transform="translate(4.666 0.055)"><path class="k" d="M308.81,342.278l-1.243.447c-2.821-3.591-5.126-10.065-7.543-16.863-2.566-7.2-5.219-14.645-8.344-17.6-2.175-2.057-7-5.294-12.582-9.047-11.4-7.661-24.331-16.341-25.195-21.635-.913-5.629,1.963-13.644,3.684-17.77l1.33.056c-1.634,3.871-4.679,12.06-3.784,17.515.777,4.759,14.576,14.036,24.654,20.8,5.635,3.784,10.494,7.046,12.75,9.177,3.336,3.163,5.921,10.407,8.655,18.087C303.553,332.076,305.989,338.917,308.81,342.278Z" transform="translate(-253.728 -259.81)"/></g><path class="s" d="M281.826,281.395s-4.579-2.995-10.326-6.723l8.394,3.361a34.443,34.443,0,0,0,2.926-12.1A147.158,147.158,0,0,1,281.826,281.395Z" transform="translate(-255.792 -262.073)"/></g><path class="m" d="M256.115,238.81l19.894,2.037s4.74-18.267,4.863-33.6c0,0-7.616,2.478-14.465,1.651a37.8,37.8,0,0,1-12.906-4.4S256.71,224.5,256.115,238.81Z" transform="translate(-203.24 -167.11)"/><path class="o" d="M273.852,211.128c-4.734-1.23-5.919-3.471-5.919-3.471,3.422-2.491,1.522-7.808,1.522-7.808l5.656,1.821a17.1,17.1,0,0,0-.537,2.41c-.493,3.511,1.093,3.748,1.093,3.748C276.44,209.862,273.852,211.128,273.852,211.128Z" transform="translate(-208.706 -165.349)"/><path class="p" d="M276.038,201.669a17.1,17.1,0,0,0-.537,2.41,6.5,6.5,0,0,1-5.119-4.231Z" transform="translate(-209.633 -165.349)"/><g transform="translate(56.214 17.62)"><path class="o" d="M273.3,176.038c5.071.367,6.507,3.2,6.5,8.453-.008,6.565-1.792,11.1-8.032,9.247C263.29,191.22,264.874,175.428,273.3,176.038Z" transform="translate(-264.241 -173.946)"/><path class="t" d="M282.844,188.815a10.725,10.725,0,0,0,1.323,2.21,1.4,1.4,0,0,1-1.379.477Z" transform="translate(-270.546 -178.791)"/><g transform="translate(8.215 8.307)"><path class="m" d="M277.315,187.31c-.021.418-.263.745-.541.731s-.488-.363-.467-.78.263-.744.541-.731S277.335,186.893,277.315,187.31Z" transform="translate(-276.306 -186.233)"/><path class="m" d="M276.99,186.364l.925-.312S277.426,186.794,276.99,186.364Z" transform="translate(-276.565 -186.052)"/></g><g transform="translate(13.407 8.475)"><path class="m" d="M285.671,187.578c-.021.418-.262.745-.541.731s-.487-.363-.467-.78.263-.744.541-.731S285.692,187.162,285.671,187.578Z" transform="translate(-284.662 -186.502)"/><path class="m" d="M285.346,186.632l.925-.311S285.782,187.062,285.346,186.632Z" transform="translate(-284.921 -186.321)"/></g><path class="u" d="M276.881,182.117a2.647,2.647,0,0,0-2.255.608" transform="translate(-267.455 -176.238)"/><path class="u" d="M284.213,182.2a2.375,2.375,0,0,1,1.991.563" transform="translate(-271.085 -176.272)"/><path class="m" d="M279.282,195.538a12.884,12.884,0,0,0-.719,1.719c-.108-.016-.217-.032-.324-.054-1.465-.256-2.06-.859-2.276-1.45a1.914,1.914,0,0,1-.081-.9,1.854,1.854,0,0,1,.131-.5,7.015,7.015,0,0,0,2.771,1.1C279.087,195.511,279.282,195.538,279.282,195.538Z" transform="translate(-267.922 -180.885)"/><path class="j" d="M278.8,195.443l-.226.5a4.425,4.425,0,0,1-2.677-1.1,1.855,1.855,0,0,1,.131-.5A7.015,7.015,0,0,0,278.8,195.443Z" transform="translate(-267.935 -180.885)"/><path class="t" d="M278.3,198.061c-1.465-.256-2.06-.859-2.276-1.45a4.785,4.785,0,0,1,1.571.606A1.8,1.8,0,0,1,278.3,198.061Z" transform="translate(-267.984 -181.743)"/><path class="m" d="M266.383,182.919s2.673-4,2.546-7.238c0,0,10.347-3.379,10.105,6.858,0,0,1.637-8.987-7.066-9.819s-9.589,11.924-5.362,16.051C266.606,188.771,264.728,185.42,266.383,182.919Z" transform="translate(-263.489 -172.682)"/><path class="o" d="M266.729,189.633a2.232,2.232,0,0,0-2.248-2.206c-1.584.058-2.567,3.23,1.286,4.288C266.32,191.868,266.676,191.342,266.729,189.633Z" transform="translate(-263.084 -178.265)"/></g><path class="o" d="M245.286,181.711s3.569,6,1.637,12.5c0,0-13.752-15.305-15-18.8s7.709-23.374,7.709-23.374-1.5-4.194-1.185-5.126,4.194-3.107,5.126-2.485.621,7.456.155,8.388l-.466.932s-4.787,18-4.18,19.332S245.286,181.711,245.286,181.711Z" transform="translate(-195.027 -144.323)"/><path class="m" d="M274.4,175.321s-5.443,8.151-12.666,6.846c0,0-.353-6.173,4.481-7.527A10.947,10.947,0,0,1,274.4,175.321Z" transform="translate(-206.357 -155.627)"/><path class="n" d="M278.182,176.02s2.267,3.4-3.91,5.657" transform="translate(-211.106 -156.326)"/><path class="n" d="M284.369,174.979s2.6,2.39,3.681-1.03" transform="translate(-214.93 -155.542)"/><path class="k" d="M278.521,235.743l.563-.957s-.693-.209-1.9-.486c.505-3.473,2.068-16.617-1.745-25.144l-.706.544s1.767,2.7,1.942,8l-13.167-.078s-1.512-7.378-3.382-9.644l-.472.221a54.926,54.926,0,0,1,2.774,24.8,38.1,38.1,0,0,0-6.179.858l.5.932a77.038,77.038,0,0,1,11.161-.445l6.918.631A37.481,37.481,0,0,1,278.521,235.743Z" transform="translate(-204.282 -168.428)"/><path class="l" d="M278.521,235.743l.563-.957s-.693-.209-1.9-.486c.505-3.473,2.068-16.617-1.745-25.144l-.706.544s1.767,2.7,1.942,8l-13.167-.078s-1.512-7.378-3.382-9.644l-.472.221a54.926,54.926,0,0,1,2.774,24.8,38.1,38.1,0,0,0-6.179.858l.5.932a77.038,77.038,0,0,1,11.161-.445l6.918.631A37.481,37.481,0,0,1,278.521,235.743Z" transform="translate(-204.282 -168.428)"/><g transform="translate(62.27 52.265)"><path class="k" d="M276.98,235.078a2.471,2.471,0,0,1-.509,1.683,2,2,0,0,1-1.578.578,1.958,1.958,0,0,1-1.522-.565,2.324,2.324,0,0,1-.516-1.622v-.223h1.292v.311a.923.923,0,0,0,.193.665.7.7,0,0,0,.516.193.708.708,0,0,0,.559-.224,1.311,1.311,0,0,0,.2-.844v-1.591a1.284,1.284,0,0,1-1.268.771,1.326,1.326,0,0,1-1.137-.51,2.448,2.448,0,0,1-.379-1.479v-1.59a2.275,2.275,0,0,1,.534-1.622,2.382,2.382,0,0,1,3.082,0,2.275,2.275,0,0,1,.534,1.622Zm-2.075-2.112a.7.7,0,0,0,.516-.193.92.92,0,0,0,.193-.664v-1.566a.9.9,0,0,0-.193-.658.8.8,0,0,0-1.031,0,.9.9,0,0,0-.193.658v1.566a.92.92,0,0,0,.193.664A.7.7,0,0,0,274.905,232.966Z" transform="translate(-272.83 -228.442)"/><path class="k" d="M284.9,235.078a2.471,2.471,0,0,1-.509,1.683,2,2,0,0,1-1.578.578,1.958,1.958,0,0,1-1.522-.565,2.323,2.323,0,0,1-.516-1.622v-.223h1.292v.311a.923.923,0,0,0,.193.665.7.7,0,0,0,.516.193.709.709,0,0,0,.559-.224,1.311,1.311,0,0,0,.2-.844v-1.591a1.284,1.284,0,0,1-1.267.771,1.327,1.327,0,0,1-1.137-.51,2.448,2.448,0,0,1-.379-1.479v-1.59a2.275,2.275,0,0,1,.534-1.622,2.382,2.382,0,0,1,3.082,0,2.275,2.275,0,0,1,.534,1.622Zm-2.075-2.112a.7.7,0,0,0,.516-.193.92.92,0,0,0,.193-.664v-1.566a.9.9,0,0,0-.193-.658.8.8,0,0,0-1.031,0,.9.9,0,0,0-.193.658v1.566a.92.92,0,0,0,.193.664A.7.7,0,0,0,282.825,232.966Z" transform="translate(-275.829 -228.442)"/></g></g></g></g></svg>