<svg xmlns="http://www.w3.org/2000/svg" width="90.324" height="82.418" viewBox="0 0 90.324 82.418"><defs><style>.a{fill:#e6e6e6;}.b{fill:#f5f5f5;}.c{fill:#e0e0e0;}.d{fill:none;stroke:#fff;stroke-linecap:round;stroke-linejoin:round;stroke-width:3px;stroke-dasharray:0 33;}.e,.k,.l,.r,.t{fill:#fff;}.f{fill:#ebebeb;}.g{fill:#fafafa;}.h,.m{fill:#2b2579;}.i,.k,.m{opacity:0.8;}.j{opacity:0.4;}.j,.l,.n,.u{isolation:isolate;}.l,.n{opacity:0.5;}.o{fill:#263238;}.p,.t{opacity:0.3;}.q,.r{opacity:0.7;}.s{fill:#ffb573;}.u,.v{opacity:0.2;}.w{fill:#ed893e;}</style></defs><g transform="translate(0)"><path class="a" d="M81.877,118.871H40.814a1.216,1.216,0,0,1-1.214-1.214V59.934a1.216,1.216,0,0,1,1.214-1.2H81.877a1.214,1.214,0,0,1,1.212,1.214h0v57.713A1.214,1.214,0,0,1,81.877,118.871Zm-41.063-60.1a1.163,1.163,0,0,0-1.161,1.161v57.723a1.163,1.163,0,0,0,1.161,1.161H81.877a1.161,1.161,0,0,0,1.159-1.161V59.934a1.161,1.161,0,0,0-1.159-1.161Z" transform="translate(-39.6 -57.945)"/><path class="a" d="M298.177,118.871H257.112a1.214,1.214,0,0,1-1.212-1.214V59.934a1.214,1.214,0,0,1,1.212-1.2h41.065a1.214,1.214,0,0,1,1.212,1.2v57.723A1.214,1.214,0,0,1,298.177,118.871Zm-41.065-60.1a1.161,1.161,0,0,0-1.159,1.161v57.723a1.161,1.161,0,0,0,1.159,1.161h41.065a1.165,1.165,0,0,0,1.163-1.161V59.934a1.165,1.165,0,0,0-1.163-1.161Z" transform="translate(-209.901 -57.945)"/><path class="b" d="M88.736,178.257l-.291,25c-1.029,8.317-15.773,14.92-15.773,14.92s-14.746-6.6-15.782-14.92l-.3-25,15.758-5.187Z" transform="translate(-52.977 -147.969)"/><path class="c" d="M94.285,188.153,94.032,210.6c-.9,7.254-13.757,13.013-13.757,13.013S67.415,217.852,66.52,210.6l-.27-22.444,13.744-4.523Z" transform="translate(-60.583 -156.284)"/><path class="d" d="M96.525,195.861l-.238,20.6c-.851,6.805-12.9,12.2-12.9,12.2s-12.056-5.4-12.9-12.2l-.253-20.6,12.885-4.241Z" transform="translate(-63.724 -162.574)"/><rect class="b" width="28.365" height="49.772" transform="translate(56.853 21.851)"/><rect class="c" width="24.212" height="47.815" transform="translate(58.95 23.808)"/><path class="e" d="M318.819,390.469a.3.3,0,0,1-.123-.026.3.3,0,0,1-.1-.068.283.283,0,0,1-.07-.1.332.332,0,0,1-.023-.121.319.319,0,0,1,.381-.313l.06.017.055.03a.449.449,0,0,1,.049.04.212.212,0,0,1,.038.049.23.23,0,0,1,.03.055.278.278,0,0,1,.019.06.289.289,0,0,1,0,.062.3.3,0,0,1-.026.121.3.3,0,0,1-.068.1.323.323,0,0,1-.219.094Z" transform="translate(-259.188 -318.634)"/><path class="e" d="M318.48,237.3a.319.319,0,0,1,.323-.317h0a.319.319,0,0,1,.319.319h0a.319.319,0,0,1-.319.319h0a.319.319,0,0,1-.323-.321Zm0-7.832a.319.319,0,0,1,.319-.319h0a.319.319,0,0,1,.319.319h0a.319.319,0,0,1-.319.319h0A.319.319,0,0,1,318.48,229.47Zm0-7.835a.319.319,0,0,1,.319-.319h0a.319.319,0,0,1,.319.319h0a.319.319,0,0,1-.319.319h0a.319.319,0,0,1-.319-.319Zm0-7.835a.319.319,0,0,1,.319-.319h0a.319.319,0,0,1,.319.319h0a.319.319,0,0,1-.319.319h0a.319.319,0,0,1-.319-.315Zm0-7.832a.319.319,0,0,1,.319-.319h0a.319.319,0,0,1,.319.319h0a.319.319,0,0,1-.319.319h0a.319.319,0,0,1-.319-.319Z" transform="translate(-259.173 -173.621)"/><path class="e" d="M318.836,169.448a.315.315,0,0,1-.225-.094.226.226,0,0,1-.04-.049.422.422,0,0,1-.03-.053.213.213,0,0,1-.017-.062.289.289,0,0,1,0-.062.323.323,0,0,1,.094-.225.29.29,0,0,1,.047-.04.268.268,0,0,1,.055-.028.324.324,0,0,1,.06-.019.312.312,0,0,1,.125,0,.325.325,0,0,1,.06.019.267.267,0,0,1,.055.028.446.446,0,0,1,.049.04.323.323,0,0,1,.094.225.289.289,0,0,1,0,.062.338.338,0,0,1-.019.062.262.262,0,0,1-.03.053.213.213,0,0,1-.038.049A.323.323,0,0,1,318.836,169.448Z" transform="translate(-259.206 -144.615)"/><path class="e" d="M361.772,169.129a.319.319,0,0,1,.319-.319h0a.319.319,0,0,1,.319.319h0a.319.319,0,0,1-.319.319h0A.319.319,0,0,1,361.772,169.129Zm-7.592,0a.319.319,0,0,1,.319-.319h0a.319.319,0,0,1,.319.319h0a.319.319,0,0,1-.319.319h0A.319.319,0,0,1,354.18,169.129Z" transform="translate(-287.28 -144.615)"/><path class="e" d="M425.9,169.472a.306.306,0,0,1-.062,0l-.06-.017-.055-.03a.455.455,0,0,1-.049-.04.319.319,0,0,1-.094-.225.323.323,0,0,1,.094-.225.277.277,0,0,1,.049-.038.2.2,0,0,1,.055-.03.279.279,0,0,1,.06-.019.313.313,0,0,1,.125,0l.06.019a.189.189,0,0,1,.053.03.212.212,0,0,1,.049.038.323.323,0,0,1,.094.225.319.319,0,0,1-.094.225.307.307,0,0,1-.049.04.427.427,0,0,1-.053.03l-.06.017A.328.328,0,0,1,425.9,169.472Z" transform="translate(-343.496 -144.639)"/><path class="e" d="M425.58,237.3a.319.319,0,0,1,.319-.319h0a.319.319,0,0,1,.319.319h0a.319.319,0,0,1-.319.319h0a.319.319,0,0,1-.319-.319Zm0-7.832a.319.319,0,0,1,.319-.319h0a.319.319,0,0,1,.319.319h0a.319.319,0,0,1-.319.319h0a.319.319,0,0,1-.319-.319Zm0-7.835a.319.319,0,0,1,.319-.319h0a.319.319,0,0,1,.319.319h0a.319.319,0,0,1-.319.319h0a.319.319,0,0,1-.319-.319Zm0-7.835a.319.319,0,0,1,.319-.319h0a.319.319,0,0,1,.319.319h0a.319.319,0,0,1-.319.319h0a.319.319,0,0,1-.319-.315Zm0-7.832a.319.319,0,0,1,.319-.319h0a.319.319,0,0,1,.319.319h0a.319.319,0,0,1-.319.319h0a.319.319,0,0,1-.319-.319Z" transform="translate(-343.496 -173.621)"/><path class="e" d="M425.9,390.468a.319.319,0,0,1-.225-.544.442.442,0,0,1,.049-.04l.055-.03.06-.017a.312.312,0,0,1,.125,0l.06.017a.425.425,0,0,1,.053.03.306.306,0,0,1,.049.04.319.319,0,0,1,.094.225.31.31,0,0,1-.094.225A.319.319,0,0,1,425.9,390.468Z" transform="translate(-343.497 -318.633)"/><rect class="c" width="8.764" height="0.053" transform="translate(3.018 71.704)"/><rect class="c" width="8.789" height="0.053" transform="translate(20.856 71.278)"/><rect class="c" width="2.127" height="0.053" transform="translate(38.956 71.278)"/><rect class="c" width="9.836" height="0.053" transform="translate(9.991 73.094)"/><rect class="c" width="4.594" height="0.053" transform="translate(49.253 71.676)"/><rect class="c" width="5.94" height="0.053" transform="translate(55.739 71.676)"/><rect class="c" width="13.279" height="0.053" transform="translate(77.046 72.576)"/><path class="f" d="M197.137,65.046h-9.8l.536-6.106h9.8Z" transform="translate(-155.921 -58.111)"/><path class="g" d="M197.477,55.04l-.268,3.188-.268,3.832H187.52l.536-7.02Z" transform="translate(-156.063 -55.04)"/><path class="c" d="M193.837,57.239l.534,6.106h-9.8l-.536-6.106h.834l.289-.459H187.8l.379.459Z" transform="translate(-153.323 -56.41)"/><rect class="f" width="10.425" height="10.425" transform="translate(45.976 8.298)"/><rect class="c" width="0.266" height="10.425" transform="translate(56.4 8.298)"/><rect class="b" width="8.498" height="8.498" transform="translate(46.937 9.264)"/><rect class="c" width="0.079" height="8.498" transform="translate(46.939 9.264)"/><ellipse class="c" cx="1.657" cy="2.11" rx="1.657" ry="2.11" transform="translate(49.61 10.52)"/><rect class="c" width="1.746" height="1.746" transform="translate(52.147 15.807) rotate(180)"/><path class="c" d="M.009,0h6.4V.6a2.05,2.05,0,0,1-2.05,2.05H2.05A2.05,2.05,0,0,1,0,.6V0Z" transform="translate(54.423 17.762) rotate(180)"/><path class="c" d="M264.64,120.98c0,.347.638.638.638.638s.638-.283.638-.638c0-.166-.23-.259-.381-.213a.464.464,0,0,0-.266.238.823.823,0,0,0-.313-.255.238.238,0,0,0-.317.23Z" transform="translate(-216.782 -106.766)"/><path class="c" d="M291.259,113.4c0,.457.827.827.827.827s.827-.37.827-.827c0-.213-.306-.338-.5-.283a.6.6,0,0,0-.327.315,1.119,1.119,0,0,0-.41-.336.313.313,0,0,0-.417.3Z" transform="translate(-237.741 -100.734)"/><path class="b" d="M205.642,352.322c.1.615.542,1.144.576,1.765a5.056,5.056,0,0,1-.313,1.418,1.194,1.194,0,0,0,.357,1.314.953.953,0,0,0,.961-.057,2.182,2.182,0,0,0,.67-.742,6.9,6.9,0,0,0,1.031-3.5,2.483,2.483,0,0,0-.359-1.489C207.618,349.7,205.4,350.791,205.642,352.322Z" transform="translate(-170.316 -287.613)"/><path class="b" d="M201.374,347.5a.681.681,0,0,0,.342.2.493.493,0,0,0,.47-.091.555.555,0,0,0,.106-.449,1.063,1.063,0,0,0-.194-.544.591.591,0,0,0-.5-.245.425.425,0,0,0-.387.37A1.3,1.3,0,0,0,201.374,347.5Z" transform="translate(-166.838 -284.413)"/><path class="b" d="M207.639,344.969a.408.408,0,0,0-.413-.181.4.4,0,0,0-.306.328,1.176,1.176,0,0,0,0,.155,1.237,1.237,0,0,0,.028.249.483.483,0,0,0,.108.213.508.508,0,0,0,.266.136.4.4,0,0,0,.355-.089.5.5,0,0,0,.111-.372A.791.791,0,0,0,207.639,344.969Z" transform="translate(-171.336 -283.164)"/><path class="b" d="M212.53,344.821a.3.3,0,0,0-.372-.14.442.442,0,0,0-.264.321c0,.047-.013.094-.015.14a.91.91,0,0,0,.026.23.351.351,0,0,0,.111.191.391.391,0,0,0,.213.089.353.353,0,0,0,.283-.091.513.513,0,0,0,.128-.34A.638.638,0,0,0,212.53,344.821Z" transform="translate(-175.242 -283.07)"/><path class="b" d="M216.928,345.858c-.1-.155-.213-.166-.332-.1a.559.559,0,0,0-.213.317.776.776,0,0,0-.026.125.659.659,0,0,0,0,.213.27.27,0,0,0,.111.168.287.287,0,0,0,.177.043.342.342,0,0,0,.213-.1.547.547,0,0,0,.142-.3A.512.512,0,0,0,216.928,345.858Z" transform="translate(-178.761 -283.903)"/><path class="b" d="M219.848,348.9a.34.34,0,0,0,0,.153.16.16,0,0,0,.091.119.225.225,0,0,0,.234-.089.547.547,0,0,0,.134-.23.334.334,0,0,0-.032-.259C220.086,348.287,219.873,348.748,219.848,348.9Z" transform="translate(-181.509 -286.085)"/><path class="b" d="M209.124,417a2.448,2.448,0,0,0,.036-1.54c-.585-1.516-3-1.034-3.16.51Z" transform="translate(-170.613 -338.083)"/><path class="b" d="M204.254,409.079a.678.678,0,0,0,.281.283.491.491,0,0,0,.476.032.559.559,0,0,0,.213-.406,1.063,1.063,0,0,0-.047-.574.6.6,0,0,0-.425-.368.425.425,0,0,0-.468.257A1.312,1.312,0,0,0,204.254,409.079Z" transform="translate(-169.203 -332.969)"/><path class="b" d="M210.965,408.2a.413.413,0,0,0-.353-.281.4.4,0,0,0-.381.238,1.233,1.233,0,0,0-.047.149,1.172,1.172,0,0,0-.038.247.468.468,0,0,0,.049.24.515.515,0,0,0,.213.2.387.387,0,0,0,.364,0,.5.5,0,0,0,.213-.33A.817.817,0,0,0,210.965,408.2Z" transform="translate(-173.877 -332.875)"/><path class="b" d="M215.719,409.329a.306.306,0,0,0-.319-.232.449.449,0,0,0-.338.245,1.367,1.367,0,0,0-.051.13.866.866,0,0,0-.043.223.359.359,0,0,0,.055.213.385.385,0,0,0,.191.142.349.349,0,0,0,.3-.017.51.51,0,0,0,.213-.293.638.638,0,0,0-.006-.41Z" transform="translate(-177.673 -333.802)"/><path class="b" d="M219.679,411.467c-.06-.179-.172-.213-.293-.183a.566.566,0,0,0-.294.249,1.165,1.165,0,0,0-.057.115.653.653,0,0,0-.047.2.272.272,0,0,0,.062.189.283.283,0,0,0,.16.087.33.33,0,0,0,.232-.04.549.549,0,0,0,.213-.257A.51.51,0,0,0,219.679,411.467Z" transform="translate(-180.839 -335.517)"/><path class="b" d="M221.833,415.094a.336.336,0,0,0-.045.147.164.164,0,0,0,.057.138.225.225,0,0,0,.249-.026.57.57,0,0,0,.189-.187.338.338,0,0,0,.036-.259C222.209,414.56,221.9,414.955,221.833,415.094Z" transform="translate(-183.043 -338.267)"/><path class="b" d="M169.178,378.5c.079.619-.213,1.25-.064,1.857a5.144,5.144,0,0,0,.693,1.276,1.191,1.191,0,0,1,.019,1.361.948.948,0,0,1-.938.213,2.23,2.23,0,0,1-.851-.53,6.9,6.9,0,0,1-1.961-3.081,2.447,2.447,0,0,1-.068-1.538C166.569,376.526,168.989,376.96,169.178,378.5Z" transform="translate(-139.05 -308.613)"/><path class="b" d="M178.977,371.481a.67.67,0,0,1-.272.287.487.487,0,0,1-.476.043.551.551,0,0,1-.228-.4,1.082,1.082,0,0,1,.034-.576.6.6,0,0,1,.425-.374.425.425,0,0,1,.474.247A1.366,1.366,0,0,1,178.977,371.481Z" transform="translate(-148.549 -303.374)"/><path class="b" d="M172.918,370.737a.413.413,0,0,1,.347-.289.4.4,0,0,1,.385.232,1.064,1.064,0,0,1,.051.147,1.15,1.15,0,0,1,.043.245.455.455,0,0,1-.045.242.5.5,0,0,1-.213.213.387.387,0,0,1-.364.015.5.5,0,0,1-.213-.328A.791.791,0,0,1,172.918,370.737Z" transform="translate(-144.534 -303.372)"/><path class="b" d="M168.447,371.965a.3.3,0,0,1,.319-.238.449.449,0,0,1,.342.236,1.112,1.112,0,0,1,.053.13.872.872,0,0,1,.049.223.368.368,0,0,1-.053.213.385.385,0,0,1-.187.147.347.347,0,0,1-.3-.011.5.5,0,0,1-.213-.289A.638.638,0,0,1,168.447,371.965Z" transform="translate(-141.024 -304.379)"/><path class="b" d="M164.775,374.2a.233.233,0,0,1,.291-.189.566.566,0,0,1,.3.245.981.981,0,0,1,.06.113.578.578,0,0,1,.051.2.264.264,0,0,1-.057.191.281.281,0,0,1-.157.089.334.334,0,0,1-.234-.034.559.559,0,0,1-.223-.253A.512.512,0,0,1,164.775,374.2Z" transform="translate(-138.139 -306.168)"/><path class="b" d="M163.34,377.838a.374.374,0,0,1,.049.147.168.168,0,0,1-.055.14.232.232,0,0,1-.251-.021.544.544,0,0,1-.191-.183.33.33,0,0,1-.04-.259C162.95,377.319,163.267,377.708,163.34,377.838Z" transform="translate(-136.631 -308.943)"/><path class="c" d="M146.19,125.177a2.5,2.5,0,1,1,2.127-2.822A2.5,2.5,0,0,1,146.19,125.177Zm-.506-3.637a1.172,1.172,0,1,0,1.321,1A1.172,1.172,0,0,0,145.684,121.54Z" transform="translate(-121.281 -106.345)"/><rect class="c" width="0.948" height="6.101" transform="matrix(0.99, -0.138, 0.138, 0.99, 23.033, 9.034)"/><rect class="c" width="1.78" height="0.948" transform="translate(23.005 8.311) rotate(-8.049)"/><rect class="c" width="1.674" height="0.948" transform="translate(23.254 9.57) rotate(-7.94)"/><rect class="c" width="1.461" height="0.948" transform="translate(23.707 11.244) rotate(-7.94)"/></g><g transform="translate(3.511 77.603)"><ellipse class="b" cx="41.233" cy="2.407" rx="41.233" ry="2.407"/></g><g transform="translate(11.297 28.575)"><ellipse class="h" cx="5.134" cy="5.602" rx="5.134" ry="5.602" transform="translate(0 7.417) rotate(-46.25)"/><g class="i" transform="translate(0 0)"><ellipse class="e" cx="5.134" cy="5.602" rx="5.134" ry="5.602" transform="translate(0 7.417) rotate(-46.25)"/></g><path class="h" d="M115.9,204.986a.213.213,0,0,1-.128-.383,4.085,4.085,0,0,1,2.461-.766h0a.213.213,0,1,1,0,.425h0a3.654,3.654,0,0,0-2.205.681A.213.213,0,0,1,115.9,204.986Z" transform="translate(-110.805 -200.768)"/><path class="h" d="M111.322,217.137a.213.213,0,0,1-.1-.026,4.955,4.955,0,0,1-2.531-3.441,4.332,4.332,0,0,1,.851-3.615.213.213,0,0,1,.327.272,3.911,3.911,0,0,0-.763,3.271,4.545,4.545,0,0,0,2.314,3.147.213.213,0,0,1-.1.4Z" transform="translate(-105.219 -205.604)"/><path class="h" d="M125.695,227.556a4.594,4.594,0,0,1-1.4-.225.214.214,0,1,1,.132-.406,3.657,3.657,0,0,0,3.581-.638,3.811,3.811,0,0,0,1.229-3.53.215.215,0,0,1,.425-.068,4.217,4.217,0,0,1-1.372,3.919A3.922,3.922,0,0,1,125.695,227.556Z" transform="translate(-117.463 -215.468)"/><path class="h" d="M137.91,208.906a.213.213,0,0,1-.2-.149,4.532,4.532,0,0,0-2.463-2.741.213.213,0,1,1,.17-.391,4.964,4.964,0,0,1,2.7,3,.213.213,0,0,1-.136.268A.251.251,0,0,1,137.91,208.906Z" transform="translate(-126.101 -202.162)"/><path class="h" d="M127.908,204.408a.181.181,0,0,1-.049,0,4.324,4.324,0,0,0-.976-.113.213.213,0,1,1,0-.425h0a4.69,4.69,0,0,1,1.063.125.214.214,0,0,1-.049.425Z" transform="translate(-119.451 -200.795)"/><path class="h" d="M113.266,213.054a.213.213,0,0,1-.2-.138,3.375,3.375,0,0,1,.374-3.143A3.19,3.19,0,0,1,116.1,208.4h0a.213.213,0,0,1,0,.425h0a2.784,2.784,0,0,0-2.316,1.191,2.962,2.962,0,0,0-.321,2.765.213.213,0,0,1-.125.272A.227.227,0,0,1,113.266,213.054Z" transform="translate(-108.56 -204.36)"/><path class="h" d="M118.8,233.875h0a3.962,3.962,0,0,1-3.19-1.8.213.213,0,0,1,.355-.232,3.534,3.534,0,0,0,2.835,1.608.213.213,0,0,1,0,.425Z" transform="translate(-110.724 -222.752)"/><path class="h" d="M128.71,215.392a.213.213,0,0,1-.057-.419,2.684,2.684,0,0,0,2.029-3.1,3.369,3.369,0,0,0-3.309-3.05.213.213,0,0,1,0-.425h0a3.789,3.789,0,0,1,3.732,3.424,3.08,3.08,0,0,1-2.35,3.562A.214.214,0,0,1,128.71,215.392Z" transform="translate(-119.836 -204.361)"/><path class="h" d="M123.317,213.628a.213.213,0,0,1-.089-.406,2.49,2.49,0,0,1,1.036-.213.213.213,0,1,1,0,.425,2.054,2.054,0,0,0-.851.185A.213.213,0,0,1,123.317,213.628Z" transform="translate(-116.644 -207.99)"/><path class="h" d="M120.2,220.64a2.818,2.818,0,0,1-2.533-1.68,2.391,2.391,0,0,1,.347-2.684.212.212,0,0,1,.313.287,1.974,1.974,0,0,0-.272,2.218,2.392,2.392,0,0,0,2.214,1.433,1.837,1.837,0,0,0,1.669-1.1,2.2,2.2,0,0,0-.391-2.314.213.213,0,0,1,.323-.276,2.62,2.62,0,0,1,.457,2.765,2.258,2.258,0,0,1-2.046,1.353Z" transform="translate(-112.159 -210.509)"/><path class="h" d="M129.079,213.777a.2.2,0,0,1-.113-.034,2.246,2.246,0,0,0-1.2-.357.213.213,0,0,1,0-.425h0a2.654,2.654,0,0,1,1.431.425.213.213,0,0,1-.115.391Z" transform="translate(-120.143 -207.952)"/><path class="h" d="M123.71,220.69a1.7,1.7,0,0,1-1.3-.617,1.618,1.618,0,0,1-.255-1.733,1.435,1.435,0,0,1,1.333-.851h0a.213.213,0,1,1,0,.425,1.019,1.019,0,0,0-.946.6,1.193,1.193,0,0,0,.194,1.276,1.257,1.257,0,0,0,1.276.425,1.006,1.006,0,0,0,.763-.774.213.213,0,0,1,.417.091,1.427,1.427,0,0,1-1.076,1.1A1.726,1.726,0,0,1,123.71,220.69Z" transform="translate(-115.782 -211.518)"/><path class="h" d="M129.624,219.03a.213.213,0,0,1-.213-.149,1.344,1.344,0,0,0-1.248-.936.213.213,0,0,1,0-.425h0a1.78,1.78,0,0,1,1.655,1.233.209.209,0,0,1-.194.276Z" transform="translate(-120.458 -211.542)"/><path class="h" d="M127.5,223.207a.213.213,0,0,1,0-.425.213.213,0,0,0,.213-.225.313.313,0,0,0-.308-.321.236.236,0,0,0-.166.074.255.255,0,0,0-.06.187.213.213,0,1,1-.425.025.657.657,0,0,1,.638-.712.736.736,0,0,1,.734.746.638.638,0,0,1-.638.651Z" transform="translate(-119.513 -214.92)"/><path class="h" d="M133.577,205.248a4.836,4.836,0,0,1-4.891,5.363h-.23a4.831,4.831,0,0,0,4.617-5.357,5.982,5.982,0,0,0-5.553-5.355h.228A5.936,5.936,0,0,1,133.577,205.248Z" transform="translate(-120.12 -197.669)"/><g class="j" transform="translate(7.4 2.231)"><path class="e" d="M133.577,205.248a4.836,4.836,0,0,1-4.891,5.363h-.23a4.831,4.831,0,0,0,4.617-5.357,5.982,5.982,0,0,0-5.553-5.355h.228A5.936,5.936,0,0,1,133.577,205.248Z" transform="translate(-127.52 -199.9)"/></g></g><g transform="translate(29.088 7.422)"><path class="h" d="M176.388,95.643a1.841,1.841,0,0,0,.026.189,1.94,1.94,0,0,0,.6,1.063,1.914,1.914,0,0,0,1.291.517h17.968a1.582,1.582,0,0,0,1.614-1.574,1.882,1.882,0,0,0,0-.189,1.967,1.967,0,0,0-1.914-1.761H178a1.589,1.589,0,0,0-1.612,1.754Z" transform="translate(-176.379 -93.049)"/><path class="k" d="M176.388,95.643a1.841,1.841,0,0,0,.026.189,1.94,1.94,0,0,0,.6,1.063,1.914,1.914,0,0,0,1.291.517h17.968a1.582,1.582,0,0,0,1.614-1.574,1.882,1.882,0,0,0,0-.189,1.967,1.967,0,0,0-1.914-1.761H178a1.589,1.589,0,0,0-1.612,1.754Z" transform="translate(-176.379 -93.049)"/><path class="h" d="M199.65,95.8a1.126,1.126,0,0,1-.013.17,1.967,1.967,0,0,0-1.914-1.7l-19.1.043a1.608,1.608,0,0,1,1.144-.455h17.968a1.967,1.967,0,0,1,1.914,1.761Q199.653,95.712,199.65,95.8Z" transform="translate(-178.143 -93.026)"/><path class="l" d="M199.65,95.8a1.126,1.126,0,0,1-.013.17,1.967,1.967,0,0,0-1.914-1.7l-19.1.043a1.608,1.608,0,0,1,1.144-.455h17.968a1.967,1.967,0,0,1,1.914,1.761Q199.653,95.712,199.65,95.8Z" transform="translate(-178.143 -93.026)"/><path class="h" d="M258.079,97.821l.077.851.8-.3.189.425-.817.272.587.721-.368.27-.572-.749-.425.749-.4-.27.453-.721-.851-.272.115-.425.861.287-.077-.851Z" transform="translate(-239.658 -96.136)"/><path class="h" d="M234.921,97.844l.077.851.8-.3.191.425-.823.279.587.721-.366.27-.572-.749-.425.749-.4-.27.455-.721-.851-.272.115-.425.861.287-.074-.851Z" transform="translate(-221.423 -96.16)"/><path class="h" d="M211.869,97.844l.074.851.8-.3.191.425-.819.272.587.721-.355.276-.572-.749-.425.749-.4-.27.453-.721-.851-.272.117-.425.851.287-.074-.851Z" transform="translate(-203.283 -96.16)"/><path class="h" d="M188.719,97.821l.074.851.8-.3.189.425-.819.272.589.721-.368.27-.572-.749-.425.749-.4-.27.453-.721-.851-.272.115-.425.851.287-.074-.851Z" transform="translate(-185.048 -96.136)"/><rect class="h" width="0.838" height="0.213" transform="translate(14.744)"/><rect class="h" width="2.733" height="0.213" transform="translate(16.45)"/></g><g transform="translate(66.054 14.178)"><path class="m" d="M360.323,122.886l-.87,9.944A1.312,1.312,0,0,1,358.177,134h-6.905a1.063,1.063,0,0,1-1.063-1.174l.87-9.946a1.306,1.306,0,0,1,1.276-1.174h6.905a1.063,1.063,0,0,1,1.063,1.176Z" transform="translate(-350.203 -121.71)"/><path class="k" d="M360.323,122.886l-.87,9.944A1.312,1.312,0,0,1,358.177,134h-6.905a1.063,1.063,0,0,1-1.063-1.174l.87-9.946a1.306,1.306,0,0,1,1.276-1.174h6.905a1.063,1.063,0,0,1,1.063,1.176Z" transform="translate(-350.203 -121.71)"/><path class="h" d="M356.49,129.843h-.019a.213.213,0,0,1-.194-.23l.081-.91a.213.213,0,0,1,.213-.194h.961a.213.213,0,0,1,0,.425h-.766l-.064.715A.213.213,0,0,1,356.49,129.843Z" transform="translate(-354.985 -127.064)"/><path class="h" d="M389.593,129.843h-.019a.213.213,0,0,1-.194-.23l.06-.678h-.727a.213.213,0,0,1,0-.425h.957a.213.213,0,0,1,.213.232l-.081.908A.213.213,0,0,1,389.593,129.843Z" transform="translate(-380.356 -127.064)"/><path class="h" d="M354.659,162.107H353.7a.211.211,0,0,1-.211-.23l.079-.91a.213.213,0,0,1,.425.036l-.06.678h.727a.213.213,0,0,1,0,.425Z" transform="translate(-352.788 -152.464)"/><path class="h" d="M386.472,162.111h-.959a.213.213,0,1,1,0-.425h.766l.062-.715a.212.212,0,0,1,.423.036l-.079.91A.213.213,0,0,1,386.472,162.111Z" transform="translate(-377.836 -152.468)"/><ellipse class="e" cx="3.481" cy="2.799" rx="3.481" ry="2.799" transform="matrix(0.25, -0.968, 0.968, 0.25, 1.614, 8.187)"/><path class="e" d="M368.354,162.334H365.6l.24-2.754h2.754Z" transform="translate(-362.326 -151.526)"/><path class="e" d="M359.453,170.284a1.312,1.312,0,0,1-1.276,1.174h-6.905a1.063,1.063,0,0,1-1.063-1.174s3.173-1,3.564-1h2.452Z" transform="translate(-350.203 -159.164)"/><rect class="h" width="3.919" height="0.213" transform="translate(10.199 7.989) rotate(-85.29)"/><rect class="h" width="0.77" height="0.213" transform="translate(10.681 3.062) rotate(-85.29)"/></g><g transform="translate(62.577 31.04)"><rect class="h" width="0.838" height="0.213" transform="translate(5.972 9.16)"/><rect class="h" width="2.733" height="0.213" transform="translate(7.678 9.16)"/><path class="h" d="M356.578,206.527l-.53,6.061a1.1,1.1,0,0,1-1.076.989.893.893,0,0,1-.9-.989l.525-6.061a3.207,3.207,0,0,0-3.241-3.551h-2.161a3.958,3.958,0,0,0-3.862,3.551L345.118,209H343.14l.213-2.475A6.162,6.162,0,0,1,349.365,201h2.169a4.991,4.991,0,0,1,5.044,5.529Z" transform="translate(-341.166 -200.997)"/><g class="n" transform="translate(1.974)"><path class="e" d="M356.578,206.527l-.53,6.061a1.1,1.1,0,0,1-1.076.989.893.893,0,0,1-.9-.989l.525-6.061a3.207,3.207,0,0,0-3.241-3.551h-2.161a3.958,3.958,0,0,0-3.862,3.551L345.118,209H343.14l.213-2.475A6.162,6.162,0,0,1,349.365,201h2.169a4.991,4.991,0,0,1,5.044,5.529Z" transform="translate(-343.14 -200.997)"/></g><path class="h" d="M349.411,249.429,348.38,261.24a1.5,1.5,0,0,1-1.472,1.35H335.1a1.219,1.219,0,0,1-1.233-1.35l1.034-11.811a1.5,1.5,0,0,1,.736-1.146,1.446,1.446,0,0,1,.736-.213h11.809a1.276,1.276,0,0,1,.683.194,1.225,1.225,0,0,1,.551,1.165Z" transform="translate(-333.856 -238.059)"/><path class="e" d="M349.25,258.117l3.069,4.723,10.121-10.121a.1.1,0,0,0-.134-.151l-9.644,7.56-1.823-2.937Z" transform="translate(-345.976 -241.589)"/></g><g transform="translate(6.985 13.47)"><path class="h" d="M85.756,133.155H78.062a1.457,1.457,0,0,1-1.423-1.308l-.666-7.69a1.178,1.178,0,0,1,1.193-1.308h7.686a1.455,1.455,0,0,1,1.414,1.308l.672,7.686a1.178,1.178,0,0,1-1.182,1.312Z" transform="translate(-75.217 -121.899)"/><path class="k" d="M85.756,133.155H78.062a1.457,1.457,0,0,1-1.423-1.308l-.666-7.69a1.178,1.178,0,0,1,1.193-1.308h7.686a1.455,1.455,0,0,1,1.414,1.308l.672,7.686a1.178,1.178,0,0,1-1.182,1.312Z" transform="translate(-75.217 -121.899)"/><path class="e" d="M79.15,137s2.733-3.8,4.745-3.707,5.355,3.615,5.355,3.615A12.047,12.047,0,0,1,79.15,137Z" transform="translate(-77.724 -130.12)"/><path class="o" d="M78.922,136.647l-.172-.123c.111-.155,2.716-3.753,4.753-3.753h.083c2.033.1,5.287,3.5,5.425,3.649l-.153.147c-.034-.034-3.335-3.49-5.283-3.583H83.5C81.568,132.987,78.948,136.615,78.922,136.647Z" transform="translate(-77.409 -129.71)"/><path class="o" d="M73.588,148.118a1.113,1.113,0,0,1-1.138-.736.106.106,0,0,1,.068-.134.1.1,0,0,1,.134.068c.245.753,1.159.572,1.2.564a.108.108,0,0,1,.125.083.106.106,0,0,1-.083.125A1.564,1.564,0,0,1,73.588,148.118Z" transform="translate(-72.445 -141.105)"/><path class="o" d="M81.565,138.639a.106.106,0,0,1-.066-.021,3.225,3.225,0,0,1-.978-1.2.106.106,0,0,1,.068-.134.108.108,0,0,1,.134.068,3.054,3.054,0,0,0,.906,1.1.107.107,0,0,1-.064.191Z" transform="translate(-78.799 -133.259)"/><path class="o" d="M90.308,129.926h0a.111.111,0,0,1-.1-.108,11.071,11.071,0,0,0-.461-1.361c-.053-.14-.091-.242-.1-.268a.107.107,0,1,1,.2-.062,2.62,2.62,0,0,0,.094.253,7.675,7.675,0,0,1,.476,1.442.1.1,0,0,1-.108.1Z" transform="translate(-85.981 -125.993)"/><path class="o" d="M100.514,126.708a.111.111,0,0,1-.106-.1l-.149-1.7a.107.107,0,0,1,.213-.019l.149,1.714a.108.108,0,0,1-.1.115Z" transform="translate(-94.343 -123.429)"/><path class="o" d="M126.675,147.566a1.8,1.8,0,0,1-.31-.026.106.106,0,0,1-.083-.125.1.1,0,0,1,.123-.083,1.277,1.277,0,0,0,.84-.125.6.6,0,0,0,.242-.425.108.108,0,1,1,.213.032.806.806,0,0,1-.332.564A1.212,1.212,0,0,1,126.675,147.566Z" transform="translate(-114.831 -140.669)"/><path class="o" d="M118.752,138.107a.1.1,0,0,1-.079-.036.106.106,0,0,1,0-.151,2.308,2.308,0,0,0,.706-1.085.108.108,0,0,1,.121-.089.106.106,0,0,1,.089.121,2.541,2.541,0,0,1-.776,1.212.1.1,0,0,1-.062.028Z" transform="translate(-108.818 -132.84)"/><path class="o" d="M110.311,130.4h-.019a.108.108,0,0,1-.087-.123c0-.013.234-1.38.276-1.661a.108.108,0,0,1,.213.032c-.043.283-.274,1.652-.276,1.665A.106.106,0,0,1,110.311,130.4Z" transform="translate(-102.174 -126.363)"/><ellipse class="h" cx="2.305" cy="2.518" rx="2.305" ry="2.518" transform="translate(2.968 5.508) rotate(-46.25)"/><path class="p" d="M94.486,135.708a1.37,1.37,0,0,0,0-.162,1.14,1.14,0,0,0-1.114-1.023.923.923,0,0,0-.934,1.023.7.7,0,0,0,.03.162H91.081a2.171,2.171,0,0,1,2.2-2.409,2.686,2.686,0,0,1,2.622,2.409Z" transform="translate(-87.108 -130.126)"/><path class="q" d="M99.52,140.082a1.373,1.373,0,0,1,0,.162.921.921,0,0,1-.938.861,1.138,1.138,0,0,1-1.082-.861.7.7,0,0,1-.03-.162.923.923,0,0,1,.934-1.023A1.14,1.14,0,0,1,99.52,140.082Z" transform="translate(-92.144 -134.662)"/><path class="r" d="M103.55,136.063a.753.753,0,0,1-.761.834.929.929,0,0,1-.906-.834.751.751,0,0,1,.761-.834A.927.927,0,0,1,103.55,136.063Z" transform="translate(-95.619 -131.646)"/><rect class="h" width="0.838" height="0.213" transform="translate(3.801)"/><rect class="h" width="2.733" height="0.213" transform="translate(5.507)"/></g><g transform="translate(22.188 15.786)"><path class="s" d="M270.079,189.823l.072.087.1.113c.07.074.138.153.213.225.147.153.306.3.468.453a12.357,12.357,0,0,0,1.014.84c.359.268.738.513,1.116.755.213.115.387.236.587.347l.461.255a.306.306,0,0,0,.213.013,9.1,9.1,0,0,0,1.276-1.206,23.433,23.433,0,0,0,2.012-2.375l.551.759a12.483,12.483,0,0,1-1.376,2.688,5.953,5.953,0,0,1-1.085,1.214,3.049,3.049,0,0,1-.834.5,2.022,2.022,0,0,1-1.208.091,1.892,1.892,0,0,1-.3-.1l-.191-.083-.344-.157c-.232-.1-.455-.225-.681-.338a14.108,14.108,0,0,1-1.31-.793,13.514,13.514,0,0,1-1.223-.948c-.2-.177-.383-.355-.568-.549-.091-.1-.185-.2-.274-.3l-.132-.162c-.049-.06-.085-.1-.151-.2Z" transform="translate(-241.994 -176.558)"/><path class="s" d="M311,182.07l.987-2.11.942,1.689s-.619,1.063-1.291,1.063Z" transform="translate(-275.471 -169.18)"/><path class="s" d="M316.79,175.84l1,1.28-1.163,1.282-.942-1.686Z" transform="translate(-279.156 -165.937)"/><path class="h" d="M318.606,175.4h1.567a.179.179,0,0,0,.176-.162l.325-3.758a.176.176,0,0,0-.176-.194h-1.565a.179.179,0,0,0-.177.164l-.33,3.756a.179.179,0,0,0,.179.194Z" transform="translate(-281.319 -162.354)"/><path class="t" d="M319.35,176.428h1.569l.293-3.358h-1.569Z" transform="translate(-282.046 -163.756)"/><path class="s" d="M315.217,183.92h0l.279-.142a1.7,1.7,0,0,0,.389-.272l.051-.185a.268.268,0,0,0-.3-.121l-.232.064-1.151.087-.028.485.336.519h.115A.525.525,0,0,0,315.217,183.92Z" transform="translate(-278.014 -171.724)"/><path class="o" d="M262.1,181.988c.8-.145,6.422,4.732,6.422,4.732l-1.667,2.446s-6.15-4.283-5.955-5.317C261.092,182.762,260.941,182.2,262.1,181.988Z" transform="translate(-236.025 -170.775)"/><path class="u" d="M269.672,189.33l-.062,2.552c.638.5,2.943,2.263,2.943,2.263Z" transform="translate(-242.883 -176.558)"/><path class="s" d="M248.93,404.114l1.886.185.6-4.374-1.888-.185Z" transform="translate(-226.601 -342.221)"/><path class="s" d="M159.813,299.61l-.483,1.837,4.081,1.759.846-1.865Z" transform="translate(-156.056 -263.385)"/><path class="h" d="M261.811,421.274a.719.719,0,0,0,.466-.1.251.251,0,0,0,.085-.213.138.138,0,0,0-.072-.121c-.228-.136-1,.23-1.085.27a.044.044,0,0,0,.011.083A3.293,3.293,0,0,0,261.811,421.274Zm.342-.381a.149.149,0,0,1,.085.019.055.055,0,0,1,.03.049.17.17,0,0,1-.057.143,1.217,1.217,0,0,1-.851.028,2.449,2.449,0,0,1,.8-.24Z" transform="translate(-236.245 -358.809)"/><path class="h" d="M261.211,419.441h.017c.23-.1.691-.491.661-.708a.168.168,0,0,0-.166-.132.313.313,0,0,0-.253.064,1.278,1.278,0,0,0-.306.721.049.049,0,0,0,.011.045A.047.047,0,0,0,261.211,419.441Zm.47-.759h.026c.083.013.087.045.087.055.019.13-.3.444-.532.57a1.016,1.016,0,0,1,.259-.578.226.226,0,0,1,.164-.04Z" transform="translate(-236.232 -357.067)"/><path class="o" d="M249,417.6l-1.7.072a.149.149,0,0,0-.147.134l-.408,2.375a.306.306,0,0,0,.291.323h.034c.742-.038,1.1-.094,2.039-.125a20.313,20.313,0,0,0,3.126.011c.787-.179.638-.959.3-.953a4.008,4.008,0,0,1-2.977-1.525C249.453,417.842,249.124,417.593,249,417.6Z" transform="translate(-224.883 -356.283)"/><path class="o" d="M148.076,296.952l.868-1.474a.147.147,0,0,0-.036-.2l-1.769-1.631a.308.308,0,0,0-.425.068l-.019.03c-.37.638-.517.974-1,1.78a19.858,19.858,0,0,0-1.7,2.622c-.268.751.459,1.063.638.77a4.05,4.05,0,0,1,2.9-1.684C147.632,297.2,148.017,297.056,148.076,296.952Z" transform="translate(-143.934 -258.649)"/><path class="v" d="M252.487,399.933l-.308,2.256L250.29,402l.306-2.254Z" transform="translate(-227.672 -342.229)"/><path class="v" d="M175.44,305.938l-.872,1.967-2.629-1.161.67-1.874Z" transform="translate(-165.984 -267.527)"/><path class="o" d="M236.575,179.74c1.078,1.833-.24,3.379-1.342,8.857l-7.107.019a37.72,37.72,0,0,0-1.157-11.146.974.974,0,0,1,.955-1.191c.587,0,1.325.019,2.076.1a25.847,25.847,0,0,1,3.52.534,14.619,14.619,0,0,1,1.85.578C235.735,177.611,236.176,178.606,236.575,179.74Z" transform="translate(-209.292 -166.283)"/><path class="h" d="M247.162,235.586s3.992,11.541,3.9,17.092a73.284,73.284,0,0,1-1.255,13.27,10.528,10.528,0,0,1-3.973,5.572l-2.552-.151s-1.382-5.189-1.142-7.254c.478-4.111,1.9-7.2,1.725-10.973-.272-6.18-2.1-17.651-2.1-17.651Z" transform="translate(-220.956 -212.901)"/><path class="o" d="M246.136,402.732l3.6.213.327-1.082-4.028-.372Z" transform="translate(-224.326 -343.599)"/><path class="u" d="M248.63,275.578a.019.019,0,0,1,.021-.019c2.265.213,3.828-3.047,3.456-7.511l-1.2-11.378Z" transform="translate(-226.365 -229.577)"/><path class="h" d="M192.793,235.451s3.173,20.294-3.424,22.578c-3.481,1.319-6.41-.111-9.878-1.646a20.6,20.6,0,0,1-4.511-3.288l.963-2.622a12.547,12.547,0,0,1,5.317-.268c3.381.523,3.524,1.489,4.725.759,2.526-6.244-1.82-11.18,1.134-15.524Z" transform="translate(-168.378 -212.862)"/><path class="o" d="M175.629,303.79l-1.289,3.4.948.725,1.531-4.047Z" transform="translate(-167.874 -266.676)"/><path class="s" d="M169.4,210.655c-.321.474-1.95.153-1.95.153l-.347-2.018,2,.8Z" transform="translate(-162.174 -191.879)"/><path class="s" d="M162.933,208.3l.31,2.1-1.2.179a.264.264,0,0,1-.283-.213l-.461-1.489a.138.138,0,0,1,.1-.164Z" transform="translate(-157.602 -191.494)"/><path class="s" d="M166.076,205.275l.685.121.649-.487-.251-.179a.851.851,0,0,1-.336-.5,3.689,3.689,0,0,1-.087-.649v-.072a.3.3,0,0,0-.251-.255l-.17.125a1.739,1.739,0,0,0-.043.683l-.028.351-.274.119Z" transform="translate(-161.284 -187.518)"/><path class="s" d="M186.414,180l-4.024,5.529L175,186.988V188.2s6.946.515,8.507-.393,4.179-6.416,4.179-6.416Z" transform="translate(-168.393 -169.212)"/><path class="o" d="M207.93,129.426a3.824,3.824,0,0,0-4.419,2.086,5.665,5.665,0,0,0,.368,5.123c.262.47.574.912.789,1.4a2.22,2.22,0,0,1,.147,1.567c-.174.508-.353.834-.983.753,0,0,0-.349.24-.306h0s-.51.283-.71.1c.232.357.851.228,1.048-.151a.977.977,0,0,0-.887-1.321,1.25,1.25,0,0,0-1.136,1.289,1.748,1.748,0,0,0,1.063,1.465.791.791,0,0,1-.851-.457,1.806,1.806,0,0,0,2.031.942,4.831,4.831,0,0,0,2.1-1.176,3.712,3.712,0,0,0,1.7-2.671,4.517,4.517,0,0,0-.982-2.2,2.7,2.7,0,0,1-.544-2.288,3.431,3.431,0,0,1,1.444-1.435c.408-.283,1.238-.914,1.14-1.512C209.386,130.064,208.408,129.586,207.93,129.426Z" transform="translate(-189.956 -129.271)"/><path class="o" d="M206.434,185.383l-1.114-2.95.255.021a1.078,1.078,0,0,0,1.031-.549c.851-1.514,3.047-5.357,3.666-5.548a1.874,1.874,0,0,1,2.127,1.489c.253.768-2.339,4.06-3.534,5.931A3.013,3.013,0,0,1,206.434,185.383Z" transform="translate(-192.266 -166.301)"/><path class="h" d="M159.417,310.97v.023a.259.259,0,0,0,.191.162.157.157,0,0,0,.151-.032c.179-.164.064-.851.053-.919a.043.043,0,0,0-.034-.036.051.051,0,0,0-.045.017C159.589,310.39,159.359,310.753,159.417,310.97Zm.327-.638c.038.272.055.638-.045.727a.07.07,0,0,1-.068,0,.17.17,0,0,1-.128-.106c-.038-.115.043-.349.24-.625Z" transform="translate(-156.117 -271.698)"/><path class="h" d="M160.92,310.322c.055.23.272.621.464.668a.157.157,0,0,0,.174-.089.236.236,0,0,0,.013-.2c-.087-.264-.589-.481-.61-.491a.04.04,0,0,0-.062.043A.466.466,0,0,0,160.92,310.322Zm.578.425a.145.145,0,0,1-.019.111c-.028.051-.055.051-.077.047-.13-.026-.327-.347-.391-.57.164.083.425.238.481.4a.019.019,0,0,0,0,.013Z" transform="translate(-157.291 -271.726)"/><path class="h" d="M231.626,232.378l-.2.691c-.026.053.036.108.125.106h7.337c.07,0,.128-.036.132-.079l.068-.691c0-.047-.055-.089-.132-.087H231.75A.136.136,0,0,0,231.626,232.378Z" transform="translate(-212.817 -210.404)"/><path class="l" d="M231.626,232.378l-.2.691c-.026.053.036.108.125.106h7.337c.07,0,.128-.036.132-.079l.068-.691c0-.047-.055-.089-.132-.087H231.75A.136.136,0,0,0,231.626,232.378Z" transform="translate(-212.817 -210.404)"/><path class="h" d="M237.952,232.973h-.213c-.04,0-.074-.021-.07-.047l.1-.9c0-.026.04-.047.083-.047h.213c.04,0,.072.021.07.049l-.1.9A.1.1,0,0,1,237.952,232.973Z" transform="translate(-217.735 -210.138)"/><path class="h" d="M262.829,232.973h-.213c-.038,0-.072-.021-.068-.047l.1-.9c0-.028.038-.049.079-.049h.213c.04,0,.074.021.07.047l-.1.9C262.906,232.952,262.872,232.973,262.829,232.973Z" transform="translate(-237.324 -210.138)"/><path class="h" d="M251.412,232.953H251.2c-.04,0-.074-.021-.07-.047l.1-.9c0-.028.04-.049.081-.049h.213c.04,0,.072.021.07.047l-.1.9C251.49,232.932,251.454,232.953,251.412,232.953Z" transform="translate(-228.332 -210.122)"/><path class="s" d="M241.61,158.53c.225,1.159.447,3.252-.34,3.881,0,0,.315,1.189,2.418,1.506,2.322.349,1.1-.974,1.1-.974a1.641,1.641,0,0,1-1.017-2.256Z" transform="translate(-220.57 -152.308)"/><path class="s" d="M237.877,176.4a22.557,22.557,0,0,1,3.337.464l1.591.474c.283.57-.181,1.742-1.512,1.965a4,4,0,0,1-4.343-2.992Z" transform="translate(-217.169 -166.307)"/><path class="u" d="M246.465,162.68l1.276,1.276a3.234,3.234,0,0,0-.1.6c-.485-.142-1.263-.676-1.316-1.187A1.754,1.754,0,0,1,246.465,162.68Z" transform="translate(-224.546 -155.575)"/><path class="s" d="M235.715,139.128c.57,1.8.77,2.573,1.937,3.281a2.41,2.41,0,0,0,3.807-1.956c-.017-1.74-.942-4.389-2.918-4.679a2.573,2.573,0,0,0-2.826,3.347Z" transform="translate(-216.095 -134.369)"/><path class="w" d="M256.38,150.33a4.041,4.041,0,0,0,.725.851.664.664,0,0,1-.517.213Z" transform="translate(-232.467 -145.852)"/><path class="o" d="M251.908,158.548a1.24,1.24,0,0,0,.213-.043.043.043,0,0,0,.032-.051h0a.045.045,0,0,0-.053-.032,1.206,1.206,0,0,1-1.063-.213.047.047,0,0,0-.066,0,.045.045,0,0,0,0,.064,1.276,1.276,0,0,0,.938.274Z" transform="translate(-228.197 -152.045)"/><path class="h" d="M230.326,134.426a1.744,1.744,0,0,0-.8,1.393.651.651,0,0,0,.049.313.3.3,0,0,0,.242.181c.162,0,.281-.145.37-.281l.413-.638a3.172,3.172,0,0,0,.425-.678C231.168,134.3,230.579,134.264,230.326,134.426Z" transform="translate(-211.325 -133.258)"/><path class="o" d="M231.056,132.31c-1.129,1.306-1.635,4.919,1.674,5.927.553-.438-.34-1.236-.719-2.244-.249-.659,1.012-1.891,1.5-2.4s.944-1.236,1.637-1.119a.936.936,0,0,0,.544.015c.551-.249.283-.578,0-.808a2.831,2.831,0,0,0-1.489-.549A3.685,3.685,0,0,0,231.056,132.31Z" transform="translate(-211.854 -130.72)"/><path class="o" d="M233.045,133.45c1.329,1.108-.425,1.136-1.355,1.837-.891.674-.266,1.778-1.774,2.29-1.231.359-1.516.142-1.857-.1a1.939,1.939,0,0,0,1.6-1.742C229.766,134.932,231.526,132.165,233.045,133.45Z" transform="translate(-210.17 -132.297)"/><path class="s" d="M234.76,155.067a1.393,1.393,0,0,0,.885.574c.476.083.659-.353.5-.778-.155-.383-.587-.887-1.048-.778a.619.619,0,0,0-.444.753A.638.638,0,0,0,234.76,155.067Z" transform="translate(-215.341 -148.796)"/><path class="o" d="M250.121,132.79c.257.655,1,.568,1.548,1.253.338.425,1-.887.1-1.4S249.717,131.765,250.121,132.79Z" transform="translate(-227.473 -131.525)"/><path class="o" d="M246.446,145.569a.089.089,0,0,0,.091-.053,1.035,1.035,0,0,1,.7-.485.094.094,0,0,0,.072-.106.089.089,0,0,0-.1-.07,1.217,1.217,0,0,0-.836.593.091.091,0,0,0,.045.119h.03Z" transform="translate(-224.581 -141.539)"/><path class="o" d="M256.726,143.345a.085.085,0,0,0,.079-.04.087.087,0,0,0-.023-.123h0a.893.893,0,0,0-.817-.1.087.087,0,0,0-.047.119.089.089,0,0,0,.117.047h0a.7.7,0,0,1,.638.089A.128.128,0,0,0,256.726,143.345Z" transform="translate(-232.096 -140.098)"/><path class="h" d="M291.451,199.28l-1.246.708-1.3,2.786a2.289,2.289,0,0,0,2.237.151C292.134,202.281,291.451,199.28,291.451,199.28Z" transform="translate(-258.079 -184.392)"/><path class="l" d="M291.451,199.28l-1.246.708-1.3,2.786a2.289,2.289,0,0,0,2.237.151C292.134,202.281,291.451,199.28,291.451,199.28Z" transform="translate(-258.079 -184.392)"/><path class="h" d="M198.1,203.33l1.474.425,1.4,2.89a1.778,1.778,0,0,1-2.339.047C197.722,205.939,198.1,203.33,198.1,203.33Z" transform="translate(-186.52 -187.58)"/><g class="n" transform="translate(11.503 15.75)"><path class="e" d="M198.1,203.33l1.474.425,1.4,2.89a1.778,1.778,0,0,1-2.339.047C197.722,205.939,198.1,203.33,198.1,203.33Z" transform="translate(-198.023 -203.33)"/></g><path class="o" d="M258.827,147.922c.1-.019.213.1.236.253s-.034.3-.136.319-.213-.1-.236-.253S258.725,147.937,258.827,147.922Z" transform="translate(-234.282 -143.954)"/><path class="o" d="M259.5,147.2l-.359.177C259.357,147.53,259.5,147.2,259.5,147.2Z" transform="translate(-234.64 -143.387)"/><path class="o" d="M250.476,149.642c.1-.019.213.1.236.253s-.034.3-.136.319-.213-.1-.236-.253S250.37,149.661,250.476,149.642Z" transform="translate(-227.707 -145.308)"/><path class="o" d="M251.129,148.92l-.359.177C250.987,149.25,251.129,148.92,251.129,148.92Z" transform="translate(-228.05 -144.741)"/><path class="o" d="M203.258,142.641a1.554,1.554,0,0,1-.585-.111,1.628,1.628,0,0,1-.851-1.882.106.106,0,0,1,.119-.091.1.1,0,0,1,.091.119,1.417,1.417,0,0,0,.712,1.657,1.637,1.637,0,0,0,1.84-.566c.534-.71.359-1.718-.472-2.765-2.178-2.733-2.033-4.185-1.725-5.334.447-1.667,1.754-3.577,5.455-3.209a.107.107,0,0,1-.021.213c-3.549-.353-4.8,1.467-5.229,3.054-.306,1.148-.425,2.49,1.686,5.146,1.276,1.6.759,2.65.476,3.024A1.914,1.914,0,0,1,203.258,142.641Z" transform="translate(-189.493 -130.171)"/></g></svg>