<svg xmlns="http://www.w3.org/2000/svg" width="106.331" height="79.23" viewBox="0 0 106.331 79.23"><defs><style>.a{fill:#ebebeb;}.b{fill:#e6e6e6;}.c{fill:#f0f0f0;}.d{fill:#f5f5f5;}.e{fill:#fff;}.f{fill:#fafafa;}.g{fill:#ff8b7b;}.h{opacity:0.2;}.i{fill:#263238;}.j,.p{fill:#2b2579;}.k{opacity:0.6;}.l,.o{opacity:0.3;}.m{fill:#ff5652;}.n{opacity:0.1;}.p{opacity:0.4;}.q{fill:#b55b52;}.r{fill:#a02724;}</style></defs><g transform="translate(0 0)"><rect class="a" width="106.331" height="0.053" transform="translate(0 69.626)"/><rect class="a" width="7.043" height="0.053" transform="translate(88.634 73.048)"/><rect class="a" width="1.848" height="0.053" transform="translate(68.59 73.626)"/><rect class="a" width="4.081" height="0.053" transform="translate(84.34 71.074)"/><rect class="a" width="9.185" height="0.053" transform="translate(11.156 71.431)"/><rect class="a" width="1.346" height="0.053" transform="translate(22.236 71.431)"/><rect class="a" width="19.922" height="0.053" transform="translate(27.959 72.329)"/><path class="a" d="M80.485,115.141H39.422a1.214,1.214,0,0,1-1.212-1.214V56.2A1.214,1.214,0,0,1,39.422,55H80.485A1.214,1.214,0,0,1,81.7,56.214v57.713A1.214,1.214,0,0,1,80.485,115.141Zm-41.063-60.1A1.161,1.161,0,0,0,38.263,56.2v57.723a1.161,1.161,0,0,0,1.159,1.161H80.485a1.163,1.163,0,0,0,1.161-1.161V56.2a1.163,1.163,0,0,0-1.161-1.161Z" transform="translate(-30.084 -55)"/><path class="a" d="M296.78,115.141H255.714a1.216,1.216,0,0,1-1.214-1.214V56.2a1.216,1.216,0,0,1,1.214-1.2H296.78a1.214,1.214,0,0,1,1.21,1.2v57.723A1.214,1.214,0,0,1,296.78,115.141Zm-41.065-60.1a1.163,1.163,0,0,0-1.161,1.161v57.723a1.163,1.163,0,0,0,1.161,1.161H296.78a1.163,1.163,0,0,0,1.161-1.161V56.2a1.163,1.163,0,0,0-1.161-1.161Z" transform="translate(-200.377 -55)"/><rect class="b" width="3.013" height="9.381" transform="translate(76.344 15.952)"/><path class="c" d="M368.959,133.47h-10l-1.51-10.98h10Z" transform="translate(-281.434 -108.137)"/><path class="d" d="M372.837,133.47H362.51L361,122.49h10.327Z" transform="translate(-284.229 -108.137)"/><path class="e" d="M366.9,135.809l-1.272-9.249h8.6l1.274,9.249Z" transform="translate(-287.874 -111.342)"/><path class="d" d="M377.8,141.306l-.478-3.471a.638.638,0,0,1,.638-.736h3.124a.638.638,0,0,1,.638.559l.476,3.473a.638.638,0,0,1-.638.734h-3.12A.638.638,0,0,1,377.8,141.306Z" transform="translate(-297.074 -119.64)"/><rect class="b" width="45.04" height="27.784" transform="translate(15.558 5.674)"/><rect class="c" width="45.657" height="27.784" transform="translate(16.099 5.674)"/><rect class="b" width="45.04" height="2.15" transform="translate(15.558 33.46)"/><rect class="c" width="45.657" height="2.15" transform="translate(18.025 33.46)"/><rect class="f" width="24.546" height="42.416" transform="translate(60.135 7.294) rotate(90)"/><path class="e" d="M97.96,113.846,107.468,89.3h4.487l-9.508,24.546Z" transform="translate(-77.128 -82.006)"/><path class="e" d="M123.6,113.846,133.108,89.3h1.748l-9.508,24.546Z" transform="translate(-97.315 -82.006)"/><path class="e" d="M201.82,113.846,211.328,89.3h1.748l-9.506,24.546Z" transform="translate(-158.9 -82.006)"/><rect class="b" width="24.546" height="0.206" transform="translate(60.133 7.294) rotate(90)"/><rect class="b" width="9.536" height="44.293" transform="translate(85.206 25.332)"/><path class="c" d="M437.266,372.3h.959V369.57H436.26Z" transform="translate(-343.484 -302.673)"/><rect class="b" width="9.536" height="44.293" transform="translate(68.497 25.332)"/><rect class="c" width="17.547" height="42.62" transform="translate(77.195 25.332)"/><path class="c" d="M363.949,372.3h-.959V369.57h1.965Z" transform="translate(-285.795 -302.673)"/><rect class="b" width="16.058" height="20.105" transform="translate(77.939 26.113)"/><path class="c" d="M384.762,178.788h-3.477a5.5,5.5,0,0,1-3.993-1.718h11.464A5.5,5.5,0,0,1,384.762,178.788Z" transform="translate(-297.056 -151.11)"/><rect class="b" width="16.058" height="20.105" transform="translate(77.939 47.033)"/><path class="c" d="M384.762,277.158h-3.477a5.5,5.5,0,0,1-3.993-1.718h11.464A5.5,5.5,0,0,1,384.762,277.158Z" transform="translate(-297.056 -228.561)"/><path class="b" d="M129.5,239.89h15.869l2.3,9.372H131.8Z" transform="translate(-101.96 -200.571)"/><path class="b" d="M140.31,283.96l.066.517h15.869l-.064-.517Z" transform="translate(-110.471 -235.269)"/><path class="c" d="M131.8,239.89h15.869l2.3,9.372H134.1Z" transform="translate(-103.771 -200.571)"/><path class="e" d="M136.45,250.415l-2.09-8.515h14.988l2.09,8.515Z" transform="translate(-105.787 -202.153)"/><path class="c" d="M162.06,283.96l.064.517H179.6l-.064-.517Z" transform="translate(-127.596 -235.269)"/><rect class="b" width="1.901" height="20.416" transform="translate(54.089 49.208)"/><rect class="c" width="1.321" height="20.416" transform="translate(55.271 49.208)"/><rect class="c" width="24.501" height="2.337" transform="translate(57.002 51.545) rotate(180)"/><rect class="b" width="1.901" height="18.078" transform="translate(29.747 51.545)"/><rect class="c" width="1.321" height="18.078" transform="translate(30.928 51.545)"/><rect class="b" width="1.901" height="18.078" transform="translate(17.713 51.545)"/><rect class="c" width="1.321" height="18.078" transform="translate(18.895 51.545)"/><rect class="b" width="1.901" height="18.078" transform="translate(42.056 51.545)"/><rect class="c" width="1.321" height="18.078" transform="translate(43.237 51.545)"/><rect class="b" width="14.786" height="2.337" transform="translate(17.713 49.208)"/><path class="c" d="M246.249,326.082h-.461l-1.312-6.516-.232-1.142-1.455-7.1H237.26l-2.992,14.759H233.8l3.054-15.031a.223.223,0,0,1,.213-.181h5.921a.213.213,0,0,1,.213.181l1.276,6.235.213,1.14Z" transform="translate(-184.079 -256.456)"/><path class="c" d="M288.039,326.09h-.464l-3-14.759h-5.529l-1.448,7.1-.213,1.14-1.325,6.516H275.6l1.555-7.656.23-1.138,1.276-6.235a.225.225,0,0,1,.213-.181h5.9a.223.223,0,0,1,.213.181Z" transform="translate(-216.99 -256.464)"/><path class="c" d="M270,282.743h10.161c1.939,0,3.016-1.319,3.564-3.492l.268-1.242a2.552,2.552,0,0,0-2.486-3.15h-6.38c-1.319,0-1.667.315-2.58,2.3S270,282.743,270,282.743Z" transform="translate(-212.581 -228.104)"/><path class="c" d="M0,0H10.829a.508.508,0,0,1,.508.508V.557A1.391,1.391,0,0,1,9.946,1.948H0V0Z" transform="translate(62.959 54.642) rotate(180)"/></g><g transform="translate(11.933 74.415)"><ellipse class="d" cx="41.233" cy="2.407" rx="41.233" ry="2.407"/></g><g transform="translate(9.91 23.65)"><path class="g" d="M188.858,373.629l-1.361.876-2.467-2.869,1.361-.876Z" transform="translate(-155.591 -327.26)"/><path class="h" d="M186.393,370.76l-1.363.876,1.274,1.48,1.361-.878Z" transform="translate(-155.591 -327.26)"/><path class="g" d="M142.3,392.472l-1.565.153L139.11,388.9l1.565-.153Z" transform="translate(-119.437 -341.424)"/><path class="h" d="M139.12,388.913l.838,1.918h1.631l-.906-2.071Z" transform="translate(-119.444 -341.432)"/><path class="i" d="M62.944,167.016c-.787.07-.808-1.265-2.19-.638-1.757.8-1.163,2.039-2.535,1.988s-2.29,1.019-1.984,1.816.78,1.552-.189,1.874-1.629.6-1.489,1.408.827,1.127-.33,1.64-1.04,2.728.094,2.731.047,1.106,1.063,2.229,2.563,1.276,3.207.723a1.794,1.794,0,0,1,2.575-.16c1.212.851,3.264,1.063,3.171-.285s-1.276-2.233-.162-2.935,2.552-1.048,2.1-2.414c-.287-.851-1.155-1.591-.455-2.227,1.138-1.034,1.144-3.373-.251-3.966C64.76,168.457,65.54,166.782,62.944,167.016Z" transform="translate(-51.964 -166.209)"/><path class="g" d="M59.6,218.995c-.038.638-.119,1.206-.213,1.8A17.289,17.289,0,0,1,59,222.563a13.061,13.061,0,0,1-.576,1.735c-.115.285-.247.568-.387.851-.07.14-.147.279-.225.415-.036.07-.081.138-.121.213l-.062.1a1.537,1.537,0,0,1-.14.189,1.253,1.253,0,0,1-.425.313,1.355,1.355,0,0,1-.459.117,1.818,1.818,0,0,1-.689-.094,4.171,4.171,0,0,1-.936-.459,11.537,11.537,0,0,1-1.452-1.125,24.353,24.353,0,0,1-2.439-2.567l.6-.581c.425.374.851.755,1.3,1.116s.878.725,1.331,1.063a11.191,11.191,0,0,0,1.361.9,2.734,2.734,0,0,0,.638.262.4.4,0,0,0,.166.015h-.043a.3.3,0,0,0-.077.053l-.011.011h0L56.4,225c.03-.057.064-.113.091-.172q.089-.177.172-.357c.106-.242.213-.489.3-.746.179-.51.327-1.038.459-1.574s.232-1.082.321-1.633.157-1.114.213-1.638Z" transform="translate(-50.135 -207.679)"/><path class="j" d="M81.858,214.4a11.534,11.534,0,0,1-.851,2.212c-.251.523-.455.917-.455.917l-.3-.132-2.465-1.1c.187-1.329.491-2.765,1.957-3.417A1.643,1.643,0,0,1,81.858,214.4Z" transform="translate(-71.157 -202.88)"/><path class="k" d="M81.858,214.4a11.534,11.534,0,0,1-.851,2.212c-.251.523-.455.917-.455.917l-.3-.132-2.465-1.1c.187-1.329.491-2.765,1.957-3.417A1.643,1.643,0,0,1,81.858,214.4Z" transform="translate(-71.157 -202.88)"/><path class="l" d="M90.1,227.28c-.251.523-.455.917-.455.917l-.3-.132a3.941,3.941,0,0,1,.425-1.725A2.339,2.339,0,0,1,90.1,227.28Z" transform="translate(-80.259 -213.552)"/><path class="g" d="M49.15,228.991l.2-1.431-1.606.519a2.446,2.446,0,0,0,.827,1.221Z" transform="translate(-47.498 -214.513)"/><path class="g" d="M47.721,221.81l-1.121.615.242,1.136,1.606-.527Z" transform="translate(-46.6 -209.986)"/><path class="i" d="M188.9,382.321l1.478-1.063a.13.13,0,0,1,.17.015l1.006,1.048a.259.259,0,0,1-.043.385c-.521.362-.791.508-1.442.974-.4.287-1.242.98-1.795,1.376s-.972-.128-.778-.342a4.7,4.7,0,0,0,1.242-2.156A.425.425,0,0,1,188.9,382.321Z" transform="translate(-157.492 -335.505)"/><path class="i" d="M135.175,404.7h1.914a.16.16,0,0,1,.151.117l.425,1.518a.238.238,0,0,1-.234.3h-4.423c-.7,0-.851-.71-.559-.774A5.227,5.227,0,0,0,134.9,404.8.4.4,0,0,1,135.175,404.7Z" transform="translate(-114.081 -353.982)"/><path class="j" d="M94.964,211.494,88.7,213.476c-4.338-8.587-3.719-9.042-3.719-9.042s1-.572,2.044-1.048c.157-.072.317-.142.474-.213a20.921,20.921,0,0,1,2.845-.9c.142-.038.285-.072.425-.106a19.99,19.99,0,0,1,2.339-.385c.094,1.189.187,2.195.289,3.069.132,1.14.274,2.052.425,2.841a24.817,24.817,0,0,0,1.144,3.8Z" transform="translate(-76.792 -194.215)"/><path class="k" d="M94.964,211.494,88.7,213.476c-4.338-8.587-3.719-9.042-3.719-9.042s1-.572,2.044-1.048c.157-.072.317-.142.474-.213a20.921,20.921,0,0,1,2.845-.9c.142-.038.285-.072.425-.106a19.99,19.99,0,0,1,2.339-.385c.094,1.189.187,2.195.289,3.069.132,1.14.274,2.052.425,2.841a24.817,24.817,0,0,0,1.144,3.8Z" transform="translate(-76.792 -194.215)"/><path class="l" d="M122.851,216.363a6.769,6.769,0,0,1-1.029-3.573l.6.732C122.549,214.661,122.692,215.574,122.851,216.363Z" transform="translate(-105.806 -202.884)"/><path class="e" d="M103.63,207.053s1.58-.342,2.088.345c.7-.687.451-3.371.115-4.328a4.143,4.143,0,0,0-.78.213l-1.116,1.727Z" transform="translate(-91.502 -195.231)"/><path class="e" d="M94.62,211.21s-1.063.238-1.176,1.108a3.144,3.144,0,0,1-1.048-3.688,3.751,3.751,0,0,1,.8-.281l1.116,1.229Z" transform="translate(-82.491 -199.388)"/><path class="g" d="M98.447,194.144a2.805,2.805,0,0,0,1.063,1.812s.491,1.408-1.423,3.762c-2-1.427-1.425-2.86-1.425-2.86.944-.568.678-1.316.276-1.971l.555-.891a.527.527,0,0,1,.953.149Z" transform="translate(-85.955 -187.896)"/><path class="h" d="M101.128,194.117a.527.527,0,0,0-.959-.149l-.179.285h0c.015.189.023.345.021.425-.017.553.759.527,1.391.262A5.6,5.6,0,0,1,101.128,194.117Z" transform="translate(-88.636 -187.869)"/><path class="g" d="M86.723,174.547c.553,1.508.753,2.159,1.765,2.716a2.052,2.052,0,0,0,3.162-1.812c-.081-1.478-.97-3.7-2.656-3.862a2.193,2.193,0,0,0-2.271,2.958Z" transform="translate(-78.079 -170.436)"/><path class="i" d="M88.224,171.245a2.444,2.444,0,0,0-2.105-.968,2.213,2.213,0,0,0-1.608.823l-.991,2.167s.615,2.79,1.629,1.489a3.331,3.331,0,0,0,.387-2.741,6.874,6.874,0,0,0,1.174-.272,1.307,1.307,0,0,0,1.382-.183c.085-.079.147-.14.191-.189l.036-.04C88.435,171.183,88.339,171.2,88.224,171.245Zm-1.34.451a11.091,11.091,0,0,1,1.106-.3A1.091,1.091,0,0,1,86.884,171.7Z" transform="translate(-75.668 -169.401)"/><path class="g" d="M87.254,189.673a1.178,1.178,0,0,0,.721.538c.4.1.589-.259.468-.638-.108-.334-.447-.789-.851-.725a.53.53,0,0,0-.338.825Z" transform="translate(-78.533 -184.029)"/><path class="j" d="M102.548,251.444s-.213,12.843,1.465,17.483c1.616,4.449,6.437,12.1,6.437,12.1l2.794-.07s-4.44-9.687-5.166-13.515c-1.208-6.352-.942-17.438-.942-17.438Z" transform="translate(-90.643 -232.181)"/><path class="l" d="M114.38,252.552l.751-2.127L116.46,250s-.121,5.046.17,10.28A25.675,25.675,0,0,1,114.38,252.552Z" transform="translate(-99.966 -232.181)"/><path class="i" d="M135.977,392.308l3.452-.087-.2-1.061-3.768.179Z" transform="translate(-116.563 -343.321)"/><path class="j" d="M109,249.029s4.36,9.972,7.177,15.648c2.275,4.585,9.357,10.735,9.357,10.735l1.942-1.346s-5.329-7.286-6.9-10.395c-5.029-9.948-3.79-14.049-6.682-16.211Z" transform="translate(-95.73 -230.181)"/><path class="i" d="M184.542,372.228l2.28-1.623-.517-1L183.8,371.5Z" transform="translate(-154.623 -326.354)"/><path class="i" d="M107.743,245.5l.459.472c.036.036,0,.1-.074.121l-6.573,2.078a.109.109,0,0,1-.125-.028l-.234-.544c-.017-.036.021-.085.083-.1l6.348-2.01a.119.119,0,0,1,.117.015Z" transform="translate(-89.581 -228.62)"/><path class="j" d="M127.557,247.092l.17-.053c.034,0,.055-.038.045-.057l-.308-.7a.066.066,0,0,0-.079-.019l-.17.055c-.034.011-.055.036-.045.057l.31.7C127.487,247.094,127.521,247.1,127.557,247.092Z" transform="translate(-110.033 -229.23)"/><path class="j" d="M103.742,254.633l.17-.053c.034-.011.053-.036.045-.057l-.31-.7c0-.021-.045-.028-.079-.017l-.17.053c-.032.011-.053.036-.045.057l.31.7a.068.068,0,0,0,.079.017Z" transform="translate(-91.282 -235.17)"/><path class="j" d="M115.647,250.9l.17-.053c.034-.011.055-.036.045-.057l-.31-.7c0-.019-.043-.028-.077-.017l-.17.053a.045.045,0,0,0-.045.057l.308.7C115.579,250.9,115.613,250.9,115.647,250.9Z" transform="translate(-100.656 -232.235)"/><path class="i" d="M99.637,182.979c.038.125.134.213.213.183a.213.213,0,0,0,.079-.27c-.038-.123-.132-.213-.213-.183S99.6,182.849,99.637,182.979Z" transform="translate(-88.346 -179.195)"/><path class="i" d="M106.289,180.978c.038.125.134.213.213.183s.117-.145.081-.27-.134-.213-.213-.183S106.253,180.853,106.289,180.978Z" transform="translate(-93.585 -177.62)"/><path class="i" d="M106.56,180.157l.274-.177S106.751,180.261,106.56,180.157Z" transform="translate(-93.809 -177.051)"/><path class="m" d="M104.68,183.53a3.557,3.557,0,0,0,.685.666.568.568,0,0,1-.425.213Z" transform="translate(-92.329 -179.847)"/><path class="i" d="M100.137,190.07a.038.038,0,0,0,.013-.04A.04.04,0,0,0,100.1,190a1.025,1.025,0,0,1-.923-.147.039.039,0,1,0-.051.06,1.1,1.1,0,0,0,1,.162Z" transform="translate(-87.947 -184.819)"/><path class="i" d="M96.711,180.254a.079.079,0,0,0,.021-.034.615.615,0,0,1,.4-.385.077.077,0,1,0-.032-.149.753.753,0,0,0-.508.489.077.077,0,0,0,.045.1A.087.087,0,0,0,96.711,180.254Z" transform="translate(-85.955 -176.817)"/><path class="i" d="M105.559,177.782a.054.054,0,0,1,0-.015.081.081,0,0,0-.062-.089.768.768,0,0,0-.676.183.077.077,0,1,0,.111.106.608.608,0,0,1,.536-.138A.079.079,0,0,0,105.559,177.782Z" transform="translate(-92.422 -175.226)"/><path class="g" d="M124.059,208.86c.253.189.466.366.687.557s.425.383.638.583c.415.4.814.817,1.193,1.255a14.145,14.145,0,0,1,1.063,1.389c.085.119.159.249.238.372s.157.249.228.381.145.249.213.4l.113.236.091.238a5.608,5.608,0,0,1,.272,1.871,10.352,10.352,0,0,1-.189,1.757,15.556,15.556,0,0,1-.425,1.667,16.265,16.265,0,0,1-.6,1.606l-.77-.285c.132-.51.257-1.046.351-1.576a15.074,15.074,0,0,0,.228-1.586,10.3,10.3,0,0,0,.036-1.552,6.2,6.2,0,0,0-.089-.732,4.208,4.208,0,0,0-.194-.655l-.066-.147L127,214.5c-.057-.1-.136-.213-.213-.321s-.14-.213-.213-.321-.147-.213-.228-.315c-.31-.425-.661-.812-1.01-1.206s-.732-.763-1.121-1.125c-.191-.183-.389-.362-.587-.536s-.41-.349-.593-.5Z" transform="translate(-106.784 -199.79)"/><path class="g" d="M137.605,263l-1.165.851,1.489.787a2.452,2.452,0,0,0,.3-1.444Z" transform="translate(-117.334 -242.416)"/><path class="g" d="M134.71,268.4l1.219.376.649-.965-1.5-.787Z" transform="translate(-115.972 -245.581)"/><path class="j" d="M118.6,201.8c.814-.036,2.416,1.965,2.416,1.965l-1.663,2.352s-1.867-1.489-2.012-2.524C117.223,202.708,117.565,201.841,118.6,201.8Z" transform="translate(-102.281 -194.229)"/><path class="k" d="M118.6,201.8c.814-.036,2.416,1.965,2.416,1.965l-1.663,2.352s-1.867-1.489-2.012-2.524C117.223,202.708,117.565,201.841,118.6,201.8Z" transform="translate(-102.281 -194.229)"/><path class="j" d="M190.853,387.724h-.026a.213.213,0,0,1-.17-.13.136.136,0,0,1,0-.132c.1-.179.689-.213.755-.213a.04.04,0,0,1,.036.021.038.038,0,0,1,0,.043C191.306,387.471,191.052,387.724,190.853,387.724Zm.468-.389c-.234.017-.544.072-.6.166a.051.051,0,0,0,0,.057.142.142,0,0,0,.111.089C190.946,387.66,191.125,387.543,191.32,387.335Z" transform="translate(-160.008 -340.243)"/><path class="j" d="M191.624,385.846c-.2,0-.581-.108-.653-.266a.138.138,0,0,1,.043-.162.213.213,0,0,1,.164-.053c.232.025.506.4.517.425a.036.036,0,0,1,0,.038.04.04,0,0,1-.03.021Zm-.472-.4a.121.121,0,0,0-.085.034c-.036.032-.032.057-.026.074a.781.781,0,0,0,.547.213c-.1-.121-.281-.313-.425-.328Z" transform="translate(-160.261 -338.758)"/><path class="j" d="M140.031,404.688a.638.638,0,0,1-.374-.089.24.24,0,0,1-.1-.185.115.115,0,0,1,.049-.1c.174-.117.827.179.957.24a.036.036,0,0,1,.021.038.038.038,0,0,1-.03.034,2.638,2.638,0,0,1-.525.066Zm-.3-.332a.147.147,0,0,0-.077.017.038.038,0,0,0-.015.036.164.164,0,0,0,.068.128,1.063,1.063,0,0,0,.721.034A2.34,2.34,0,0,0,139.726,404.356Z" transform="translate(-119.789 -353.653)"/><path class="j" d="M141.8,403.2h-.013c-.213-.089-.655-.44-.638-.621,0-.038.032-.089.13-.1.383-.047.544.638.551.676a.04.04,0,0,1-.013.038.034.034,0,0,1-.017.006Zm-.47-.649H141.3c-.04,0-.062.017-.066.036-.013.1.289.383.51.5C141.691,402.926,141.552,402.554,141.329,402.554Z" transform="translate(-121.041 -352.233)"/><path class="i" d="M99.91,182.137l.274-.176S100.1,182.241,99.91,182.137Z" transform="translate(-88.573 -178.61)"/></g><g transform="translate(28.04 11.626)"><path d="M165.193,109.67H134.287a2.418,2.418,0,0,0-2.431,2.552l2.9,60.092a2.716,2.716,0,0,0,2.675,2.552h30.906a2.416,2.416,0,0,0,2.429-2.552l-2.9-60.092A2.716,2.716,0,0,0,165.193,109.67Z" transform="translate(-131.852 -109.67)"/><path class="i" d="M170.539,109.67H139.624a2.416,2.416,0,0,0-2.429,2.552l2.9,60.092a2.716,2.716,0,0,0,2.675,2.552h30.906a2.416,2.416,0,0,0,2.429-2.552l-2.9-60.092A2.716,2.716,0,0,0,170.539,109.67Z" transform="translate(-136.056 -109.67)"/><path class="j" d="M148.99,179.464a.917.917,0,0,1-.891-.851l-2.892-60.092a.812.812,0,0,1,.81-.851h30.906a.912.912,0,0,1,.891.851l2.9,60.092a.812.812,0,0,1-.808.851Z" transform="translate(-142.366 -115.969)"/><path class="n" d="M150.552,180.613a.464.464,0,0,1-.447-.425l-2.9-60.092a.41.41,0,0,1,.4-.425h30.906a.461.461,0,0,1,.447.425l2.9,60.092a.41.41,0,0,1-.4.425Z" transform="translate(-143.943 -117.543)"/><g class="o" transform="translate(8.711 49.057)"><path class="f" d="M180.039,350.909h-6.123a.664.664,0,0,1-.655-.625l-.447-9.3a.6.6,0,0,1,.6-.638h6.133a.659.659,0,0,1,.653.623l.44,9.3a.6.6,0,0,1-.6.638Zm-6.631-10.342a.4.4,0,0,0-.285.119.4.4,0,0,0-.106.291l.449,9.293a.449.449,0,0,0,.442.425h6.131a.389.389,0,0,0,.391-.413l-.449-9.3a.447.447,0,0,0-.44-.425Z" transform="translate(-172.814 -340.35)"/><path class="f" d="M182.363,350.733h-5.757a.106.106,0,1,1,0-.213h5.763a.106.106,0,1,1,0,.213Z" transform="translate(-175.716 -348.357)"/><path class="f" d="M182.612,356.383h-5.765a.108.108,0,0,1-.106-.106.106.106,0,0,1,.106-.106h5.765a.106.106,0,0,1,.106.106A.108.108,0,0,1,182.612,356.383Z" transform="translate(-175.905 -352.806)"/><path class="f" d="M182.882,362.033h-5.765a.108.108,0,0,1-.106-.106.106.106,0,0,1,.106-.106h5.765a.106.106,0,1,1,0,.213Z" transform="translate(-176.118 -357.254)"/><path class="f" d="M183.16,367.683H177.4a.106.106,0,1,1,0-.213h5.763a.106.106,0,0,1,0,.213Z" transform="translate(-176.338 -361.703)"/><path class="f" d="M183.43,373.333h-5.763a.106.106,0,1,1,0-.213h5.763a.106.106,0,1,1,0,.213Z" transform="translate(-176.551 -366.151)"/><path class="f" d="M182.519,378.983h-4.583a.106.106,0,1,1,0-.213h4.583a.106.106,0,0,1,.106.106A.108.108,0,0,1,182.519,378.983Z" transform="translate(-176.763 -370.599)"/></g><g class="o" transform="translate(6.554 20.307)"><path class="f" d="M175.913,210.364l-4.2.672a4.892,4.892,0,0,0-.638-1.121,3.009,3.009,0,0,0-.878-.638l.157,3.3a13.009,13.009,0,0,1,4.719,1.948,4.734,4.734,0,0,1,1.7,3.5,4.638,4.638,0,0,1-.419,2.284,5.183,5.183,0,0,1-1.329,1.733,5.332,5.332,0,0,1-1.78,1.008,8.777,8.777,0,0,1-2.361.37l.028.581a.785.785,0,0,1-.791.831h0a.883.883,0,0,1-.872-.832l-.028-.581a10.742,10.742,0,0,1-2.741-.54,5.875,5.875,0,0,1-1.852-1.087,5.742,5.742,0,0,1-1.246-1.5,7.231,7.231,0,0,1-.708-1.942l4.574-.534a4.45,4.45,0,0,0,.638,1.627,3.073,3.073,0,0,0,1.187.889l-.194-4.024a22.5,22.5,0,0,1-3.318-1.106,4.664,4.664,0,0,1-1.74-1.5,4.506,4.506,0,0,1-.827-2.514,4.3,4.3,0,0,1,1.255-3.39,6.093,6.093,0,0,1,4.147-1.51l-.015-.3a.785.785,0,0,1,.791-.832h0a.883.883,0,0,1,.872.832l.015.3a7.3,7.3,0,0,1,3.958,1.208A5.159,5.159,0,0,1,175.913,210.364Zm-7.379-1.138a2,2,0,0,0-.985.593,1.25,1.25,0,0,0-.245.836,1.459,1.459,0,0,0,.332.876,2.275,2.275,0,0,0,1.04.623Zm2.205,11.212a2.452,2.452,0,0,0,1.382-.715,1.54,1.54,0,0,0,.4-1.114,1.58,1.58,0,0,0-.425-.989,3.707,3.707,0,0,0-1.527-.838Z" transform="translate(-162.67 -205.16)"/></g><path class="h" d="M199.254,146.56H178.2l2.052,42.556a6.89,6.89,0,0,0,6.805,6.495h21.054l-2.05-42.556A6.886,6.886,0,0,0,199.254,146.56Z" transform="translate(-168.344 -138.715)"/><path class="f" d="M204.434,146.56h-26.2a6.888,6.888,0,0,1,6.805,6.495l1.674,34.643a6.89,6.89,0,0,0,6.805,6.495h13.213a6.133,6.133,0,0,0,6.186-6.495l-1.672-34.643A6.886,6.886,0,0,0,204.434,146.56Z" transform="translate(-168.367 -138.715)"/><path class="b" d="M256.3,340a6.131,6.131,0,0,1-6.18,6.495h26.2A6.133,6.133,0,0,0,282.5,340Z" transform="translate(-224.969 -291.017)"/><path class="j" d="M248.362,244.1H229.843a.513.513,0,0,1-.506-.483h0a.457.457,0,0,1,.459-.483h18.519a.513.513,0,0,1,.515.483h0a.457.457,0,0,1-.468.483Z" transform="translate(-208.605 -214.748)"/><path class="j" d="M249.042,258.266H230.523a.513.513,0,0,1-.506-.483h0a.457.457,0,0,1,.459-.483H249a.513.513,0,0,1,.5.483h0a.457.457,0,0,1-.459.483Z" transform="translate(-209.141 -225.904)"/><path class="j" d="M249.724,272.425H231.2a.513.513,0,0,1-.506-.483h0a.457.457,0,0,1,.459-.483h18.531a.513.513,0,0,1,.506.483h0a.457.457,0,0,1-.47.483Z" transform="translate(-209.676 -237.053)"/><path class="j" d="M250.412,286.615H231.894a.515.515,0,0,1-.506-.483h0a.457.457,0,0,1,.459-.483h18.519a.513.513,0,0,1,.506.483h0a.457.457,0,0,1-.459.483Z" transform="translate(-210.219 -248.225)"/><path class="j" d="M243.73,300.785H232.573a.513.513,0,0,1-.506-.483h0a.457.457,0,0,1,.459-.483h11.156a.513.513,0,0,1,.506.483h0a.457.457,0,0,1-.459.483Z" transform="translate(-210.755 -259.382)"/><ellipse class="j" cx="5.68" cy="5.961" rx="5.68" ry="5.961" transform="matrix(0.699, -0.716, 0.716, 0.699, 21.763, 18.838)"/><path class="e" d="M259.9,180.921a4.659,4.659,0,0,1-.47,2.288,4.523,4.523,0,0,1-4.1,2.514,5.074,5.074,0,0,1-4.343-2.514,4.942,4.942,0,0,1-.691-2.288,4.534,4.534,0,0,1,4.57-4.8A5.1,5.1,0,0,1,259.9,180.921Z" transform="translate(-225.105 -161.988)"/><path class="p" d="M262.021,204.735a4.523,4.523,0,0,1-4.1,2.514,5.074,5.074,0,0,1-4.343-2.514,7.273,7.273,0,0,1,4.16-1.276,7.868,7.868,0,0,1,4.281,1.276Z" transform="translate(-227.693 -183.514)"/><ellipse class="p" cx="2.088" cy="2.19" rx="2.088" ry="2.19" transform="matrix(0.699, -0.716, 0.716, 0.699, 26.889, 17.252)"/></g><g transform="translate(58.282 11.908)"><path class="q" d="M350.4,395.34h-1.561l-.157-3.62h1.563Z" transform="translate(-332.811 -332.02)"/><path class="h" d="M348.69,391.73l.079,1.865h1.563l-.081-1.865Z" transform="translate(-332.819 -332.028)"/><path class="q" d="M406.874,376.966l-1.484.485-1.869-3.2,1.487-.485Z" transform="translate(-375.989 -317.888)"/><path class="h" d="M405.007,373.77l-1.487.485.965,1.648,1.484-.485Z" transform="translate(-375.989 -317.888)"/><path class="q" d="M374.774,162.92c.194.236.357.447.525.678s.327.453.487.683c.315.461.617.934.9,1.421a15.931,15.931,0,0,1,1.431,3.128l.036.106.017.055.023.087.043.174.023.159a3.189,3.189,0,0,1,.023.576,5.821,5.821,0,0,1-.14.963,11.271,11.271,0,0,1-.534,1.663,19.315,19.315,0,0,1-1.523,2.977l-1.063-.508c.319-1,.638-2.018.872-3.011a12.088,12.088,0,0,0,.276-1.455,3.69,3.69,0,0,0,.023-.638,1.275,1.275,0,0,0-.03-.225l-.011-.038a.192.192,0,0,1-.011-.021h0l-.017-.04-.034-.083-.143-.334-.159-.332c-.106-.213-.223-.442-.34-.663-.242-.438-.5-.874-.776-1.308s-.561-.851-.851-1.276-.606-.851-.893-1.236Z" transform="translate(-351.904 -151.878)"/><path class="q" d="M380.97,218.549l-.61,1.35h1.746s.279-1.025-.355-1.44Z" transform="translate(-357.754 -195.606)"/><path class="q" d="M380.564,226.748l1.62-.313-.079-1.206H380.36Z" transform="translate(-357.754 -200.937)"/><path class="i" d="M344.118,129.848c0,.128-.066.23-.149.23s-.149-.1-.149-.23.068-.228.149-.228S344.118,129.722,344.118,129.848Z" transform="translate(-328.985 -125.659)"/><path class="r" d="M342.772,131.77a4.464,4.464,0,0,1-.6,1.076.729.729,0,0,0,.6.115Z" transform="translate(-327.686 -127.352)"/><path class="i" d="M344.87,126.361a.066.066,0,0,1-.043-.015.6.6,0,0,0-.525-.1.074.074,0,0,1-.053-.138.734.734,0,0,1,.666.115.077.077,0,0,1,.017.1.079.079,0,0,1-.062.03Z" transform="translate(-329.29 -122.871)"/><path class="q" d="M351.318,137.52c-.225,1.144-.449,3.239.351,4,0,0-.313,1.159-2.435,1.159-2.339,0-1.116-1.159-1.116-1.159,1.276-.3,1.242-1.248,1.019-2.137Z" transform="translate(-332.117 -131.879)"/><path class="i" d="M352.13,154.163c.168-.366.353-.787-.03-.919a9.808,9.808,0,0,0-3.507-.019.817.817,0,0,0-.566,1.017Z" transform="translate(-332.272 -144.125)"/><path class="j" d="M409.062,391.458c-.115.111-.245.2-.342.185a.153.153,0,0,1-.121-.128.17.17,0,0,1,.026-.142c.128-.2.638-.283.666-.285a.038.038,0,0,1,.036.015.036.036,0,0,1,0,.04,1.962,1.962,0,0,1-.264.315Zm-.347-.081a.212.212,0,0,0-.03.034.1.1,0,0,0-.015.085c.017.066.049.072.06.072.108.017.34-.213.483-.391A1.227,1.227,0,0,0,408.715,391.378Z" transform="translate(-379.983 -331.523)"/><path class="j" d="M409.144,390.086l-.017.011c-.177.047-.638.017-.736-.132a.125.125,0,0,1,.017-.153.213.213,0,0,1,.147-.074c.234-.017.572.283.587.3a.034.034,0,0,1,.011.036A.025.025,0,0,1,409.144,390.086Zm-.666-.238-.013.013c-.03.036-.017.055-.013.064.057.087.381.136.581.113a.917.917,0,0,0-.472-.225.125.125,0,0,0-.079.036Z" transform="translate(-379.81 -330.459)"/><path class="j" d="M344.669,407.718c-.2,0-.393-.028-.457-.117a.136.136,0,0,1,0-.162.185.185,0,0,1,.117-.087c.259-.07.806.24.829.255a.034.034,0,0,1,.017.038.036.036,0,0,1-.028.03,2.859,2.859,0,0,1-.479.043Zm-.247-.3a.258.258,0,0,0-.072,0,.109.109,0,0,0-.072.051c-.026.047-.017.07,0,.083.072.1.468.1.757.062A1.662,1.662,0,0,0,344.422,407.416Z" transform="translate(-329.272 -344.32)"/><path class="j" d="M346.643,406.3h-.015c-.187-.085-.561-.425-.534-.6,0-.043.036-.094.138-.1a.283.283,0,0,1,.213.064,1.07,1.07,0,0,1,.242.6.045.045,0,0,1-.017.034.036.036,0,0,1-.028,0Zm-.381-.638h-.021c-.068,0-.072.032-.072.04-.017.106.236.372.425.487a.851.851,0,0,0-.213-.481.2.2,0,0,0-.119-.043Z" transform="translate(-330.774 -342.942)"/><path class="i" d="M406.9,385.632l1.276-1.214a.134.134,0,0,1,.17-.015l1.182.791a.228.228,0,0,1,.025.357c-.449.425-.689.6-1.246,1.129-.345.33-1.37,1.446-1.844,1.9s-.985.043-.832-.185a6.553,6.553,0,0,0,1.157-2.52.391.391,0,0,1,.111-.245Z" transform="translate(-377.634 -326.24)"/><path class="i" d="M335.474,407.89h1.7a.134.134,0,0,1,.132.106l.308,1.389a.225.225,0,0,1-.223.276c-.617,0-1.506-.045-2.28-.045-.9,0-1.684.049-2.745.049-.638,0-.819-.649-.551-.708a9.393,9.393,0,0,0,3.275-.946A.732.732,0,0,1,335.474,407.89Z" transform="translate(-319.44 -344.752)"/><path class="q" d="M297.688,168.016c-.621.914-1.261,1.769-1.95,2.614a29.379,29.379,0,0,1-2.214,2.441l-.3.293-.077.072-.055.051-.081.057a2.063,2.063,0,0,1-.321.213,2.863,2.863,0,0,1-1.159.325,6.526,6.526,0,0,1-1.842-.153,13.872,13.872,0,0,1-3.158-1.11l.391-1.106a24.822,24.822,0,0,0,3.016.413,5.561,5.561,0,0,0,1.333-.055.851.851,0,0,0,.353-.138c.011,0,0-.013,0-.013h0l.017-.017.062-.07.253-.276c.663-.757,1.308-1.565,1.933-2.39s1.253-1.672,1.85-2.5Z" transform="translate(-283.878 -154.83)"/><path class="j" d="M371.6,157.822c1.463.336,3.143,4.328,3.143,4.328l-2.941,2.016a24.651,24.651,0,0,1-1.937-3.3C368.99,159.034,370.1,157.477,371.6,157.822Z" transform="translate(-349.246 -147.826)"/><path class="l" d="M374.22,170l1.391,3.7-.138.1s-.6-.851-1.253-1.984Z" transform="translate(-352.92 -157.452)"/><path class="j" d="M335.16,156.575s-1.663,1.878-.091,13.5h8.356c.057-1.276-.749-7.541.489-13.585a21.875,21.875,0,0,0-2.8-.353,30.894,30.894,0,0,0-3.551,0A15.634,15.634,0,0,0,335.16,156.575Z" transform="translate(-321.563 -146.5)"/><path class="l" d="M336.084,174.18a7.414,7.414,0,0,1-1.65,3.577c-.034-.749-.047-1.421-.045-2.022Z" transform="translate(-321.559 -160.743)"/><path class="j" d="M324.878,159.525c.213,1.478-2.709,5.257-2.709,5.257l-2.928-2.016a11.553,11.553,0,0,1,2.18-3.447C322.983,157.754,324.654,157.915,324.878,159.525Z" transform="translate(-309.632 -148.183)"/><path class="q" d="M280.549,186.615,279.4,185.43l-1.223,1.576a2.449,2.449,0,0,0,2.039.638Z" transform="translate(-277.304 -169.601)"/><path class="q" d="M274.585,182.33l-.525,1.655.876.574,1.223-1.576Z" transform="translate(-274.06 -167.16)"/><path class="q" d="M348.56,121.026c-.1,1.546-.072,2.458-.851,3.252a2.058,2.058,0,0,1-3.454-1.063c-.334-1.391-.121-3.688,1.393-4.3a2.114,2.114,0,0,1,2.911,2.114Z" transform="translate(-329.22 -117.104)"/><path class="i" d="M340.482,111.688c.476.438.274.927.026,1.019.772.16.885.774.478,2.071-.387,1.242-1.325,2.907-2.5,3.009-1.761.153-2.276-1.682-2.288-3.5-1,.062-.566-.821-1.789-.617-1.063.177-.664-.653-1.567-1.014-1.048-.425-.838-2.031.14-1.569,0,0-.453.3.074.578s.476-.368,1.521-.447,1.165.814,2.386.276C338.5,110.816,339.5,110.784,340.482,111.688Z" transform="translate(-319.796 -110.996)"/><path class="i" d="M368.57,117.936a.61.61,0,0,1,.678-.266c.479.1.517.313.817.285s.191.291.191.291-.081-.24-.442-.106-.6-.194-.753-.047S368.57,117.936,368.57,117.936Z" transform="translate(-348.471 -116.234)"/><path class="q" d="M350.435,128.82a1.733,1.733,0,0,1-.547.982c-.379.336-.706.066-.719-.393,0-.415.177-1.091.612-1.253S350.514,128.36,350.435,128.82Z" transform="translate(-333.197 -124.476)"/><path class="i" d="M351.5,221.839s1.774,11.937,2.748,16.4c1.063,4.891,8.475,17.906,8.475,17.906l2.722-.885s-5.9-11.726-6.51-16.577c-.661-5.263-2.042-16.856-2.042-16.856Z" transform="translate(-335.031 -198.26)"/><path class="j" d="M400.69,375.657c-.011,0,.623.953.623.953l3.058-1-.359-.914Z" transform="translate(-373.76 -318.62)"/><path class="l" d="M355.061,241.808c2.05.4,1.833,8.047,1.586,11.979-.591-2.78-1.457-8.128-2.048-11.924a.7.7,0,0,1,.461-.055Z" transform="translate(-337.472 -213.976)"/><path class="i" d="M337.163,221.87s-.213,11.682-.047,16.445c.177,4.955,1.914,21.181,1.914,21.181h2.648s.1-15.937.213-20.8c.128-5.317.768-16.824.768-16.824Z" transform="translate(-323.656 -198.291)"/><path class="j" d="M343.927,393.84c-.013,0,.149,1.1.149,1.1h3.22l.087-.98Z" transform="translate(-329.069 -333.69)"/></g></svg>