<svg xmlns="http://www.w3.org/2000/svg" width="190" height="190" viewBox="0 0 190 190"><defs><style>.a,.b,.c{fill:#19af13;}.a{opacity:0.2;}.b{opacity:0.05;}</style></defs><g transform="translate(-93 -106)"><circle class="a" cx="75" cy="75" r="75" transform="translate(113 126)"/><circle class="b" cx="95" cy="95" r="95" transform="translate(93 106)"/><g transform="translate(128 141.008)"><path class="c" d="M59.929,0a59.929,59.929,0,1,0,59.929,59.929A59.929,59.929,0,0,0,59.929,0ZM92.92,41.552,50.114,84.359a4.28,4.28,0,0,1-6.053,0L26.938,67.236a4.281,4.281,0,1,1,5.947-6.158c.036.035.071.069.105.105l14.1,14.1L86.868,35.5a4.281,4.281,0,0,1,6.053,6.053Z"/></g></g></svg>